SplineFontDB: 3.0
FontName: Loma-Oblique
FullName: Loma Oblique
FamilyName: Loma
Weight: Book
Copyright: Copyright (c) NECTEC, 2003. All rights reserved.\nModified under GNU General Public License by TLWG.
Version: 0.9.14: 2008-05-16
ItalicAngle: -12
UnderlinePosition: -170
UnderlineWidth: 20
Ascent: 1638
Descent: 410
LayerCount: 2
Layer: 0 0 "Back" 
Layer: 1 0 "Fore" 
NeedsXUIDChange: 1
FSType: 0
OS2Version: 0
OS2_WeightWidthSlopeOnly: 0
OS2_UseTypoMetrics: 0
CreationTime: 1153662347
ModificationTime: 1211432060
PfmFamily: 33
TTFWeight: 400
TTFWidth: 5
LineGap: 0
VLineGap: 0
Panose: 2 11 5 4 2 2 2 2 2 4
OS2TypoAscent: 0
OS2TypoAOffset: 1
OS2TypoDescent: 0
OS2TypoDOffset: 1
OS2TypoLinegap: 0
OS2WinAscent: 0
OS2WinAOffset: 1
OS2WinDescent: 0
OS2WinDOffset: 1
HheadAscent: 0
HheadAOffset: 1
HheadDescent: 0
HheadDOffset: 1
OS2Vendor: 'PfEd'
Lookup: 4 0 1 "'liga' Standard Ligatures lookup 0"  {"'liga' Standard Ligatures lookup 0"  } ['liga' ('latn' <'dflt' > ) ]
Lookup: 6 0 0 "'ccmp' Thai General Composition"  {"'ccmp' Thai Below Vowel Tone Reordering"  "'ccmp' Thai General Composition"  } ['ccmp' ('DFLT' <'dflt' > 'thai' <'KUY ' 'PAL ' 'THA ' 'dflt' > ) ]
Lookup: 6 0 0 "'ccmp' Thai Conditional Descender Removal"  {"'ccmp' Thai Conditional Descender Removal"  } ['ccmp' ('DFLT' <'dflt' > 'thai' <'KUY ' 'PAL ' 'THA ' 'dflt' > ) ]
Lookup: 5 0 0 "Loma-Required Thai Descender Removal"  {"Loma-Required Thai Descender Removal"  } [' RQD' ('thai' <'PAL ' > ) ]
Lookup: 1 0 0 "Thai Descender Removal Single Substitution"  {"Thai Descender Removal Single Substitution" ("descless" ) } []
Lookup: 2 0 0 "Thai Sara Am Decomposition"  {"Thai Sara Am Decomposition"  } []
Lookup: 2 0 0 "Thai Tone Nikhahit Attachment"  {"Thai Tone Nikhahit Attachment"  } []
Lookup: 1 0 0 "Thai Sara Am Lakkhang"  {"Thai Sara Am Lakkhang"  } []
Lookup: 1 0 0 "Thai Tone Low Variant"  {"Thai Tone Low Variant" ("low" ) } []
Lookup: 1 0 0 "Thai Mark High Variant"  {"Thai Mark High Variant" ("high" ) } []

StartChar: .notdef
Encoding: 65536 -1 0
Width: 1536
Flags: W
HStem: 0 32<295 1255> 1248 32<553 1513>
LayerCount: 2
Fore
SplineSet
256 0 m 1
 528 1280 l 1
 1552 1280 l 1
 1280 0 l 1
 256 0 l 1
295 32 m 1
 1255 32 l 1
 1513 1248 l 1
 553 1248 l 1
 295 32 l 1
EndSplineSet
EndChar

StartChar: uni0E47.high
Encoding: 63263 63263 1
Width: 0
Flags: W
HStem: 1797.6 111.6<-216.765 -72.4667> 1876.8 136.8<-384.533 -262.431> 2066.7 47.7<-93.6991 14.1527> 2136 106.2<-368.576 -77.3429>
VStem: -578 135.9<1938.39 2070.41> -158.6 55.8<1957.28 2060.02> 16 77.4<1963.45 2065.2>
AnchorPoint: "AboveMark" -297 1740 mark 0
LayerCount: 2
Back
SplineSet
-35 2067 m 0x9f
 -65 2067 -94 2044 -102 2007 c 0
 -102.875 2003.12 -103.297 1999.42 -103.297 1995.91 c 0
 -103.297 1971.31 -82.625 1956 -52 1956 c 0
 -18 1956 7 1977 14 2009 c 0
 14.9327 2013.66 15.3861 2018.11 15.3861 2022.33 c 0
 15.3861 2049.72 -3.79687 2067 -35 2067 c 0x9f
-69 1917 m 1x3f
 -141.89 1917 -159.108 1957.24 -159.108 1991.04 c 0
 -159.108 1998.51 -158.267 2005.66 -157 2012 c 0
 -144 2073 -82 2114 -24 2114 c 0
 37 2114 82 2091 88 2051 c 0
 90.3723 2036.17 92.3928 2020.99 92.3928 2004.84 c 0
 92.3928 1993.75 91.4416 1982.21 89 1970 c 0
 69 1875 -9 1798 -106 1798 c 0x9f
 -273 1798 -277 1877 -347 1877 c 0x5f
 -384 1877 -389 1810 -400 1798 c 1x9f
 -527.602 1798 -578.388 1869.88 -578.388 1952.71 c 0
 -578.388 1968.55 -576.531 1984.79 -573 2001 c 0
 -553 2097 -472 2242 -167 2242 c 0
 -86 2242 20 2249 74 2347 c 1
 202 2347 l 1
 185 2266 65 2172 -23 2150 c 0
 -54 2141 -105 2136 -178 2136 c 0
 -355 2136 -423 2082 -441 1996 c 0
 -442.184 1990.08 -442.784 1983.88 -442.784 1977.75 c 0
 -442.784 1952.83 -432.868 1929 -412 1929 c 1
 -401 1965 -379 2014 -318 2014 c 0x5f
 -268 2014 -233 1949 -180 1925 c 0
 -161.176 1918.28 -131.957 1909.29 -105.104 1909.29 c 0
 -92.0142 1909.29 -79.4868 1911.43 -69 1917 c 1x3f
EndSplineSet
Fore
Refer: 190 3655 N 0.9 0 0 0.9 70 642 2
EndChar

StartChar: uni0E4D.high
Encoding: 63262 63262 2
Width: 0
VWidth: 2561
Flags: W
HStem: 1726 72<58.4943 200.303> 1954 73<73.3176 214.972>
VStem: -13 299<1795 1798 1954 1957 1875 1875>
AnchorPoint: "AboveMark" 107 1740 mark 0
LayerCount: 2
Fore
SplineSet
169 2027 m 0
 251 2027 304 1961 286 1875 c 0
 269 1795 187 1726 105 1726 c 0
 26 1726 -32 1789 -13 1875 c 0
 4 1957 88 2027 169 2027 c 0
119 1798 m 0
 158 1798 207 1834 216 1875 c 0
 225 1921 195 1954 152 1954 c 0
 103 1954 64 1917 56 1875 c 0
 47 1834 77 1798 119 1798 c 0
EndSplineSet
EndChar

StartChar: exclam
Encoding: 33 33 5
Width: 569
Flags: W
HStem: 0 194<247 370> 1430 20G<501.743 686>
VStem: 206 480<0 1450>
LayerCount: 2
Fore
SplineSet
410 999 m 1
 506 1450 l 1
 686 1450 l 1
 590 999 l 1
 413 365 l 1
 320 365 l 1
 410 999 l 1
247 194 m 1
 411 194 l 1
 370 0 l 1
 206 0 l 1
 247 194 l 1
EndSplineSet
EndChar

StartChar: quotedbl
Encoding: 34 34 6
Width: 727
Flags: W
HStem: 1430 20G<409.794 594 742.794 927>
VStem: 357 570<947 1450>
LayerCount: 2
Fore
SplineSet
357 947 m 1
 365 1217 l 1
 414 1450 l 1
 594 1450 l 1
 545 1217 l 1
 442 947 l 1
 357 947 l 1
688 947 m 1
 698 1217 l 1
 747 1450 l 1
 927 1450 l 1
 878 1217 l 1
 773 947 l 1
 688 947 l 1
EndSplineSet
EndChar

StartChar: numbersign
Encoding: 35 35 7
Width: 1139
Flags: W
HStem: -10 21G<85 273.658 544 731.658> 385 180<141 256 504 714 962 1195> 895 180<249 468 716 927 1175 1303> 1450 20G<698.342 887 1157.34 1346>
LayerCount: 2
Fore
SplineSet
85 -10 m 1
 256 385 l 1
 103 385 l 1
 141 565 l 1
 324 565 l 1
 468 895 l 1
 211 895 l 1
 249 1075 l 1
 536 1075 l 1
 707 1470 l 1
 887 1470 l 1
 716 1075 l 1
 995 1075 l 1
 1166 1470 l 1
 1346 1470 l 1
 1175 1075 l 1
 1341 1075 l 1
 1303 895 l 1
 1107 895 l 1
 962 565 l 1
 1233 565 l 1
 1195 385 l 1
 894 385 l 1
 723 -10 l 1
 544 -10 l 1
 714 385 l 1
 436 385 l 1
 265 -10 l 1
 85 -10 l 1
504 565 m 1
 782 565 l 1
 927 895 l 1
 648 895 l 1
 504 565 l 1
EndSplineSet
EndChar

StartChar: dollar
Encoding: 36 36 8
Width: 1139
Flags: W
VStem: 152.654 189.822<204.59 399.209> 316.092 185.904<877.083 1133.13> 946.859 189.261<295.374 556.891> 1056.55 179.84<1050.64 1197.28>
LayerCount: 2
Fore
SplineSet
487 -17 m 1x20
 288.141 9.45762 152.654 107.3 152.654 305.745 c 0
 152.654 339.816 156.648 376.851 165 417 c 1
 344 417 l 1
 342.983 403.277 342.476 389.92 342.476 376.953 c 0xa0
 342.476 236.84 401.673 142.221 517 123 c 1
 629 651 l 1
 484.694 688.183 316.092 760.636 316.092 950.931 c 0
 328.672 1225.11 539.608 1385.32 790 1409 c 1
 807 1488 l 1
 950 1488 l 1
 933 1409 l 1
 1113.41 1391.14 1236.39 1284.73 1236.39 1114 c 0
 1236.39 1093.58 1234.63 1072.23 1231 1050 c 1
 1056 1050 l 1
 1056.37 1054.91 1056.55 1059.87 1056.55 1064.86 c 0x50
 1056.55 1154.36 997.771 1253.85 904 1269 c 1
 802 790 l 1
 803 789 l 1
 983.649 746.238 1136.12 670.726 1136.12 485.366 c 0
 1124.12 188.924 884.686 3.80767 631 -15 c 1
 609 -118 l 1
 466 -118 l 1
 487 -17 l 1x20
761 1271 m 1
 634.453 1249.62 505.322 1145.91 501.996 991.308 c 0x40
 501.996 891.813 573.638 838.355 663 810 c 1
 761 1271 l 1
946.859 445.632 m 0x20
 946.859 547.914 875.146 592.434 768 629 c 1
 660 123 l 1
 802.145 153.365 946.859 274.5 946.859 445.632 c 0x20
EndSplineSet
EndChar

StartChar: percent
Encoding: 37 37 9
Width: 1821
Flags: W
HStem: -53 123<1306.55 1501.76> 598 123<1406.38 1597.65> 717 123<523.557 717.845> 1366 125<616.832 813.404>
VStem: 339.998 154.822<866.816 1202.86> 840.286 153.845<1004.9 1340.6> 1124.44 155.66<94.7405 437.816> 1624.4 156.39<231.144 573.523>
LayerCount: 2
Fore
SplineSet
339.998 978.103 m 0xbf
 339.998 1168.68 451.853 1491 743 1491 c 0
 943.905 1491 994.131 1343.55 994.131 1227.26 c 0
 994.131 989.486 838.221 717 580 717 c 0
 427.575 717 339.998 813.948 339.998 978.103 c 0xbf
840.286 1225.24 m 0
 840.286 1341.87 769.314 1366 722 1366 c 0
 537.248 1366 494.82 1059.23 494.82 980.979 c 0
 494.82 866.335 564.528 840 611 840 c 0
 801.953 840 840.286 1154.91 840.286 1225.24 c 0
1534 1491 m 1
 1714 1491 l 1
 636 -10 l 1
 456 -10 l 1
 1534 1491 l 1
1124.44 209.877 m 0
 1124.44 407.394 1241.09 721 1529 721 c 0xdf
 1730.43 721 1780.79 569.567 1780.79 454.023 c 0
 1780.79 216.125 1625.06 -53 1365 -53 c 0
 1172.55 -53 1124.44 90.9128 1124.44 209.877 c 0
1624.4 456.575 m 0
 1624.4 577.007 1551.36 598 1507 598 c 0
 1348.67 599.542 1280.1 360 1280.1 210.404 c 0
 1280.1 95.2083 1349.09 70 1395 70 c 0
 1567.42 77.1666 1624.4 324 1624.4 456.575 c 0
EndSplineSet
EndChar

StartChar: ampersand
Encoding: 38 38 10
Width: 1366
Flags: W
HStem: -25 158<444.566 747.365> 1343 148<785.63 1016.14>
VStem: 164.624 200.865<218.137 505.772> 512.806 191.912<1024.21 1256.93> 1047.21 187.33<1085.64 1313.18>
LayerCount: 2
Fore
SplineSet
1234.54 1243.79 m 0
 1234.54 990.116 936.956 850.775 875 821 c 1
 1066 485 l 1
 1108 542 1146 611 1179 690 c 1
 1359 649 l 1
 1299 522 1233 417 1161 334 c 1
 1210 247 1270 172 1342 109 c 1
 1191 -35 l 1
 1129 13 1068 82 1010 172 c 1
 865 41 711 -25 548 -25 c 0
 241.299 -25 164.624 194.6 164.624 318.787 c 0
 164.624 527.588 317.79 714.957 615 842 c 1
 567.82 915.774 512.806 1016 512.806 1106.33 c 0
 512.806 1281.67 696.01 1491 954 1491 c 0
 1151.97 1491 1234.54 1356.7 1234.54 1243.79 c 0
912 1343 m 0
 799.676 1343 704.718 1248 704.718 1150.6 c 0
 703.748 1073.64 769.948 994.818 805 938 c 1
 857.316 964.158 1047.21 1048.14 1047.21 1213.36 c 0
 1047.21 1288.02 996.141 1343 912 1343 c 0
365.489 363.849 m 0
 365.489 278.646 407.594 133 583 133 c 0
 707.223 133 854.681 226.245 927 315 c 1
 684 725 l 1
 510.114 630.878 365.489 521.185 365.489 363.849 c 0
EndSplineSet
EndChar

StartChar: quotesingle
Encoding: 39 39 11
Width: 391
Flags: W
HStem: 1446 20G<397.755 607>
VStem: 337 270<947 1466>
LayerCount: 2
Fore
SplineSet
337 947 m 1
 350 1221 l 1
 402 1466 l 1
 607 1466 l 1
 555 1221 l 1
 448 947 l 1
 337 947 l 1
EndSplineSet
EndChar

StartChar: parenleft
Encoding: 40 40 12
Width: 682
Flags: W
VStem: 207.6 178.966<-96.1961 577.591>
LayerCount: 2
Fore
SplineSet
387 -431 m 1
 250.978 -193.656 207.6 53.2289 207.6 254.43 c 0
 207.6 817.567 544.396 1229.23 796 1491 c 1
 925 1491 l 1
 648.701 1155.39 386.566 780 386.566 200.247 c 0
 386.566 -10.3583 429.9 -220.679 516 -431 c 1
 387 -431 l 1
EndSplineSet
EndChar

StartChar: parenright
Encoding: 41 41 13
Width: 682
Flags: W
VStem: 576.825 177.945<510.89 1152.42>
LayerCount: 2
Fore
SplineSet
754.77 836.793 m 0
 754.77 285.322 424.688 -167.312 161 -431 c 1
 32 -431 l 1
 319.003 -87.0263 576.825 360.715 576.825 888.525 c 0
 576.825 1158.08 485.017 1358.95 441 1491 c 1
 570 1491 l 1
 699.972 1248.19 754.77 1048.71 754.77 836.793 c 0
EndSplineSet
EndChar

StartChar: asterisk
Encoding: 42 42 14
Width: 797
Flags: W
HStem: 867 624<638 712>
VStem: 318 661<1197 1197>
LayerCount: 2
Fore
SplineSet
318 1197 m 1
 395 1339 l 1
 493 1302 563 1269 605 1242 c 1
 618 1363 629 1446 638 1491 c 1
 783 1491 l 1
 767 1425 741 1342 707 1243 c 1
 784 1278 868 1310 964 1339 c 1
 979 1197 l 1
 888 1169 801 1150 719 1141 c 1
 752 1106 796 1043 850 952 c 1
 712 867 l 1
 685 920 655 991 621 1082 c 1
 552 988 493 916 445 867 c 1
 345 952 l 1
 443 1047 512 1110 552 1141 c 1
 469 1158 391 1176 318 1197 c 1
EndSplineSet
EndChar

StartChar: plus
Encoding: 43 43 15
Width: 1196
Flags: W
HStem: 639 168<286 649 855 1218>
VStem: 250 1004<639 807>
LayerCount: 2
Fore
SplineSet
563 237 m 1
 649 639 l 1
 250 639 l 1
 286 807 l 1
 685 807 l 1
 769 1206 l 1
 939 1206 l 1
 855 807 l 1
 1254 807 l 1
 1218 639 l 1
 819 639 l 1
 733 237 l 1
 563 237 l 1
EndSplineSet
EndChar

StartChar: comma
Encoding: 44 44 16
Width: 569
Flags: W
VStem: 125 306<-213 205>
LayerCount: 2
Fore
SplineSet
182 0 m 1
 226 205 l 1
 431 205 l 1
 387 0 l 2
 355.886 -145.849 287.28 -239.5 158 -290 c 1
 125 -213 l 1
 209.414 -177.999 254.48 -120.047 284 0 c 1
 182 0 l 1
EndSplineSet
EndChar

StartChar: hyphen
Encoding: 45 45 17
Width: 682
Flags: W
HStem: 440 181<197 712>
VStem: 159 591<440 621>
LayerCount: 2
Fore
SplineSet
159 440 m 1
 197 621 l 1
 750 621 l 1
 712 440 l 1
 159 440 l 1
EndSplineSet
EndChar

StartChar: period
Encoding: 46 46 18
Width: 569
Flags: W
HStem: 0 205<230 391>
VStem: 186 249<0 205>
LayerCount: 2
Fore
SplineSet
186 0 m 1
 230 205 l 1
 435 205 l 1
 391 0 l 1
 186 0 l 1
EndSplineSet
EndChar

StartChar: slash
Encoding: 47 47 19
Width: 595
Flags: W
HStem: -10 21G<-83 112.162> 1450 20G<805.824 1000>
LayerCount: 2
Fore
SplineSet
-83 -10 m 1
 818 1470 l 1
 1000 1470 l 1
 100 -10 l 1
 -83 -10 l 1
EndSplineSet
EndChar

StartChar: zero
Encoding: 48 48 20
Width: 1139
Flags: W
HStem: -10 150<462.454 732.725> 1309 150<686.409 968.345>
VStem: 201.059 184.844<227.351 735.267> 1046.91 185.54<697.631 1223.19>
LayerCount: 2
Fore
SplineSet
561 -10 m 0
 305.688 -10 201.059 143.79 201.059 403.822 c 0
 201.059 574.938 261.202 913.653 376 1133 c 0
 489 1350 655 1459 873 1459 c 0
 1112.63 1459 1232.45 1319.88 1232.45 1041.21 c 0
 1232.45 800.328 1142.67 459.86 1040 285 c 0
 928 96 770 -2 561 -10 c 0
593 140 m 0
 959.725 141.881 1046.91 864.565 1046.91 1019.07 c 0
 1046.91 1212.47 977.604 1309 839 1309 c 0
 673 1309 521.998 1190.8 424 723 c 0
 411.52 664.439 385.903 544.208 385.903 425.014 c 0
 385.903 235.005 454.936 140 593 140 c 0
EndSplineSet
EndChar

StartChar: one
Encoding: 49 49 21
Width: 1139
Flags: W
HStem: 0 21G<583 767.253> 1452 20G<883.5 1076>
VStem: 416 660<907 1472>
LayerCount: 2
Fore
SplineSet
763 0 m 1
 583 0 l 1
 824 1135 l 1
 767 1069 689 1013 590 966 c 0
 530 937 472 918 416 907 c 1
 458 1104 l 1
 573 1153 677 1221 768 1306 c 0
 828 1363 871 1419 896 1472 c 1
 1076 1472 l 1
 763 0 l 1
EndSplineSet
EndChar

StartChar: two
Encoding: 50 50 22
Width: 1139
Flags: W
HStem: 0 173<349 1031> 1333 149<677.031 1003.82>
VStem: 1079.96 188.13<980.507 1260.86>
LayerCount: 2
Fore
SplineSet
887 1482 m 0
 1189.44 1482 1268.09 1296.88 1268.09 1170.61 c 0
 1268.09 1050 1229.52 903.736 1023 705 c 0
 852.856 541.267 470 345 349 173 c 1
 1068 173 l 1
 1031 0 l 1
 62 0 l 1
 210.003 499.081 1079.96 707.738 1079.96 1139.09 c 0
 1079.96 1254.54 989.967 1333 851 1333 c 0
 641.6 1333 535.316 1186.84 502 1039 c 1
 317 1039 l 1
 368.591 1285.49 583.016 1482 887 1482 c 0
EndSplineSet
EndChar

StartChar: three
Encoding: 51 51 23
Width: 1139
Flags: W
HStem: -10 166<435.749 765.581> 713 137<651.997 852.594> 1070 21G<331 538.374> 1317 165<668.704 977.14>
VStem: 167.982 181.768<242.607 415.597> 957.859 194.291<409.882 622.232> 1030.11 186.47<1016.15 1263.31>
LayerCount: 2
Fore
SplineSet
167.982 341.949 m 0xfc
 167.982 367.471 169.626 393.817 177 427 c 1
 357 427 l 1
 354.677 408.389 349.784 392.16 349.75 371.296 c 0
 349.75 245.945 444.127 156 586 156 c 0
 812.235 156 957.859 336.505 957.859 516.226 c 0xfc
 957.859 642.852 867.829 713 728 713 c 0
 685 713 638 707 589 694 c 1
 622 852 l 1
 676 850 l 2
 855.753 843.342 1030.11 992.751 1030.11 1157.95 c 0
 1030.11 1261.55 947.131 1317 829 1317 c 0
 676.969 1321.44 565.748 1222.37 511 1070 c 1
 331 1070 l 1
 380.364 1294.38 611.433 1482 860 1482 c 0
 1089.36 1482 1216.58 1341.72 1216.58 1180.13 c 0xfa
 1216.58 982.372 1068.41 847.086 941 794 c 1
 1146.91 743.993 1152.15 595.703 1152.15 536.846 c 0
 1152.15 496.759 1139.51 293.76 949 135 c 0
 847.052 50.8951 697.78 -10 550 -10 c 0
 312.88 -10 167.982 147.3 167.982 341.949 c 0xfc
EndSplineSet
EndChar

StartChar: four
Encoding: 52 52 24
Width: 1139
Flags: W
HStem: 0 21G<662 846.265> 347 175<362 736 953 1114> 1452 20G<957.358 1155>
LayerCount: 2
Fore
SplineSet
662 0 m 1
 736 347 l 1
 100 347 l 1
 137 522 l 1
 975 1472 l 1
 1155 1472 l 1
 953 522 l 1
 1151 522 l 1
 1114 347 l 1
 916 347 l 1
 842 0 l 1
 662 0 l 1
773 522 m 1
 899 1117 l 1
 362 522 l 1
 773 522 l 1
EndSplineSet
EndChar

StartChar: five
Encoding: 53 53 25
Width: 1139
Flags: W
HStem: -10 164<437.525 763.385> 817 170<579.183 893.298> 1292 180<698 1263>
VStem: 169.113 191.945<229.888 414.216> 982.015 196.485<405.003 729.747>
LayerCount: 2
Fore
SplineSet
554 -10 m 0
 246.09 -10 169.113 185.522 169.113 347.944 c 0
 169.113 369.45 170.398 391.802 173 415 c 1
 362 415 l 1
 361.372 404.718 361.058 394.737 361.058 385.058 c 0
 361.058 234.484 438.068 154 589 154 c 0
 851.011 154 982.015 405.144 982.015 589.149 c 0
 982.015 735.171 885.14 817 727 817 c 0
 628 817 536 773 452 686 c 1
 267 708 l 1
 572 1472 l 1
 1301 1472 l 1
 1263 1292 l 1
 698 1292 l 1
 540 920 l 1
 603.681 965.31 695.81 987 811 987 c 0
 1048 987 1178.5 830.058 1178.5 631.596 c 0
 1178.5 328.12 928.7 -10 554 -10 c 0
EndSplineSet
EndChar

StartChar: six
Encoding: 54 54 26
Width: 1139
Flags: W
HStem: -10 165<476.208 771.97> 807 170<590.288 890.227> 1305 177<701.442 1013.64>
VStem: 193.037 205.592<235.729 549.321> 974.106 187.864<387.17 721.793> 1074 188.06<1103 1241.35>
LayerCount: 2
Fore
SplineSet
1262.06 1182.46 m 0xf4
 1262.06 1142.72 1256.45 1118.53 1253 1103 c 1
 1074 1103 l 1xf4
 1072.61 1265.99 972.74 1305 869 1305 c 0
 660 1305 521 1151 450 842 c 1
 548.318 939.041 661.2 977 802 977 c 0
 1017.98 977 1161.97 821.972 1161.97 605.249 c 0xf8
 1161.97 338.836 943.514 -10 584 -10 c 0
 271.23 -10 193.037 204.064 193.037 425.128 c 0
 193.037 506.594 203.925 598.651 226 701 c 0
 331.959 1200.33 559.829 1482 918 1482 c 0
 1137.59 1482 1262.06 1342.75 1262.06 1182.46 c 0xf4
748 807 m 0
 507.741 807 398.629 564.25 398.629 389.823 c 0
 398.629 292.582 442.103 155 616 155 c 0
 855.753 155 974.106 397.494 974.106 577.022 c 0xf8
 974.106 714.779 892.72 807 748 807 c 0
EndSplineSet
EndChar

StartChar: seven
Encoding: 55 55 27
Width: 1139
Flags: W
HStem: 0 21G<293 534> 1292 180<410 1070>
LayerCount: 2
Fore
SplineSet
372 1292 m 1
 410 1472 l 1
 1359 1472 l 1
 1321 1292 l 1
 1131 1111 966 911 822 692 c 0
 661 446 557 215 511 0 c 1
 293 0 l 1
 344 235 464 494 651 776 c 0
 785 979 925 1151 1070 1292 c 1
 372 1292 l 1
EndSplineSet
EndChar

StartChar: eight
Encoding: 56 56 28
Width: 1139
Flags: W
HStem: -10 157<444.799 774.925> 699 181<614.956 880.668> 1326 156<685.589 986.449>
VStem: 176 177.304<368.205 526.463> 368.316 186.918<935.572 1197.18> 964.723 186.557<332.119 623.47> 1044 188.41<1007.53 1267.56>
LayerCount: 2
Fore
SplineSet
176 439 m 1xfc
 230.527 692.892 417.222 776.761 533 805 c 1
 423.211 848.916 368.316 923.255 368.316 1027.48 c 0
 368.316 1233.06 551.214 1482 878 1482 c 0
 1107 1482 1232.41 1351.63 1232.41 1185.15 c 0xfa
 1232.41 1067.58 1183.38 902.063 972 816 c 2
 944 805 l 1
 1107.24 748.055 1155.7 638.328 1151.28 524.355 c 0
 1139 208 899.07 -10 564 -10 c 0
 298.62 -10 164.065 144.204 164.065 332.547 c 0
 164.065 385.773 176 428.355 176 439 c 1xfc
1044 1153.98 m 0
 1044 1259.59 964.066 1326 847 1326 c 0
 692 1326 555.234 1216 555.234 1050.74 c 0
 555.234 943.088 634.365 880 754 880 c 0
 931.2 880 1044 1017.72 1044 1153.98 c 0
711 699 m 0
 430.012 699 353.304 484.804 353.304 368.205 c 0
 353.304 249.587 436.315 147 599 147 c 0
 836.208 147 964.723 338.731 964.723 499.718 c 0xfc
 964.723 630.836 862.635 699 711 699 c 0
EndSplineSet
EndChar

StartChar: nine
Encoding: 57 57 29
Width: 1139
Flags: W
HStem: -10 177<457.69 769.164> 495 170<580.772 882.004> 1317 165<699.978 992.585>
VStem: 208.938 187.062<230.651 369> 309.029 187.865<750.207 1084.31> 1072.37 205.38<921.406 1236.58>
LayerCount: 2
Fore
SplineSet
208.938 289.542 m 0xf4
 208.938 329.231 215.236 353.125 217 369 c 1
 396 369 l 1xf4
 398.809 204.645 500.299 167 601 167 c 0
 810 167 950 321 1021 630 c 1
 927.064 537.284 813.655 495 669 495 c 0
 453.017 495 309.029 650.028 309.029 866.751 c 0xec
 309.029 1147.62 540.217 1482 887 1482 c 0
 1199.6 1482 1277.75 1267.74 1277.75 1049.37 c 0
 1277.75 967.289 1266.63 874.397 1245 771 c 0
 1139.04 271.67 911.171 -10 553 -10 c 0
 333.408 -10 208.938 129.254 208.938 289.542 c 0xf4
723 665 m 0
 962.118 665 1072.37 907.341 1072.37 1082.18 c 0
 1072.37 1178.99 1028.9 1317 855 1317 c 0
 628 1317 496.894 1088 496.894 894.978 c 0xec
 496.894 757.221 578.28 665 723 665 c 0
EndSplineSet
EndChar

StartChar: colon
Encoding: 58 58 30
Width: 569
Flags: W
HStem: 0 205<229 390> 857 205<411 572>
VStem: 185 431<0 1062>
LayerCount: 2
Fore
SplineSet
367 857 m 1
 411 1062 l 1
 616 1062 l 1
 572 857 l 1
 367 857 l 1
185 0 m 1
 229 205 l 1
 434 205 l 1
 390 0 l 1
 185 0 l 1
EndSplineSet
EndChar

StartChar: semicolon
Encoding: 59 59 31
Width: 569
Flags: W
HStem: 857 205<408 569>
VStem: 125 488<-213 1062>
LayerCount: 2
Fore
SplineSet
364 857 m 1
 408 1062 l 1
 613 1062 l 1
 569 857 l 1
 364 857 l 1
182 0 m 1
 226 205 l 1
 431 205 l 1
 387 0 l 2
 354.039 -149.066 282.408 -241.142 158 -290 c 1
 125 -213 l 1
 213.431 -177.628 258.92 -106.589 284 0 c 1
 182 0 l 1
EndSplineSet
EndChar

StartChar: less
Encoding: 60 60 32
Width: 1196
Flags: W
HStem: 226 993<1131 1342>
LayerCount: 2
Fore
SplineSet
248 641 m 1
 284 809 l 1
 1342 1219 l 1
 1304 1040 l 1
 467 724 l 1
 1169 405 l 1
 1131 226 l 1
 248 641 l 1
EndSplineSet
EndChar

StartChar: equal
Encoding: 61 61 33
Width: 1196
Flags: W
HStem: 417 168<238 1171> 862 168<333 1265>
LayerCount: 2
Fore
SplineSet
1265 862 m 1
 297 862 l 1
 333 1030 l 1
 1301 1030 l 1
 1265 862 l 1
1171 417 m 1
 203 417 l 1
 238 585 l 1
 1206 585 l 1
 1171 417 l 1
EndSplineSet
EndChar

StartChar: greater
Encoding: 62 62 34
Width: 1196
Flags: W
HStem: 226 993<160 371>
LayerCount: 2
Fore
SplineSet
1219 641 m 1
 160 226 l 1
 198 405 l 1
 1035 724 l 1
 333 1040 l 1
 371 1219 l 1
 1255 809 l 1
 1219 641 l 1
EndSplineSet
EndChar

StartChar: question
Encoding: 63 63 35
Width: 1139
Flags: W
HStem: 0 205<505 666> 1341 163<684.261 1006>
VStem: 1089.67 189.65<1000.88 1260.71>
LayerCount: 2
Fore
SplineSet
885 1504 m 0
 1161.94 1504 1279.32 1332.42 1279.32 1179.65 c 0
 1279.32 775 810.128 772.08 722 361 c 1
 549 361 l 1
 567 436 l 2
 673.785 829.156 1089.67 850 1089.67 1136.7 c 0
 1089.67 1219.9 1036.91 1341 853 1341 c 0
 638.147 1339.47 541.824 1167.02 497 1046 c 1
 312 1046 l 1
 381.027 1300.42 598.401 1504 885 1504 c 0
461 0 m 1
 505 205 l 1
 710 205 l 1
 666 0 l 1
 461 0 l 1
EndSplineSet
EndChar

StartChar: at
Encoding: 64 64 36
Width: 2079
Flags: W
HStem: -431 157<736.827 1380.72> -33 194<1330.39 1542.21> -3 164<814.646 1065.62> 925 159<1072.55 1344.5> 1338 155<1107.67 1645.18>
VStem: 185.421 163.724<60.1627 539.159> 584.379 182.82<208.952 554.516> 1966.41 159.45<627.74 1047.52>
LayerCount: 2
Fore
SplineSet
1347 -33 m 0xdf
 1261.64 -33 1184.6 -8.8368 1184.6 87.816 c 0
 1184.6 97.96 1185.4 109 1187 121 c 1
 1098 38 986 -3 853 -3 c 0xbf
 638.103 -3 584.379 193.076 584.379 321.87 c 0
 584.379 704.696 944.675 1084 1241 1084 c 0
 1383 1084 1474 1035 1512 938 c 1
 1576 1079 l 1
 1755 1079 l 1
 1461 379 l 2
 1391.66 214.648 1404.07 228.797 1398 212 c 1
 1399.23 199.661 1409.8 163 1457 163 c 0
 1631.98 163 1966.41 505.664 1966.41 853.506 c 0
 1966.41 1143.74 1730.08 1338 1377 1338 c 0
 747.702 1338 349.145 770.882 349.145 283.471 c 0
 349.145 -104.058 644.728 -274 1062 -274 c 0
 1521.6 -274 1752.05 -64.5403 1828 19 c 1
 2009 19 l 1
 1829.34 -238.776 1470.05 -431 1031 -431 c 0
 540.831 -431 185.421 -220.187 185.421 239.823 c 0
 185.421 809.907 658.674 1493 1419 1493 c 0
 1854.12 1493 2125.86 1248.03 2125.86 880.576 c 0
 2125.86 421.971 1688.03 -33 1347 -33 c 0xdf
767.199 351.69 m 0
 767.199 239.048 820.613 161 925 161 c 0
 1183.07 161 1392.35 523.004 1392.35 746.533 c 0
 1392.35 859.802 1332.32 925 1221 925 c 0
 968.488 925 767.199 570.172 767.199 351.69 c 0
EndSplineSet
EndChar

StartChar: A
Encoding: 65 65 37
Width: 1366
Flags: W
HStem: 0 21G<-2 215.272 1144.71 1368> 471 182<574 1042> 1430 20G<855.014 1080.03>
LayerCount: 2
Fore
SplineSet
867 1450 m 1
 1076 1450 l 1
 1368 0 l 1
 1149 0 l 1
 1048 471 l 1
 492 471 l 1
 203 0 l 1
 -2 0 l 1
 867 1450 l 1
1042 653 m 1
 922 1237 l 1
 574 653 l 1
 1042 653 l 1
EndSplineSet
EndChar

StartChar: B
Encoding: 66 66 38
Width: 1366
Flags: W
HStem: 0 173<381 981.236> 669 173<523 1073.71> 1277 173<615 1169.57>
VStem: 1151.94 203.17<318.623 600.03> 1225.74 197.25<982.259 1226.98>
LayerCount: 2
Fore
SplineSet
1145 772 m 1xe8
 1306.63 721.971 1355.11 606.416 1355.11 501.866 c 0xf0
 1355.11 209.776 1115 3.54936e-05 709 0 c 2
 164 0 l 1
 472 1450 l 1
 1008 1450 l 2
 1260 1450 1422.99 1365 1422.99 1151.91 c 0
 1422.99 999.946 1321.53 850.973 1145 772 c 1xe8
523 842 m 1
 840 842 l 2
 1015 842 1225.74 875 1225.74 1114.86 c 0xe8
 1225.74 1270 1095 1277 908 1277 c 2
 615 1277 l 1
 523 842 l 1
1151.94 481.944 m 0xf0
 1151.94 639.795 1010 669 825 669 c 2
 486 669 l 1
 381 173 l 1
 746 173 l 2
 1105 173 1151.94 365 1151.94 481.944 c 0xf0
EndSplineSet
EndChar

StartChar: C
Encoding: 67 67 39
Width: 1479
Flags: W
HStem: -10 180<626.634 1043.57> 1297 180<849.405 1273.25>
VStem: 239.109 200.633<360.1 822.876> 1408 188<1050 1197.82>
LayerCount: 2
Fore
SplineSet
824 170 m 0
 1064.29 170 1256.41 302.527 1312 480 c 1
 1500 480 l 1
 1311.19 75.1124 1000.71 -10 789 -10 c 0
 500.932 -10 239.109 101.354 239.109 546.769 c 0
 239.109 1000.71 571.74 1477 1108 1477 c 0
 1498.4 1477 1583.94 1212.77 1596 1050 c 1
 1408 1050 l 1
 1392.96 1215.49 1265.36 1297 1066 1297 c 0
 636.238 1297 439.742 890.924 439.742 581.36 c 0
 439.742 252.272 640.971 170 824 170 c 0
EndSplineSet
EndChar

StartChar: D
Encoding: 68 68 40
Width: 1479
Flags: W
HStem: 0 173<387 958.86> 1277 173<621 1180.38>
VStem: 1360.14 205.88<654.362 1110.3>
LayerCount: 2
Fore
SplineSet
981 1450 m 2
 1425 1450 1566.02 1264.24 1566.02 985.589 c 0
 1566.02 745 1479 6.83646e-05 697 0 c 2
 168 0 l 1
 476 1450 l 1
 981 1450 l 2
1360.14 916.142 m 0
 1360.14 1204.83 1165 1277 941 1277 c 2
 621 1277 l 1
 387 173 l 1
 712 173 l 2
 1130 173 1360.14 500 1360.14 916.142 c 0
EndSplineSet
EndChar

StartChar: E
Encoding: 69 69 41
Width: 1366
Flags: W
HStem: 0 179<379 1222> 646 180<517 1158> 1268 182<611 1492>
LayerCount: 2
Fore
SplineSet
162 0 m 1
 470 1450 l 1
 1530 1450 l 1
 1492 1268 l 1
 611 1268 l 1
 517 826 l 1
 1197 826 l 1
 1158 646 l 1
 478 646 l 1
 379 179 l 1
 1260 179 l 1
 1222 0 l 1
 162 0 l 1
EndSplineSet
EndChar

StartChar: F
Encoding: 70 70 42
Width: 1251
Flags: W
HStem: 0 21G<168 351.243> 641 179<521 1145> 1271 179<617 1427>
LayerCount: 2
Fore
SplineSet
168 0 m 1
 476 1450 l 1
 1465 1450 l 1
 1427 1271 l 1
 617 1271 l 1
 521 820 l 1
 1183 820 l 1
 1145 641 l 1
 483 641 l 1
 347 0 l 1
 168 0 l 1
EndSplineSet
EndChar

StartChar: G
Encoding: 71 71 43
Width: 1479
Flags: W
HStem: -10 180<621.819 1043.56> 504 180<1050 1319> 1297 180<849.405 1272.57>
VStem: 239.109 200.633<358.663 822.876> 1408 188<1050 1199.43>
LayerCount: 2
Fore
SplineSet
439.742 581.36 m 0
 439.742 382.893 516.594 170 824 170 c 0
 1044 170 1276.49 304 1319 504 c 1
 1012 504 l 1
 1050 684 l 1
 1549 684 l 1
 1479 256 1245.4 -10 789 -10 c 0
 500.93 -10 239.109 101.354 239.109 546.769 c 0
 239.109 1000.71 571.74 1477 1108 1477 c 0
 1498.4 1477 1583.94 1212.77 1596 1050 c 1
 1408 1050 l 1
 1399.15 1159.17 1332.11 1297 1066 1297 c 0
 636.238 1297 439.742 890.924 439.742 581.36 c 0
EndSplineSet
EndChar

StartChar: H
Encoding: 72 72 44
Width: 1479
Flags: W
HStem: 0 21G<164 348.251 1134 1318.25> 668 180<524 1276> 1430 20G<467.752 652 1437.75 1622>
LayerCount: 2
Fore
SplineSet
164 0 m 1
 472 1450 l 1
 652 1450 l 1
 524 848 l 1
 1314 848 l 1
 1442 1450 l 1
 1622 1450 l 1
 1314 0 l 1
 1134 0 l 1
 1276 668 l 1
 486 668 l 1
 344 0 l 1
 164 0 l 1
EndSplineSet
EndChar

StartChar: I
Encoding: 73 73 45
Width: 650
Flags: W
HStem: 0 160<59 269 449 625> 1290 160<333 509 689 899>
VStem: 25 908<0 1450>
LayerCount: 2
Fore
SplineSet
659 160 m 1
 625 0 l 1
 25 0 l 1
 59 160 l 1
 269 160 l 1
 509 1290 l 1
 299 1290 l 1
 333 1450 l 1
 933 1450 l 1
 899 1290 l 1
 689 1290 l 1
 449 160 l 1
 659 160 l 1
EndSplineSet
EndChar

StartChar: J
Encoding: 74 74 46
Width: 1024
Flags: W
HStem: -10 180<368.311 656.4> 1280 170<716 957>
VStem: 136.614 187.785<214.792 373.715>
LayerCount: 2
Fore
SplineSet
324.399 333.819 m 0
 324.399 202.759 412.562 170 498 170 c 0
 684 170 744.08 278.534 785 471 c 2
 957 1280 l 1
 680 1280 l 1
 716 1450 l 1
 1173 1450 l 1
 962 456 l 2
 888.936 111.801 708.56 -10 461 -10 c 0
 273.4 -10 136.614 70.5573 136.614 269.749 c 0
 136.614 330.26 148.201 395.27 161 455 c 1
 341 455 l 1
 334.746 416.583 324.399 377.799 324.399 333.819 c 0
EndSplineSet
EndChar

StartChar: K
Encoding: 75 75 47
Width: 1366
Flags: W
HStem: 0 21G<150 334.267 1098.31 1346> 1430 20G<453.752 638 1353.44 1624>
LayerCount: 2
Fore
SplineSet
150 0 m 1
 458 1450 l 1
 638 1450 l 1
 497 785 l 1
 1380 1450 l 1
 1624 1450 l 1
 781 806 l 1
 1346 0 l 1
 1113 0 l 1
 621 670 l 1
 445 539 l 1
 330 0 l 1
 150 0 l 1
EndSplineSet
EndChar

StartChar: L
Encoding: 76 76 48
Width: 1139
Flags: W
HStem: 0 170<366 1060> 1430 20G<453.752 638>
VStem: 150 946<0 170>
LayerCount: 2
Fore
SplineSet
150 0 m 1
 458 1450 l 1
 638 1450 l 1
 366 170 l 1
 1096 170 l 1
 1060 0 l 1
 150 0 l 1
EndSplineSet
EndChar

StartChar: M
Encoding: 77 77 49
Width: 1706
Flags: W
HStem: 0 21G<152 336.253 702.494 1008.01 1370 1554.25> 1430 20G<455.752 643.629 1665.87 1858>
LayerCount: 2
Fore
SplineSet
152 0 m 1
 460 1450 l 1
 640 1450 l 1
 879 133 l 1
 1678 1450 l 1
 1858 1450 l 1
 1550 0 l 1
 1370 0 l 1
 1575 964 l 1
 996 0 l 1
 706 0 l 1
 537 964 l 1
 332 0 l 1
 152 0 l 1
EndSplineSet
EndChar

StartChar: N
Encoding: 78 78 50
Width: 1479
Flags: W
HStem: 0 21G<156 340.243 1121.25 1315.25> 1430 20G<459.752 653.762 1434.75 1619>
LayerCount: 2
Fore
SplineSet
156 0 m 1
 464 1450 l 1
 644 1450 l 1
 1198 315 l 1
 1439 1450 l 1
 1619 1450 l 1
 1311 0 l 1
 1131 0 l 1
 577 1136 l 1
 336 0 l 1
 156 0 l 1
EndSplineSet
EndChar

StartChar: O
Encoding: 79 79 51
Width: 1593
Flags: W
HStem: -10 180<618.939 1061.66> 1298 180<843.046 1285.09>
VStem: 235.556 200.776<357.413 722.228> 1472.33 201.99<654.596 1112.04>
LayerCount: 2
Fore
SplineSet
798 -10 m 0
 415.935 -10 235.556 235.666 235.556 531.76 c 0
 235.556 748.061 332.543 1069.28 558 1271 c 0
 714 1407 900 1476 1115 1478 c 0
 1474.96 1478 1674.32 1263.69 1674.32 939.143 c 0
 1674.32 470.554 1338.85 -10 798 -10 c 0
1472.33 909.757 m 0
 1472.33 1150.46 1336.5 1298 1078 1298 c 0
 731.387 1298 533.022 1074.1 455 711 c 0
 442.565 652.652 436.332 598.676 436.332 549.071 c 0
 436.332 381.792 516.066 170 835 170 c 0
 1344.86 170 1472.33 682.815 1472.33 909.757 c 0
EndSplineSet
EndChar

StartChar: P
Encoding: 80 80 52
Width: 1366
Flags: W
HStem: 0 21G<158 342.241> 580 173<498 1117.15> 1277 173<609 1237.56>
VStem: 1301.55 204.27<920.538 1217.18>
LayerCount: 2
Fore
SplineSet
158 0 m 1
 466 1450 l 1
 1019 1450 l 2
 1358.8 1460.11 1505.82 1360 1505.82 1123.87 c 0
 1505.82 955 1405 580 851 580 c 2
 461 580 l 1
 338 0 l 1
 158 0 l 1
498 753 m 1
 891 753 l 2
 1155 753 1301.55 880 1301.55 1088.13 c 0
 1301.55 1210 1255 1277 998 1277 c 2
 609 1277 l 1
 498 753 l 1
EndSplineSet
EndChar

StartChar: Q
Encoding: 81 81 53
Width: 1659
Flags: W
HStem: -14 189<1376.01 1520.67> -10 177<779.143 1064.32> 297 178<842.861 1075.18> 1298 180<843.046 1285.09>
VStem: 235.556 200.776<353.989 722.046> 1472.33 201.99<642.057 1112.04>
LayerCount: 2
Fore
SplineSet
996 475 m 0x3c
 1160.58 473.191 1244.06 390.271 1269 354 c 1
 1379.74 458.109 1466.5 684.897 1472.33 909.757 c 0
 1472.33 1150.46 1336.5 1298 1078 1298 c 0
 731.387 1298 533.022 1074.1 455 711 c 0
 442.565 652.334 436.332 598.14 436.332 548.387 c 0
 436.332 391.741 497.428 291.835 592 230 c 1
 669.003 391.706 849.363 475 996 475 c 0x3c
1674.32 939.143 m 0
 1674.32 732.594 1582.76 349.652 1360 204 c 1
 1373 185 1395 176 1427 175 c 0
 1473.43 175 1536.31 196.282 1581 228 c 1
 1678 90 l 1
 1589 21 1495 -14 1396 -14 c 0xbc
 1302.59 -14 1215.87 19.0335 1175 88 c 1
 1051.22 19.5058 958.5 -10 798 -10 c 0x7c
 415.93 -10 235.556 235.666 235.556 531.76 c 0
 235.556 748.061 332.543 1069.28 558 1271 c 0
 714 1407 900 1476 1115 1478 c 0
 1474.96 1478 1674.32 1263.69 1674.32 939.143 c 0
1098 226 m 1
 1068 273 1026 297 971 297 c 0
 923.684 297 825.813 275.627 775 174 c 1
 791 169 811 167 838 167 c 0x7c
 960.835 168.575 1057.33 197.841 1098 226 c 1
EndSplineSet
EndChar

StartChar: R
Encoding: 82 82 54
Width: 1400
Flags: W
HStem: 0 21G<158 342.241 1097.14 1387> 580 173<498 821> 1277 173<609 1231.3>
VStem: 1301.55 204.27<924.156 1218.13>
LayerCount: 2
Fore
SplineSet
821 580 m 1
 461 580 l 1
 338 0 l 1
 158 0 l 1
 466 1450 l 1
 1019 1450 l 2
 1400 1450 1505.82 1340 1505.82 1123.87 c 0
 1505.82 890 1320 625 1051 596 c 1
 1387 0 l 1
 1107 0 l 1
 821 580 l 1
498 753 m 1
 891 753 l 2
 1160 753 1301.55 875 1301.55 1088.13 c 0
 1301.55 1210 1255 1277 998 1277 c 2
 609 1277 l 1
 498 753 l 1
EndSplineSet
EndChar

StartChar: S
Encoding: 83 83 55
Width: 1366
Flags: W
HStem: -10 174<525.698 973.434> 1300 171<716.554 1139.32>
VStem: 186.88 193.05<294.827 483.459> 365.491 194.693<947.422 1164.35> 1164.71 195.92<331.513 553.573> 1247.64 191.28<1023.93 1195.38>
LayerCount: 2
Fore
SplineSet
715 -10 m 0xd8
 262.446 -10 186.88 226.761 186.88 384.602 c 0
 186.88 421.334 190.886 460.456 199 502 c 1
 382 502 l 1
 380.62 486.62 379.93 471.755 379.93 457.406 c 0
 379.93 222.681 566.598 164 743 164 c 0
 979.802 164 1164.71 280.993 1164.71 456.483 c 0xe8
 1160.94 627.927 928.926 625.687 781 666 c 0
 499.879 737.243 365.491 812.983 365.491 986.509 c 0
 365.491 1220.76 588.665 1471 977 1471 c 0
 1268 1471 1438.92 1324 1438.92 1105.8 c 0
 1438.92 1075.03 1434.47 1047.43 1432 1019 c 1
 1246 1019 l 1
 1247.09 1030.68 1247.64 1042.03 1247.64 1053.05 c 0xd4
 1247.64 1214.73 1129.12 1300 948 1300 c 0
 644.975 1300 560.184 1143.63 560.184 1039.38 c 0
 560.184 966.549 599.48 904.458 866 856 c 0
 1159.79 785.957 1360.63 736.578 1360.63 522.186 c 0
 1360.63 242.488 1091.81 -10 715 -10 c 0xd8
EndSplineSet
EndChar

StartChar: T
Encoding: 84 84 56
Width: 1251
Flags: W
HStem: 0 21G<538 722.25> 1280 170<356 810 990 1482>
LayerCount: 2
Fore
SplineSet
538 0 m 1
 810 1280 l 1
 320 1280 l 1
 356 1450 l 1
 1518 1450 l 1
 1482 1280 l 1
 990 1280 l 1
 718 0 l 1
 538 0 l 1
EndSplineSet
EndChar

StartChar: U
Encoding: 85 85 57
Width: 1479
Flags: W
HStem: -10 180<566.691 1009.02> 1430 20G<464.764 649 1437.76 1622>
VStem: 259.506 187.559<280.425 495.564>
LayerCount: 2
Fore
SplineSet
447.065 441.013 m 0
 447.065 336.682 483.669 170 773 170 c 0
 1157.83 170 1224.53 428.687 1255 568 c 2
 1442 1450 l 1
 1622 1450 l 1
 1435 567 l 2
 1353 182 1121 -10 739 -10 c 0
 419.843 -10 259.506 120.549 259.506 380.887 c 0
 259.506 418.11 262.288 475.83 282 567 c 2
 469 1450 l 1
 649 1450 l 1
 462 568 l 2
 452.04 521.591 447.065 479.268 447.065 441.013 c 0
EndSplineSet
EndChar

StartChar: V
Encoding: 86 86 58
Width: 1366
Flags: W
HStem: 0 21G<573.414 788.166> 1430 20G<317 530.57 1447.63 1658>
LayerCount: 2
Fore
SplineSet
577 0 m 1
 317 1450 l 1
 527 1450 l 1
 736 279 l 1
 1460 1450 l 1
 1658 1450 l 1
 776 0 l 1
 577 0 l 1
EndSplineSet
EndChar

StartChar: W
Encoding: 87 87 59
Width: 1933
Flags: W
HStem: 0 21G<412.883 622.222 1308.29 1517.61> 1430 20G<333 533.208 1131.7 1397.81 1996.3 2205>
VStem: 333 199<376.077 1438.01>
LayerCount: 2
Fore
SplineSet
414 0 m 1
 333 1450 l 1
 532 1450 l 1
 596 390 l 1
 1142 1450 l 1
 1396 1450 l 1
 1492 390 l 1
 2006 1450 l 1
 2205 1450 l 1
 1508 0 l 1
 1310 0 l 1
 1210 1170 l 1
 612 0 l 1
 414 0 l 1
EndSplineSet
EndChar

StartChar: X
Encoding: 88 88 60
Width: 1366
Flags: W
HStem: 0 21G<9 257.662 1112.82 1353> 1430 20G<384 623.453 1372.09 1621>
LayerCount: 2
Fore
SplineSet
9 0 m 1
 725 756 l 1
 384 1450 l 1
 614 1450 l 1
 873 902 l 1
 1391 1450 l 1
 1621 1450 l 1
 959 756 l 1
 1353 0 l 1
 1123 0 l 1
 811 613 l 1
 239 0 l 1
 9 0 l 1
EndSplineSet
EndChar

StartChar: Y
Encoding: 89 89 61
Width: 1366
Flags: W
HStem: 0 21G<571 769.251> 1431 20G<314 554.671 1409.01 1658>
LayerCount: 2
Fore
SplineSet
571 0 m 1
 703 621 l 1
 314 1451 l 1
 544 1451 l 1
 862 855 l 1
 1428 1451 l 1
 1658 1451 l 1
 897 621 l 1
 765 0 l 1
 571 0 l 1
EndSplineSet
EndChar

StartChar: Z
Encoding: 90 90 62
Width: 1251
Flags: W
HStem: 0 180<363 1200> 1270 180<353 1215>
LayerCount: 2
Fore
SplineSet
41 0 m 1
 81 187 l 1
 1215 1270 l 1
 315 1270 l 1
 353 1450 l 1
 1521 1450 l 1
 1483 1270 l 1
 363 180 l 1
 1238 180 l 1
 1200 0 l 1
 41 0 l 1
EndSplineSet
EndChar

StartChar: bracketleft
Encoding: 91 91 63
Width: 569
Flags: W
HStem: -407 149<264 449> 1317 149<599 816>
VStem: 52 796<-407 1466>
LayerCount: 2
Fore
SplineSet
52 -407 m 1
 451 1466 l 1
 848 1466 l 1
 816 1317 l 1
 599 1317 l 1
 264 -258 l 1
 481 -258 l 1
 449 -407 l 1
 52 -407 l 1
EndSplineSet
EndChar

StartChar: backslash
Encoding: 92 92 64
Width: 569
Flags: W
VStem: 317 247<-25 1491> 420 144<-25 1484.67>
LayerCount: 2
Fore
SplineSet
420 -25 m 1x40
 317 1491 l 1
 462 1491 l 1
 564 -25 l 1x80
 420 -25 l 1x40
EndSplineSet
EndChar

StartChar: bracketright
Encoding: 93 93 65
Width: 569
Flags: W
HStem: -407 149<-16 201> 1317 149<351 536>
VStem: -48 796<-407 1466>
LayerCount: 2
Fore
SplineSet
349 -407 m 1
 -48 -407 l 1
 -16 -258 l 1
 201 -258 l 1
 536 1317 l 1
 319 1317 l 1
 351 1466 l 1
 748 1466 l 1
 349 -407 l 1
EndSplineSet
EndChar

StartChar: asciicircum
Encoding: 94 94 66
Width: 961
Flags: W
HStem: 690 801<386 724>
VStem: 201 853<690 690>
LayerCount: 2
Fore
SplineSet
386 690 m 1
 201 690 l 1
 724 1491 l 1
 869 1491 l 1
 1054 690 l 1
 873 690 l 1
 753 1287 l 1
 386 690 l 1
EndSplineSet
EndChar

StartChar: underscore
Encoding: 95 95 67
Width: 1139
Flags: W
HStem: -407 130<-90 1075>
LayerCount: 2
Fore
SplineSet
-118 -407 m 1
 -90 -277 l 1
 1103 -277 l 1
 1075 -407 l 1
 -118 -407 l 1
EndSplineSet
EndChar

StartChar: grave
Encoding: 96 96 68
Width: 682
Flags: W
HStem: 1454 20G<402 648.429>
VStem: 402 317<1194 1474>
LayerCount: 2
Fore
SplineSet
719 1194 m 1
 574 1194 l 1
 402 1474 l 1
 643 1474 l 1
 719 1194 l 1
EndSplineSet
EndChar

StartChar: a
Encoding: 97 97 69
Width: 1139
Flags: W
HStem: -24 141<362.59 661.875> 937 149<566.076 928.426>
VStem: 126.08 196.562<153.547 329.468> 852.962 179.928<35.3628 126.153> 975.727 191.273<763.561 890.303>
LayerCount: 2
Fore
SplineSet
757 937 m 0xe8
 569.555 937 497.84 865.371 437 735 c 1
 266 759 l 1
 349.706 974.504 531 1086 815 1086 c 0
 1115.39 1086 1164.64 966.676 1167 851 c 0xe8
 1166 820 1158 765 1141 685 c 2
 1090 445 l 2
 1044.9 235.789 1032.89 145.949 1032.89 118.451 c 0
 1032.89 77.0354 1038.99 38.0862 1052 0 c 1
 864 0 l 1
 856.737 24.4294 852.962 51.9103 852.962 82.155 c 0xf0
 852.962 97.718 853.962 114.013 856 131 c 1
 732.237 41.703 601.6 -24 432 -24 c 0
 179.042 -24 126.08 116.325 126.08 209.875 c 0
 126.08 359.763 231.51 526.633 456 585 c 0
 581.634 615.56 791.816 620.751 956 674 c 1
 959.239 685.569 975.727 744.955 975.727 792.258 c 0
 975.727 850.155 949.905 937 757 937 c 0xe8
322.642 248.492 m 0
 322.642 196.038 352.488 117 505 117 c 0
 657.338 117 780.667 192.288 845 287 c 0
 873 328 895 388 912 467 c 2
 926 533 l 1
 696.35 444.421 470.469 488.736 370 370 c 0
 328.872 325.296 322.642 272.794 322.642 248.492 c 0
EndSplineSet
EndChar

StartChar: b
Encoding: 98 98 70
Width: 1139
Flags: W
HStem: -10 159<485.713 774.163> 921 165<651.85 923.956> 1446 20G<441.744 626>
VStem: 1012.3 177<444.701 834.111>
LayerCount: 2
Fore
SplineSet
594 -10 m 0
 466.317 -10 376.897 36.2925 326 119 c 1
 301 0 l 1
 134 0 l 1
 446 1466 l 1
 626 1466 l 1
 514 943 l 1
 611 1038 718 1086 836 1086 c 0
 1118.64 1086 1189.3 865.424 1189.3 705.493 c 0
 1189.3 385.321 972.251 -10 594 -10 c 0
785 921 m 0
 587.918 921 409.708 671.952 409.708 393.668 c 0
 409.708 248.546 479.11 149 613 149 c 0
 892.367 151.661 1012.3 460.953 1012.3 669.738 c 0
 1012.3 823.533 933.541 921 785 921 c 0
EndSplineSet
EndChar

StartChar: c
Encoding: 99 99 71
Width: 1024
Flags: W
HStem: -10 170<446.227 774.258> 916 170<584.574 904.001>
VStem: 175.529 188.026<247.8 557.058> 977.714 181.586<701.806 844.641>
LayerCount: 2
Fore
SplineSet
595 160 m 0
 851.692 161.99 898.87 343.991 914 403 c 1
 1091 403 l 1
 1015.82 96.4933 779.798 -10 561 -10 c 0
 319.962 -10 175.529 148.94 175.529 380.197 c 0
 175.529 559.85 255.552 812.175 432 958 c 0
 535 1043 656 1086 795 1086 c 0
 1106.62 1086 1159.3 904.743 1159.3 783.905 c 0
 1159.3 755.622 1155.47 713.898 1151 696 c 1
 976 696 l 1
 977.143 705.857 977.714 715.449 977.714 724.776 c 0
 977.714 836.051 891.112 916 766 916 c 0
 576 916 450 805 390 583 c 0
 376.925 532.19 363.555 459.801 363.555 407.018 c 0
 363.555 252 444.859 160 595 160 c 0
EndSplineSet
EndChar

StartChar: d
Encoding: 100 100 72
Width: 1139
Flags: W
HStem: -10 154<434.731 707.857> 917 169<575.759 863.283> 1446 20G<1119.75 1303>
VStem: 165.604 185.689<227.267 626.355>
LayerCount: 2
Fore
SplineSet
750 1086 m 0
 909.6 1086 976.591 1027.37 1016 958 c 1
 1124 1466 l 1
 1303 1466 l 1
 991 0 l 1
 824 0 l 1
 850 122 l 1
 771 34 663 -10 525 -10 c 0
 276.618 -10 165.604 167.762 165.604 375.557 c 0
 165.604 693.872 382.049 1086 750 1086 c 0
739 917 m 0
 428.834 917 351.293 535.445 351.293 390.646 c 0
 351.293 237.88 428.326 144 575 144 c 0
 731.069 144 942.513 347.96 942.513 657.033 c 0
 942.513 805.614 873.352 917 739 917 c 0
EndSplineSet
EndChar

StartChar: e
Encoding: 101 101 73
Width: 1139
Flags: W
HStem: -10 162<444.002 802.311> 485 164<409 1000> 914 172<587.212 930.524>
VStem: 167.757 191.743<235.49 470.251> 1003.38 181.18<650.03 843.727>
LayerCount: 2
Fore
SplineSet
359.5 383.83 m 0
 359.5 267.239 410.4 152 614 152 c 0
 764.15 149.983 873.143 217.689 933 333 c 1
 1119 333 l 1
 1034.91 128.771 839.533 -10 579 -10 c 0
 250.006 -10 167.757 186.369 167.757 363.333 c 0
 167.757 621.089 335.256 1086 802 1086 c 0
 1108.05 1086 1184.56 881.16 1184.56 698.772 c 0
 1184.56 625.151 1173.3 548.43 1156 485 c 1
 370 485 l 1
 362.991 448.254 359.5 414.53 359.5 383.83 c 0
1003.38 702.112 m 0
 1003.38 842.586 922.449 914 767 914 c 0
 603.342 914 454.377 809.882 409 649 c 1
 1000 649 l 1
 1002.25 667.688 1003.38 685.392 1003.38 702.112 c 0
EndSplineSet
EndChar

StartChar: f
Encoding: 102 102 74
Width: 569
Flags: W
HStem: 0 21G<178 361.252> 922 140<245 374 583 732> 1343 172<671.628 925.604>
LayerCount: 2
Fore
SplineSet
778 1343 m 0
 700 1343 632 1294 604 1160 c 2
 583 1062 l 1
 762 1062 l 1
 732 922 l 1
 553 922 l 1
 357 0 l 1
 178 0 l 1
 374 922 l 1
 215 922 l 1
 245 1062 l 1
 404 1062 l 1
 428 1175 l 2
 486 1447 677 1515 809 1515 c 0
 860 1515 909 1506 956 1488 c 1
 920 1316 l 1
 864 1336 824 1343 778 1343 c 0
EndSplineSet
EndChar

StartChar: g
Encoding: 103 103 75
Width: 1139
Flags: W
HStem: -435 167<304.298 641.036> 0 175<426.771 713.895> 917 169<570.842 880.909>
VStem: 78 177.835<-217.658 -84.3126> 162.241 188.861<252.062 632.47>
LayerCount: 2
Fore
SplineSet
162.241 380.542 m 0xe8
 162.241 713.837 393.669 1086 757 1086 c 0
 898 1086 993 1049 1043 974 c 1
 1062 1062 l 1
 1228 1062 l 1
 1033 144 l 2
 943.601 -271.207 790.45 -435 430 -435 c 0
 223.74 -435 78 -336 78 -153 c 0
 78 -128 80.6667 -101.667 86 -74 c 1
 261 -74 l 1
 255.835 -122.7 l 0xf0
 255.835 -238.94 373.469 -268 464 -268 c 0
 693.8 -268 793.007 -125.583 847 134 c 1
 848 136 848 136 849 139 c 1
 750 46 642 0 525 0 c 0
 234.793 0 162.241 220.673 162.241 380.542 c 0xe8
734 917 m 0
 427.682 917 351.102 555.114 351.102 407.432 c 0xe8
 351.102 287.914 396.682 175 579 175 c 0
 801.473 158.861 954.061 412 954.061 681.609 c 0
 954.061 829.246 881.495 917 734 917 c 0
EndSplineSet
EndChar

StartChar: h
Encoding: 104 104 76
Width: 1139
Flags: W
HStem: 0 21G<135 319.248 820 1004.25> 882 213<636.92 921.183> 1446 20G<442.744 627>
VStem: 963.459 193.431<687.932 836.009>
LayerCount: 2
Fore
SplineSet
833 1095 m 0
 1092.11 1095 1156.89 934.251 1156.89 795.034 c 0
 1156.89 757.301 1152.23 716.648 1143 673 c 2
 1000 0 l 1
 820 0 l 1
 953 624 l 2
 959.975 657.325 963.459 687.422 963.459 714.29 c 0
 963.459 826.097 903.131 882 783 882 c 0
 589.658 882 476.666 752.869 428 532 c 2
 315 0 l 1
 135 0 l 1
 447 1466 l 1
 627 1466 l 1
 521 970 l 1
 607.272 1057.84 729.361 1095 833 1095 c 0
EndSplineSet
EndChar

StartChar: i
Encoding: 105 105 77
Width: 455
Flags: W
HStem: 0 21G<136 320.256> 1042 20G<357.744 542> 1259 207<448 584>
VStem: 136 492<0 1466>
LayerCount: 2
Fore
SplineSet
404 1259 m 1
 448 1466 l 1
 628 1466 l 1
 584 1259 l 1
 404 1259 l 1
136 0 m 1
 362 1062 l 1
 542 1062 l 1
 316 0 l 1
 136 0 l 1
EndSplineSet
EndChar

StartChar: j
Encoding: 106 106 78
Width: 455
Flags: W
HStem: -428 161<-132.885 49.5927> -412 153<-168.864 -84.6126> 1042 20G<355.753 540> 1257 209<446 581>
VStem: -182 808<-412 1466>
LayerCount: 2
Fore
SplineSet
401 1257 m 1x38
 446 1466 l 1
 626 1466 l 1
 581 1257 l 1
 401 1257 l 1x38
-182 -412 m 1x78
 -149 -259 l 1x78
 -115 -264 -87 -267 -64 -267 c 0
 48.2 -267 91.4079 -199.323 123 -54 c 2
 360 1062 l 1
 540 1062 l 1
 302 -58 l 2
 231.326 -390.17 62.3569 -428 -52 -428 c 0xb8
 -92 -428 -135 -423 -182 -412 c 1x78
EndSplineSet
EndChar

StartChar: k
Encoding: 107 107 79
Width: 1024
Flags: W
HStem: 0 21G<136 320.228 785.308 1016> 1042 20G<944.018 1201> 1446 20G<443.744 628>
LayerCount: 2
Fore
SplineSet
136 0 m 1
 448 1466 l 1
 628 1466 l 1
 450 630 l 1
 968 1062 l 1
 1201 1062 l 1
 711 668 l 1
 1016 0 l 1
 794 0 l 1
 558 543 l 1
 405 421 l 1
 316 0 l 1
 136 0 l 1
EndSplineSet
EndChar

StartChar: l
Encoding: 108 108 80
Width: 455
Flags: W
HStem: 0 21G<131 315.256> 1446 20G<438.744 623>
VStem: 131 492<0 1466>
LayerCount: 2
Fore
SplineSet
131 0 m 1
 443 1466 l 1
 623 1466 l 1
 311 0 l 1
 131 0 l 1
EndSplineSet
EndChar

StartChar: m
Encoding: 109 109 81
Width: 1706
Flags: W
HStem: 0 21G<135 319.247 766 950.246 1395 1578.25> 930 156<658.916 897.079 1291.23 1522.46>
VStem: 1554.86 188.57<753.546 895.778>
LayerCount: 2
Fore
SplineSet
924.08 783.888 m 0
 924.08 884.395 878.841 930 776 930 c 0
 576 930 465.828 766.251 432 551 c 2
 315 0 l 1
 135 0 l 1
 361 1062 l 1
 522 1062 l 1
 490 913 l 1
 562.557 998.749 689.86 1086 849 1086 c 0
 919.328 1086 1085.43 1073.81 1109 900 c 1
 1220 1024 1342 1086 1477 1086 c 0
 1640.39 1086 1743.43 1014.34 1743.43 850.374 c 0
 1743.43 814.182 1738.61 773.707 1729 729 c 2
 1574 0 l 1
 1395 0 l 1
 1537 669 l 2
 1549.05 723.22 1554.86 766.097 1554.86 797.207 c 0
 1554.86 903.441 1466.47 930 1404 930 c 0
 1335.68 930 1138.58 908.823 1077 617 c 2
 946 0 l 1
 766 0 l 1
 913 690 l 2
 920.471 725.159 924.08 756.455 924.08 783.888 c 0
EndSplineSet
EndChar

StartChar: n
Encoding: 110 110 82
Width: 1139
Flags: W
HStem: 0 21G<135 319.248 820 1004.25> 882 213<636.92 921.183>
VStem: 963.459 193.431<687.932 836.009>
LayerCount: 2
Fore
SplineSet
833 1095 m 0
 1092.11 1095 1156.89 934.251 1156.89 795.034 c 0
 1156.89 757.301 1152.23 716.648 1143 673 c 2
 1000 0 l 1
 820 0 l 1
 953 624 l 2
 959.975 657.325 963.459 687.422 963.459 714.29 c 0
 963.459 826.097 903.131 882 783 882 c 0
 589.658 882 476.666 752.869 428 532 c 2
 315 0 l 1
 135 0 l 1
 361 1064 l 1
 541 1064 l 1
 521 970 l 1
 607.272 1057.84 729.361 1095 833 1095 c 0
EndSplineSet
EndChar

StartChar: o
Encoding: 111 111 83
Width: 1139
Flags: W
HStem: -11 158<438.532 771.896> 928 158<591.88 910.363>
VStem: 161.604 188.353<237.205 621.558> 1007.67 188.75<443.746 833.568>
LayerCount: 2
Fore
SplineSet
161.604 364.512 m 0
 161.604 608.09 310.102 1086 797 1086 c 0
 1116.54 1086 1196.42 867.293 1196.42 699.385 c 0
 1196.42 485.39 1073.13 -11 564 -11 c 0
 242.083 -11 161.604 186.642 161.604 364.512 c 0
763 928 m 0
 432.566 928 349.957 545.062 349.957 394.672 c 0
 349.957 232.138 438.147 147 597 147 c 0
 926.353 147 1007.67 515.894 1007.67 669.879 c 0
 1007.67 829.613 921.532 928 763 928 c 0
EndSplineSet
EndChar

StartChar: p
Encoding: 112 112 84
Width: 1139
Flags: W
HStem: -10 165<488.245 766.294> 927 159<620.342 912.764>
VStem: 1000.25 174.94<444.225 833.422>
LayerCount: 2
Fore
SplineSet
1175.19 701.881 m 0
 1175.19 356.748 946.631 -10 591 -10 c 0
 473 -10 386 38 330 133 c 1
 219 -390 l 1
 39 -390 l 1
 351 1076 l 1
 518 1076 l 1
 492 957 l 1
 510.301 975.301 621.2 1086 815 1086 c 0
 1103.15 1086 1175.19 866.925 1175.19 701.881 c 0
766 927 m 0
 513.808 927 400.607 598.326 400.607 420.75 c 0
 400.607 271.226 480.946 155 610 155 c 0
 889.97 155 1000.25 477.135 1000.25 669.243 c 0
 1000.25 828 920 927 766 927 c 0
EndSplineSet
EndChar

StartChar: q
Encoding: 113 113 85
Width: 1139
Flags: W
HStem: -10 165<446.803 719.432> 927 159<599.002 884.648>
VStem: 181.14 177.559<241.564 622.478>
LayerCount: 2
Fore
SplineSet
777 1086 m 0
 951.46 1086 1022.76 996.445 1044 957 c 1
 1070 1076 l 1
 1237 1076 l 1
 925 -390 l 1
 745 -390 l 1
 856 133 l 1
 760 38 653 -10 535 -10 c 0
 251.912 -10 181.14 208.844 181.14 370.176 c 0
 181.14 693.192 399.956 1086 777 1086 c 0
586 155 m 0
 784.927 155 961.056 408.779 961.056 681.032 c 0
 961.056 824.469 894.041 927 758 927 c 0
 512 927 358.699 656 358.699 406.262 c 0
 358.699 253.001 436.661 155 586 155 c 0
EndSplineSet
EndChar

StartChar: r
Encoding: 114 114 86
Width: 682
Flags: W
HStem: 0 21G<133 317.245> 900 177<597.532 820.029>
VStem: 133 796<0 1028>
LayerCount: 2
Fore
SplineSet
496 947 m 1
 557.884 1031.39 674.953 1077 762 1077 c 0
 827 1077 883 1061 929 1028 c 1
 831 861 l 1
 793 887 752 900 709 900 c 0
 559.661 900 474.209 755.526 431 556 c 2
 313 0 l 1
 133 0 l 1
 359 1062 l 1
 521 1062 l 1
 496 947 l 1
EndSplineSet
EndChar

StartChar: s
Encoding: 115 115 87
Width: 1024
Flags: W
HStem: -11 162<378.16 731.337> 924 162<515.202 853.645>
VStem: 134.131 182.056<209.745 357.268> 252.518 191.09<687.87 859.804> 827.453 194.547<237.579 408.708> 891.457 180.823<764.764 884.716>
LayerCount: 2
Fore
SplineSet
572.767 472.688 m 0xe8
 418.982 500.941 252.518 537.547 252.518 720.969 c 0
 252.518 934.207 462.036 1086 715 1086 c 0
 1020.71 1086 1072.28 926.92 1072.28 820.866 c 0
 1071.91 802.392 1071.69 780.215 1067 764 c 1
 891 764 l 1
 891.305 769.027 891.457 773.936 891.457 778.727 c 0
 891.457 868.267 838.424 924 729 924 c 0
 504 924 443.608 837 443.608 767.373 c 0xd4
 443.608 686.693 490.942 676.117 654 644 c 0
 908.609 593.913 1022 546.4 1022 400 c 0
 1022 153.796 786.127 -11 515 -11 c 0
 189.809 -11 134.131 169.93 134.131 290.55 c 0
 134.131 312.063 135.767 334.56 139 358 c 1
 317 358 l 1
 316.458 350.208 316.187 342.636 316.187 335.285 c 0
 316.187 224.714 376.371 151 548 151 c 0
 704.448 151 827.453 231.251 827.453 330.801 c 0
 827.453 430.337 704.782 448.435 572.767 472.688 c 0xe8
EndSplineSet
EndChar

StartChar: t
Encoding: 116 116 88
Width: 569
Flags: W
HStem: -13 166<405.307 522.631> 922 140<244 364 573 693>
VStem: 211.381 186.514<83.4314 241.336>
LayerCount: 2
Fore
SplineSet
397.895 211.694 m 0
 397.895 167.225 441.702 153 482 153 c 0
 499 153 525 156 562 161 c 1
 554 2 l 1
 504 -8 455 -13 408 -13 c 0
 292.54 -13 211.381 19.1438 211.381 147.719 c 0
 211.381 186.972 219.348 241.186 234 311 c 2
 364 922 l 1
 214 922 l 1
 244 1062 l 1
 394 1062 l 1
 473 1433 l 1
 652 1433 l 1
 573 1062 l 1
 723 1062 l 1
 693 922 l 1
 543 922 l 1
 411 301 l 2
 402.386 260.803 397.895 230.911 397.895 211.694 c 0
EndSplineSet
EndChar

StartChar: u
Encoding: 117 117 89
Width: 1139
Flags: W
HStem: -10 211<431.699 752.488> 1065 20G<330.75 515 1015.74 1200>
VStem: 178.67 194.122<258.538 404.337>
LayerCount: 2
Fore
SplineSet
372.792 382.449 m 0
 372.792 265.285 448.359 201 577 201 c 0
 747 201 850 286 886 456 c 2
 1020 1085 l 1
 1200 1085 l 1
 969 0 l 1
 789 0 l 1
 803 64 l 1
 750 17 665.04 -10 546 -10 c 0
 248.04 -10 178.67 144 178.67 295.81 c 0
 178.67 331.954 183.18 370.684 192 412 c 2
 335 1085 l 1
 515 1085 l 1
 382 461 l 2
 375.856 432.582 372.792 406.393 372.792 382.449 c 0
EndSplineSet
EndChar

StartChar: v
Encoding: 118 118 90
Width: 1024
Flags: W
HStem: 0 21G<425.667 610.808> 1042 20G<252 445.405 1024.42 1226>
VStem: 252 974<1062 1062>
LayerCount: 2
Fore
SplineSet
429 0 m 1
 252 1062 l 1
 442 1062 l 1
 577 269 l 1
 1036 1062 l 1
 1226 1062 l 1
 599 0 l 1
 429 0 l 1
EndSplineSet
EndChar

StartChar: w
Encoding: 119 119 91
Width: 1479
Flags: W
HStem: 0 21G<329.136 528.669 973.641 1172.91> 1042 20G<232 419.422 864.245 1059.54 1504.37 1689>
VStem: 232 186<782.679 1048.81>
LayerCount: 2
Fore
SplineSet
331 0 m 1
 232 1062 l 1
 418 1062 l 1
 476 246 l 1
 874 1062 l 1
 1058 1062 l 1
 1121 246 l 1
 1514 1062 l 1
 1689 1062 l 1
 1163 0 l 1
 975 0 l 1
 957 265 l 1
 930 623 916 807 914 817 c 1
 519 0 l 1
 331 0 l 1
EndSplineSet
EndChar

StartChar: x
Encoding: 120 120 92
Width: 1024
Flags: W
HStem: 0 21G<15 250.232 778.74 1009> 1042 20G<270 503.261 973.25 1207>
LayerCount: 2
Fore
SplineSet
15 0 m 1
 513 552 l 1
 270 1062 l 1
 495 1062 l 1
 647 694 l 1
 992 1062 l 1
 1207 1062 l 1
 726 562 l 1
 1009 0 l 1
 788 0 l 1
 594 419 l 1
 233 0 l 1
 15 0 l 1
EndSplineSet
EndChar

StartChar: y
Encoding: 121 121 93
Width: 1024
Flags: W
HStem: -422 168<77.3796 314.824> 1042 20G<259 455.671 1040.76 1232>
VStem: 259 194<870.45 1036.32>
LayerCount: 2
Fore
SplineSet
40 -409 m 1
 56 -240 l 1
 88 -249 123 -254 160 -254 c 0
 370.749 -254 412.997 -85.8925 436 -2 c 1
 259 1062 l 1
 453 1062 l 1
 568 201 l 1
 1052 1062 l 1
 1232 1062 l 1
 602 -1 l 1
 509.542 -338.971 314.71 -422 149 -422 c 0
 108.78 -422 67.8942 -420.847 40 -409 c 1
EndSplineSet
EndChar

StartChar: z
Encoding: 122 122 94
Width: 1024
Flags: W
HStem: 0 155<295 980> 916 146<286 911>
LayerCount: 2
Fore
SplineSet
40 0 m 1
 73 155 l 1
 911 916 l 1
 255 916 l 1
 286 1062 l 1
 1174 1062 l 1
 1143 916 l 1
 295 155 l 1
 1013 155 l 1
 980 0 l 1
 40 0 l 1
EndSplineSet
EndChar

StartChar: braceleft
Encoding: 123 123 95
Width: 684
Flags: W
HStem: -431 157<413.364 544> 1334 157<790.472 920>
VStem: 232.438 170.99<-259.95 60.912> 310.201 168.122<4.16707 408.693>
LayerCount: 2
Fore
SplineSet
310.201 288.238 m 0xd0
 310.201 416.848 226.437 447.54 152 449 c 1
 187 612 l 1
 604.019 620.177 350.446 1365.35 771 1481 c 0
 797 1488 840 1491 897 1491 c 2
 953 1491 l 1
 920 1334 l 1
 889 1334 l 2
 728.61 1334 701.848 1268.43 673 1129 c 0
 587.238 723.367 552.864 625.234 337 530 c 1
 459.522 472.452 478.323 380.052 478.323 300.21 c 0xd0
 478.323 141.986 403.428 -88.4173 403.428 -178.641 c 0
 403.428 -250.336 436.667 -274 547 -274 c 2
 578 -274 l 1
 544 -431 l 1
 488 -431 l 2
 429.641 -431 315.25 -436.687 260 -340 c 0
 241.625 -310.25 232.438 -273.609 232.438 -229.408 c 0xe0
 232.438 -101.614 310.201 171.768 310.201 288.238 c 0xd0
EndSplineSet
EndChar

StartChar: bar
Encoding: 124 124 96
Width: 532
Flags: W
VStem: 96 566<-431 1491>
LayerCount: 2
Fore
SplineSet
96 -431 m 1
 505 1491 l 1
 662 1491 l 1
 253 -431 l 1
 96 -431 l 1
EndSplineSet
EndChar

StartChar: braceright
Encoding: 125 125 97
Width: 684
Flags: W
HStem: -431 157<-11 113.135> 1334 157<364 495.491>
VStem: 430.17 167.772<652.727 1056.63> 504.581 171.692<999.533 1321.41>
LayerCount: 2
Fore
SplineSet
597.942 767.472 m 0xe0
 597.942 701.256 627.164 614.526 756 612 c 1
 721 449 l 1
 513.685 444.935 474.891 253.436 432 63 c 0
 385.253 -153.205 357.032 -358.222 138 -420 c 0
 111 -427 68 -431 11 -431 c 2
 -45 -431 l 1
 -11 -274 l 1
 20 -274 l 2
 178.658 -274 204.9 -210.403 236 -68 c 0
 297.125 223.654 327.205 435.848 572 530 c 1
 447.798 596.601 430.17 684.204 430.17 762.54 c 0xe0
 430.17 913.195 504.581 1149.78 504.581 1240.75 c 0
 504.581 1311.83 471.289 1334 362 1334 c 2
 331 1334 l 1
 364 1491 l 1
 420 1491 l 2
 487.127 1491 593.132 1494.11 649 1401 c 0
 667.182 1369.18 676.273 1330.75 676.273 1284.21 c 0xd0
 676.273 1167.94 597.942 890.197 597.942 767.472 c 0xe0
EndSplineSet
EndChar

StartChar: asciitilde
Encoding: 126 126 98
Width: 1196
Flags: W
HStem: 559 189<857.806 1145.35> 693 189<357.506 660.695>
LayerCount: 2
Fore
SplineSet
952 559 m 0x80
 754.917 559 656.443 693 495 693 c 0
 421.903 693 355.084 676.185 205 557 c 1
 249 762 l 1
 337 842 437 882 552 882 c 0x40
 745.999 882 875.362 748 1011 748 c 0
 1120.83 748 1242.58 835.88 1298 885 c 1
 1253 673 l 1
 1162.23 601.811 1072.4 559 952 559 c 0x80
EndSplineSet
EndChar

StartChar: exclamdown
Encoding: 161 161 100
Width: 680
Flags: W
HStem: 0 21G<228 455.689> 1059 20G<480.236 651> 1278 211<554 714>
VStem: 228 530<0 1489>
LayerCount: 2
Fore
SplineSet
714 1278 m 1
 510 1278 l 1
 554 1489 l 1
 758 1489 l 1
 714 1278 l 1
452 0 m 1
 228 0 l 1
 485 1079 l 1
 651 1079 l 1
 452 0 l 1
EndSplineSet
EndChar

StartChar: cent
Encoding: 162 162 101
Width: 1118
Flags: W
HStem: 1455 20G<866.722 985>
VStem: 212.679 194.409<235.021 652.534>
LayerCount: 2
Fore
SplineSet
701 141 m 1
 841.239 153.374 976.77 247.842 1025 281 c 1
 1035 281 l 1
 993 83 l 1
 810.912 7.13018 727.8 3.58184 671 1 c 1
 594 -361 l 1
 480 -361 l 1
 557 2 l 1
 338.28 28.7499 212.679 156.253 212.679 387.633 c 0
 212.679 697.905 400.748 1070.38 794 1115 c 1
 871 1475 l 1
 985 1475 l 1
 908 1116 l 1
 1023.75 1112.01 1124.33 1077.69 1195 1037 c 1
 1153 837 l 1
 1143 837 l 1
 1062.07 917.934 985.975 960.682 879 977 c 1
 701 141 l 1
763 971 m 1
 483.776 922.136 407.088 558.802 407.088 403.409 c 0
 407.088 258.845 475.148 166.376 588 146 c 1
 763 971 l 1
EndSplineSet
EndChar

StartChar: sterling
Encoding: 163 163 102
Width: 1118
Flags: W
HStem: 0 171<297 1031> 613 138<290 421 643 977> 1351 167<855.756 1100.55>
LayerCount: 2
Fore
SplineSet
1260 1264 m 1
 1163.44 1340.68 1060.12 1351 1014 1351 c 0
 828.495 1351 740.629 1215.1 707 1052 c 2
 643 751 l 1
 1007 751 l 1
 977 613 l 1
 613 613 l 1
 600 552 l 2
 565.305 382.863 440.384 255.791 300 182 c 1
 297 171 l 1
 1067 171 l 1
 1031 0 l 1
 89 0 l 1
 133 207 l 1
 281.879 248.46 365.973 354.794 421 613 c 1
 260 613 l 1
 290 751 l 1
 451 751 l 1
 519 1071 l 2
 570.596 1317.92 763.253 1518 1031 1518 c 0
 1096.27 1518 1155.26 1518.2 1313 1470 c 1
 1270 1264 l 1
 1260 1264 l 1
EndSplineSet
EndChar

StartChar: currency
Encoding: 164 164 103
Width: 1118
Flags: W
HStem: 326 138<547.725 786.782> 858 138<663.039 853.225>
VStem: 359.25 144.212<527.234 749.685> 897.166 147.154<572.316 795.558>
LayerCount: 2
Fore
SplineSet
1044.32 728.574 m 0
 1044.32 631.641 994.383 540.981 946 486 c 1
 1115 272 l 1
 986 166 l 1
 817 378 l 1
 752.362 342.743 704.2 326 629 326 c 0
 564.335 326 503.429 350.928 466 379 c 1
 205 164 l 1
 123 273 l 1
 380 486 l 1
 366.197 519.88 359.25 563.596 359.25 595.469 c 0
 359.25 702.426 410.608 780.519 455 835 c 1
 288 1051 l 1
 418 1157 l 1
 587 944 l 1
 651.745 980.997 721.018 996 772 996 c 0
 845.614 996 904.397 967.307 937 945 c 1
 1194 1157 l 1
 1281 1052 l 1
 1021 836 l 1
 1037.55 796.016 1044.32 760.877 1044.32 728.574 c 0
659 464 m 0
 776.11 464 897.166 576.32 897.166 705.028 c 0
 897.166 787.529 837.483 858 742 858 c 0
 624.911 858 503.462 744.819 503.462 618.842 c 0
 503.462 535.658 562.29 464 659 464 c 0
EndSplineSet
EndChar

StartChar: yen
Encoding: 165 165 104
Width: 1118
Flags: W
HStem: 0 21G<465 657.273> 440 138<248 559 774 1087>
LayerCount: 2
Fore
SplineSet
1375 1489 m 1
 795 678 l 1
 774 578 l 1
 1116 578 l 1
 1087 440 l 1
 747 440 l 1
 653 0 l 1
 465 0 l 1
 559 440 l 1
 219 440 l 1
 248 578 l 1
 590 578 l 1
 607 657 l 1
 372 1489 l 1
 582 1489 l 1
 741 850 l 1
 1174 1489 l 1
 1375 1489 l 1
EndSplineSet
EndChar

StartChar: brokenbar
Encoding: 166 166 105
Width: 783
Flags: W
VStem: 225 581<-392 1556>
LayerCount: 2
Fore
SplineSet
636 758 m 1
 469 758 l 1
 639 1556 l 1
 806 1556 l 1
 636 758 l 1
392 -392 m 1
 225 -392 l 1
 394 406 l 1
 561 406 l 1
 392 -392 l 1
EndSplineSet
EndChar

StartChar: section
Encoding: 167 167 106
Width: 1118
Flags: W
HStem: -385 165<241.809 650.137> 1355 164<699.863 1076.25>
VStem: 223.064 201.57<419.486 629.928> 383.55 200.45<1033.6 1247.51> 774.131 201.319<-106.214 85.7528> 934.34 200.69<501.748 712.275>
LayerCount: 2
Fore
SplineSet
734 315 m 1xe4
 802.419 351.49 934.34 455.735 934.34 610.431 c 0
 934.34 722.632 844.185 751.376 716 788 c 2
 624 819 l 1
 509.082 757.711 424.634 640.725 424.634 521.875 c 0
 424.634 441.591 469.141 402.118 570 369 c 2
 734 315 l 1xe4
975.45 66.9927 m 0xc8
 975.45 -104.533 828.414 -385 408 -385 c 0
 285.6 -385 187.473 -360.519 102 -327 c 1
 144 -133 l 1
 154 -133 l 1
 214.169 -169.102 327.634 -220 462 -220 c 0
 619.35 -220 774.131 -150.727 774.131 14.3337 c 0
 774.131 51.3519 765.931 111.252 627 154 c 2
 501 192 l 2
 349.182 238.088 223.064 297.287 223.064 455.218 c 0xe8
 223.064 616.331 328.542 764.269 500 858 c 1
 502 865 l 1
 459.652 890.88 383.55 947.984 383.55 1072.46 c 0
 383.55 1251.08 533.845 1519 951 1519 c 0
 1012.2 1519 1113.95 1516.62 1257 1462 c 1
 1216 1268 l 1
 1206 1268 l 1
 1123.22 1313.99 1028.78 1355 895 1355 c 0
 772.763 1355 584 1308.85 584 1124.25 c 0
 584 896.815 1135.03 1010.36 1135.03 680.135 c 0xd4
 1135.03 518.881 1033.22 369.765 858 277 c 1
 856 270 l 1
 923.407 229.815 975.45 173.034 975.45 66.9927 c 0xc8
EndSplineSet
EndChar

StartChar: dieresis
Encoding: 168 168 107
Width: 1118
Flags: W
HStem: 1304 195<572 731 985 1144>
VStem: 530 656<1304 1499>
LayerCount: 2
Fore
SplineSet
1144 1304 m 1
 943 1304 l 1
 985 1499 l 1
 1186 1499 l 1
 1144 1304 l 1
731 1304 m 1
 530 1304 l 1
 572 1499 l 1
 773 1499 l 1
 731 1304 l 1
EndSplineSet
EndChar

StartChar: copyright
Encoding: 169 169 108
Width: 1902
Flags: W
HStem: -210 110<686.808 1197.7> 180 147<910.534 1238.99> 996 147<1037.37 1361.04> 1409 110<984.458 1499>
VStem: 203.817 119.825<259.265 741.834> 654.025 188.294<398.468 756.191> 1858.81 117.37<577.157 1050.47>
LayerCount: 2
Fore
SplineSet
1976.18 845.205 m 0
 1976.18 734.795 1952.45 355.087 1571 44 c 0
 1367 -126 1145 -210 906 -210 c 0
 667 -210 481 -126 349 44 c 0
 252.086 165.505 203.817 305.84 203.817 464.628 c 0
 203.817 577.408 227.914 953.361 609 1266 c 0
 813 1435 1035 1519 1274 1519 c 0
 1513 1519 1699 1435 1831 1266 c 0
 1927.91 1143.77 1976.18 1003.76 1976.18 845.205 c 0
931 -100 m 0
 1414.23 -100 1858.81 341.967 1858.81 822.799 c 0
 1858.81 960.908 1817.17 1082.77 1735 1188 c 0
 1619 1336 1458 1409 1251 1409 c 0
 1044 1409 853 1336 675 1188 c 0
 342.996 915.682 323.642 582.201 323.642 487.886 c 0
 323.642 349.431 364.969 227.135 448 121 c 0
 563 -26 724 -100 931 -100 c 0
1056 327 m 0
 1194.07 327 1328.75 417.707 1350 434 c 1
 1366 434 l 1
 1328 255 l 1
 1179.5 194.387 1114.84 180 1020 180 c 0
 795.222 180 654.025 293.829 654.025 513.436 c 0
 654.025 762.242 812.486 1143 1225 1143 c 0
 1335.4 1143 1429.85 1109.76 1501 1070 c 1
 1463 889 l 1
 1447 889 l 1
 1396.98 941.104 1300.57 996 1198 996 c 0
 913.455 996 842.319 679.42 842.319 543.658 c 0
 842.319 438.298 885.055 327 1056 327 c 0
EndSplineSet
EndChar

StartChar: ordfeminine
Encoding: 170 170 109
Width: 1010
Flags: W
HStem: 541 155<482.795 725.292> 1365 154<611.661 946.018>
VStem: 284.137 177.425<720.766 933.863> 969.531 169.489<1211.05 1335.71>
LayerCount: 2
Fore
SplineSet
806 1519 m 0
 1051.69 1519 1139.02 1427.54 1139.02 1290.35 c 0
 1139.02 1261.24 1135.33 1229.11 1128 1194 c 2
 994 566 l 1
 828 566 l 1
 848 657 l 1
 788.224 598.87 635.05 541 519 541 c 0
 361.96 541 284.137 646.363 284.137 766.721 c 0
 284.137 856.398 323.374 1028.97 516 1112 c 0
 595.554 1146.71 710.852 1172.14 960 1184 c 1
 964.314 1204.49 969.531 1226.76 969.531 1253.74 c 0
 969.531 1342.75 896.907 1365 772 1365 c 0
 713.8 1365 655.107 1359.96 481 1304 c 1
 466 1304 l 1
 502 1474 l 1
 531.289 1482.5 684.4 1519 806 1519 c 0
461.562 807.663 m 0
 461.562 724.588 523.445 696 609 696 c 0
 652.275 696 736.349 701.353 878 802 c 1
 930 1045 l 1
 696.482 1028.05 461.562 1020 461.562 807.663 c 0
EndSplineSet
EndChar

StartChar: guillemotleft
Encoding: 171 171 110
Width: 1174
Flags: W
HStem: 162 980<647 856>
LayerCount: 2
Fore
SplineSet
1084 191 m 1
 685 610 l 1
 703 695 l 1
 1280 1113 l 1
 1240 925 l 1
 865 652 l 1
 1124 379 l 1
 1084 191 l 1
647 162 m 1
 232 608 l 1
 251 697 l 1
 856 1142 l 1
 814 946 l 1
 421 652 l 1
 689 358 l 1
 647 162 l 1
EndSplineSet
EndChar

StartChar: logicalnot
Encoding: 172 172 111
Width: 1490
Flags: W
HStem: 602 160<319 1280>
LayerCount: 2
Fore
SplineSet
1335 57 m 1
 1164 57 l 1
 1280 602 l 1
 285 602 l 1
 319 762 l 1
 1485 762 l 1
 1335 57 l 1
EndSplineSet
EndChar

StartChar: registered
Encoding: 174 174 113
Width: 1902
Flags: W
HStem: -210 110<686.808 1197.7> 570 126<963 1059> 1005 125<1029 1289.55> 1409 110<984.458 1499>
VStem: 203.817 119.825<259.265 741.834> 1308.79 187.59<784.803 986.911> 1858.81 117.37<577.157 1050.47>
LayerCount: 2
Fore
SplineSet
1976.18 845.205 m 0
 1976.18 734.795 1952.45 355.087 1571 44 c 0
 1367 -126 1145 -210 906 -210 c 0
 667 -210 481 -126 349 44 c 0
 252.086 165.505 203.817 305.84 203.817 464.628 c 0
 203.817 577.408 227.914 953.361 609 1266 c 0
 813 1435 1035 1519 1274 1519 c 0
 1513 1519 1699 1435 1831 1266 c 0
 1927.91 1143.77 1976.18 1003.76 1976.18 845.205 c 0
931 -100 m 0
 1414.23 -100 1858.81 341.967 1858.81 822.799 c 0
 1858.81 960.908 1817.17 1082.77 1735 1188 c 0
 1619 1336 1458 1409 1251 1409 c 0
 1044 1409 853 1336 675 1188 c 0
 342.996 915.682 323.642 582.201 323.642 487.886 c 0
 323.642 349.431 364.969 227.135 448 121 c 0
 563 -26 724 -100 931 -100 c 0
1496.38 945.781 m 0
 1496.38 813.752 1420.46 685.298 1233 615 c 1
 1494 215 l 1
 1267 215 l 1
 1059 570 l 1
 936 570 l 1
 861 215 l 1
 696 215 l 1
 890 1130 l 1
 1169 1130 l 2
 1390 1130 1496.38 1080 1496.38 945.781 c 0
1061 696 m 2
 1286.28 696 1308.79 851.703 1308.79 905.818 c 0
 1308.79 990 1245 1005 1144 1005 c 2
 1029 1005 l 1
 963 696 l 1
 1061 696 l 2
EndSplineSet
EndChar

StartChar: macron
Encoding: 175 175 114
Width: 1118
Flags: W
HStem: 1659 130<364 1487>
LayerCount: 2
Fore
SplineSet
1487 1659 m 1
 337 1659 l 1
 364 1789 l 1
 1514 1789 l 1
 1487 1659 l 1
EndSplineSet
EndChar

StartChar: degree
Encoding: 176 176 115
Width: 964
Flags: W
HStem: 755 152<551.319 816.24> 1363 152<629.184 895.496>
VStem: 332.323 160.775<966.388 1224.18> 953.15 160.57<1044.98 1305.7>
LayerCount: 2
Fore
SplineSet
1113.72 1221.59 m 0
 1113.72 981.619 899.235 755 642 755 c 0
 434.254 755 332.323 903.022 332.323 1048.35 c 0
 332.323 1285.86 545.785 1515 804 1515 c 0
 1010.17 1515 1113.72 1370.43 1113.72 1221.59 c 0
675 907 m 0
 827.802 907 953.15 1045.85 953.15 1188.76 c 0
 953.15 1264.54 905.213 1363 772 1363 c 0
 615.714 1363 493.098 1222.08 493.098 1082.51 c 0
 493.098 988.004 560.58 907 675 907 c 0
EndSplineSet
EndChar

StartChar: plusminus
Encoding: 177 177 116
Width: 1490
Flags: W
HStem: 159 158<229 729 895 1362> 739 158<353 819 1019 1485>
LayerCount: 2
Fore
SplineSet
1362 159 m 1
 196 159 l 1
 229 317 l 1
 729 317 l 1
 819 739 l 1
 319 739 l 1
 353 897 l 1
 853 897 l 1
 960 1402 l 1
 1126 1402 l 1
 1019 897 l 1
 1519 897 l 1
 1485 739 l 1
 985 739 l 1
 895 317 l 1
 1395 317 l 1
 1362 159 l 1
EndSplineSet
EndChar

StartChar: uni00B2
Encoding: 178 178 117
Width: 1010
Flags: W
HStem: 566 144<524 986> 1371 148<568.22 863.892>
VStem: 884.438 190.182<1177.61 1348.36>
LayerCount: 2
Fore
SplineSet
804 1519 m 0
 1028.36 1519 1074.62 1390.54 1074.62 1304.9 c 0
 1074.62 1086.59 865.036 931.005 666 802 c 2
 524 710 l 1
 1017 710 l 1
 986 566 l 1
 305 566 l 1
 338 718 l 1
 509 832 l 2
 654.171 927.021 775.071 1034.89 817 1088 c 0
 867.459 1151.48 884.438 1234.19 884.438 1265.09 c 0
 884.438 1339.87 825.863 1371 748 1371 c 0
 637.851 1371 516.223 1304.89 478 1279 c 1
 463 1279 l 1
 501 1458 l 1
 584.037 1490.49 696.977 1519 804 1519 c 0
EndSplineSet
EndChar

StartChar: uni00B3
Encoding: 179 179 118
Width: 1010
Flags: W
HStem: 542 139<433.852 772.026> 968 139<569 826.482> 1380 139<583.406 891.89>
VStem: 845.233 173.687<751.153 944.548> 909.819 181.071<1185.53 1358.94>
LayerCount: 2
Fore
SplineSet
1018.92 881.095 m 0xf0
 1018.92 750.831 909.358 542 589 542 c 0
 484.091 542 388.233 561.884 312 600 c 1
 349 775 l 1
 366 775 l 1
 396.837 739.537 489.498 681 616 681 c 0
 752.396 681 845.233 753.542 845.233 864.034 c 0xf0
 845.233 926.414 810.44 968 680 968 c 2
 540 968 l 1
 569 1107 l 1
 694 1107 l 2
 859.514 1107 909.819 1211.46 909.819 1281.1 c 0
 909.819 1340.44 868.918 1380 765 1380 c 0
 669.721 1380 545.523 1326.33 489 1283 c 1
 472 1283 l 1
 509 1458 l 1
 595.613 1491.17 701.58 1519 815 1519 c 0
 1037.84 1519 1090.89 1400.69 1090.89 1324.87 c 0xe8
 1090.89 1219.01 1015.11 1101.71 864 1055 c 1
 863 1047 l 1
 933.503 1031.49 1018.92 980.638 1018.92 881.095 c 0xf0
EndSplineSet
EndChar

StartChar: acute
Encoding: 180 180 119
Width: 1118
Flags: W
HStem: 1302 374<875 1227>
VStem: 726 501<1302 1676>
LayerCount: 2
Fore
SplineSet
1227 1676 m 1
 875 1302 l 1
 726 1302 l 1
 984 1676 l 1
 1227 1676 l 1
EndSplineSet
EndChar

StartChar: mu
Encoding: 181 181 120
Width: 1163
Flags: W
HStem: -17 181<494.058 748.214>
LayerCount: 2
Fore
SplineSet
382 275 m 1
 452.115 164.819 575.388 164 613 164 c 0
 726.6 164 813.328 199.91 897 275 c 1
 1076 1117 l 1
 1264 1117 l 1
 1027 0 l 1
 855 0 l 1
 880 116 l 1
 874 116 l 1
 733.652 -4.29834 651.681 -17 574 -17 c 0
 470.476 -17 420.769 12.1199 348 115 c 1
 236 -412 l 1
 48 -412 l 1
 373 1117 l 1
 561 1117 l 1
 382 275 l 1
EndSplineSet
EndChar

StartChar: paragraph
Encoding: 182 182 121
Width: 1118
Flags: W
HStem: 1359 130<944 1131>
LayerCount: 2
Fore
SplineSet
266.832 933.77 m 0
 266.832 1131.83 388.666 1489 876 1489 c 2
 1298 1489 l 1
 905 -363 l 1
 765 -363 l 1
 1131 1359 l 1
 944 1359 l 1
 578 -363 l 1
 438 -363 l 1
 641 593 l 1
 402.385 598.264 266.832 734.376 266.832 933.77 c 0
EndSplineSet
EndChar

StartChar: periodcentered
Encoding: 183 183 122
Width: 724
Flags: W
VStem: 420 299<832 1117>
LayerCount: 2
Fore
SplineSet
659 832 m 1
 420 832 l 1
 480 1117 l 1
 719 1117 l 1
 659 832 l 1
EndSplineSet
EndChar

StartChar: cedilla
Encoding: 184 184 123
Width: 1118
Flags: W
HStem: -423 150<309.923 529.916>
VStem: 204 567<-239 20 -399 20>
LayerCount: 2
Fore
SplineSet
382 -273 m 0
 567.6 -273 585.284 -166.654 614 20 c 1
 771 20 l 1
 746.7 -271.595 584.043 -423 376 -423 c 0
 358.713 -423 269.196 -419.863 204 -399 c 1
 238 -239 l 1
 247 -239 l 1
 284.321 -256.417 328 -273 382 -273 c 0
EndSplineSet
EndChar

StartChar: uni0E01
Encoding: 3585 3585 124
Width: 1240
Flags: W
HStem: 0 21G<188 352.266 922 1086.26> 1001 148<644.383 988.684>
VStem: 1074 168<712.602 917.338>
LayerCount: 2
Fore
SplineSet
1225 671 m 2
 1082 0 l 1
 922 0 l 1
 1061 655 l 2
 1070 695 1074 732 1074 765 c 0
 1074 920 985 1001 837 1001 c 0
 699 1001 578 944 471 823 c 1
 550 802 602 748 626 661 c 1
 521 596 453 496 425 361 c 2
 348 0 l 1
 188 0 l 1
 265 361 l 2
 293 492 357 595 458 669 c 1
 425 738 367 778 286 790 c 1
 433 1026 628 1149 868 1149 c 0
 1121 1149 1242 1027 1242 818 c 0
 1242 773 1236 724 1225 671 c 2
EndSplineSet
EndChar

StartChar: uni0E02
Encoding: 3586 3586 125
Width: 1400
Flags: W
HStem: 0 148<738 1088> 545 113<383.92 532.348> 823 102<488 548.736> 1001 148<547.673 805.104>
VStem: 255 126<661.124 777.95> 552 112<702.395 820.23> 853 158<795.939 954.686>
LayerCount: 2
Fore
SplineSet
488 823 m 0
 393 823 381 744 381 716 c 0
 381 681 402 658 447 658 c 0
 531 658 552 729 552 762 c 0
 552 799 529 823 488 823 c 0
255 708 m 0
 255 905 425 1149 704 1149 c 0
 842 1149 1011 1094 1011 881 c 0
 1011 848 1007 812 998 771 c 1
 904 718 846 654 829 575 c 2
 738 148 l 1
 1088 148 l 1
 1299 1139 l 1
 1459 1139 l 1
 1217 0 l 1
 547 0 l 1
 669 575 l 2
 687 658 752 730 847 783 c 1
 851 801 853 820 853 840 c 0
 853 919 813 1001 669 1001 c 0
 602 1001 552 973 520 925 c 1
 612 925 664 880 664 806 c 0
 664 652 559 545 414 545 c 0
 308 545 255 603 255 708 c 0
EndSplineSet
EndChar

StartChar: uni0E03
Encoding: 3587 3587 126
Width: 1450
Flags: W
HStem: 0 148<815 1165> 507 116<387.95 529.994> 790 104<447 548.65> 1130 20G<462 604 876.358 956.5 1371.74 1536>
VStem: 253 133<625.659 744.538> 551 112<644.235 787.55> 932 159<805.84 961.361>
LayerCount: 2
Fore
SplineSet
490 790 m 0
 404 790 386 716 386 682 c 0
 386 646 409 623 454 623 c 0
 512 623 551 685 551 731 c 0
 551 764 531 790 490 790 c 0
663 776 m 0
 663 701 614 507 411 507 c 0
 312 507 253 562 253 661 c 0
 253 754 320 1041 604 1150 c 1
 604 1149 650 1113 740 1041 c 1
 907 1150 l 1
 1006 1133 1091 1008 1091 872 c 0
 1091 842 1086 808 1077 783 c 1
 979 721 923 656 909 587 c 2
 815 148 l 1
 1165 148 l 1
 1376 1139 l 1
 1536 1139 l 1
 1294 0 l 1
 624 0 l 1
 749 587 l 2
 766 670 824 738 926 798 c 1
 930 816 932 832 932 848 c 0
 932 901 912 945 871 979 c 1
 871 978 816 946 706 881 c 1
 568 979 l 1
 533 958 507 927 489 886 c 1
 506 892 521 894 537 894 c 0
 615 894 663 853 663 776 c 0
EndSplineSet
EndChar

StartChar: uni0E04
Encoding: 3588 3588 127
Width: 1370
Flags: W
HStem: 0 21G<245 492.5 1035 1199.24> 342 118<771.051 917.526> 625 121<788.724 937.367> 1001 148<692.653 1079.82>
VStem: 284 149<257.766 491.868> 939 105<479.482 622.372> 1184 166<695.222 900.352>
LayerCount: 2
Fore
SplineSet
284 453 m 0
 284 978 593 1149 920 1149 c 0
 1205 1149 1350 1027 1350 799 c 0
 1350 754 1344 704 1333 651 c 2
 1195 0 l 1
 1035 0 l 1
 1173 650 l 2
 1181 686 1184 719 1184 751 c 0
 1184 905 1091 1001 894 1001 c 0
 655 1001 507 863 461 646 c 0
 441 551 433 447 433 334 c 0
 433 308 433 282 434 256 c 1
 592 700 810 746 879 746 c 0
 1007 746 1044 681 1044 608 c 0
 1044 485 952 342 807 342 c 0
 746 342 693 372 679 424 c 1
 604 319 530 177 455 0 c 1
 245 0 l 1
 268 108 l 2
 283 180 287 243 287 304 c 0
 287 353 284 402 284 453 c 0
876 625 m 0
 790 625 769 555 769 522 c 0
 769 484 792 460 835 460 c 0
 900 460 939 514 939 565 c 0
 939 599 919 625 876 625 c 0
EndSplineSet
EndChar

StartChar: uni0E05
Encoding: 3589 3589 128
Width: 1370
Flags: W
HStem: 0 21G<235 482.5 1025 1189.27> 342 118<761.087 910.087> 625 121<780.323 926.402> 1129 20G<625 770.793 1054.6 1171.5>
VStem: 423 336<329 581> 929 105<477.682 622.547> 1177 166<709.443 912.415>
LayerCount: 2
Fore
SplineSet
1034 606 m 0
 1034 481 939 342 797 342 c 0
 736 342 683 371 669 424 c 1
 594 319 520 177 445 0 c 1
 235 0 l 1
 258 108 l 2
 289 255 256 484 298 683 c 0
 352 938 504 1094 746 1149 c 1
 896 1028 l 1
 1086 1149 l 1
 1257 1103 1343 990 1343 812 c 0
 1343 766 1337 716 1326 661 c 2
 1185 0 l 1
 1025 0 l 1
 1165 660 l 2
 1173 698 1177 734 1177 766 c 0
 1177 872 1132 944 1042 981 c 1
 866 868 l 1
 728 981 l 1
 490 902 423 687 423 329 c 0
 423 305 423 280 424 256 c 1
 583 703 803 746 871 746 c 0
 977 746 1034 695 1034 606 c 0
866 625 m 0
 811 625 759 581 759 523 c 0
 759 485 783 460 825 460 c 0
 894 460 929 515 929 564 c 0
 929 600 907 625 866 625 c 0
EndSplineSet
EndChar

StartChar: uni0E06
Encoding: 3590 3590 129
Width: 1520
Flags: W
HStem: -10 119<582.758 674.153> 328 118<630.793 714> 508 112<394.421 540.128> 789 99<464.5 557.928> 1129 20G<476.5 640.185 887.074 978 1442.75 1607>
VStem: 266 126<622.577 767.776> 473 108<110.843 278.511> 561 113<668.565 785.843> 939 159<811.086 967.322>
LayerCount: 2
Fore
SplineSet
496 789 m 0xfd80
 433 789 392 741 392 685 c 0
 392 649 410 620 456 620 c 0
 540 620 561 702 561 729 c 0
 561 760 542 789 496 789 c 0xfd80
674 755 m 0
 674 685 627 508 433 508 c 0
 324 508 266 571 266 679 c 0
 266 798 338 1041 615 1149 c 1
 751 1041 l 1
 918 1149 l 1
 1038 1089 1098 998 1098 876 c 0
 1098 847 1095 816 1088 783 c 1
 992 728 936 663 920 587 c 2
 882 409 l 1
 1240 166 l 1
 1447 1139 l 1
 1607 1139 l 1
 1365 0 l 1
 1205 0 l 1
 847 243 l 1
 826 146 l 2
 804 42 738 -10 630 -10 c 0
 533 -10 473 57 473 157 c 0xfe80
 473 290 576 446 730 446 c 1
 760 587 l 2
 777 668 835 743 933 814 c 1
 937 831 939 848 939 863 c 0
 939 912 919 951 882 979 c 1
 717 881 l 1
 579 979 l 1
 546 961 520 930 500 886 c 1
 511 887 521 888 531 888 c 0
 611 888 674 840 674 755 c 0
714 328 m 1
 646 328 581 246 581 169 c 0
 581 129 601 109 623 109 c 0
 646 109 671 128 679 166 c 2
 714 328 l 1
EndSplineSet
EndChar

StartChar: uni0E07
Encoding: 3591 3591 130
Width: 1000
Flags: W
HStem: -10 149<474.559 704.326> 741 113<740.238 830.976> 1021 129<756.331 904.478>
VStem: 285 161<172.203 413.312> 298 164<507.741 640> 631 106<857.838 1002.29> 906 147<891.514 1016.46>
LayerCount: 2
Fore
SplineSet
631 874 m 0xf6
 631 1017 737 1150 895 1150 c 0
 998 1150 1053 1087 1053 975 c 0
 1053 947 1049 915 1042 881 c 2
 913 272 l 2
 873 85 752 -10 551 -10 c 0
 374 -10 285 82 285 266 c 0
 285 272 l 2xf6
 298 719 l 1
 462 640 l 1xee
 446 272 l 2
 450 187 494 139 583 139 c 0
 678 139 735 188 753 272 c 2
 859 770 l 1
 839 751 806 741 763 741 c 0
 678 741 631 790 631 874 c 0xf6
840 1021 m 0
 773 1021 737 968 737 921 c 0
 737 884 761 854 802 854 c 0
 870 854 906 920 906 962 c 0
 906 998 879 1021 840 1021 c 0
EndSplineSet
EndChar

StartChar: uni0E08
Encoding: 3592 3592 131
Width: 1200
Flags: W
HStem: -10 148<692.338 880.565> 345 110<435.234 522.449> 623 130<450.272 597.616> 1001 148<589.251 943.53>
VStem: 323 109<456.03 604.448> 518 165<149.577 268.85> 601 147<530.824 618.546> 1028 169<749.726 918.747>
LayerCount: 2
Fore
SplineSet
323 488 m 0xfd
 323 599 406 753 586 753 c 0
 694 753 748 701 748 598 c 0xfb
 748 573 745 544 738 512 c 2
 689 283 l 2
 685 264 683 246 683 231 c 0
 683 170 714 138 777 138 c 0
 857 138 908 187 927 279 c 2
 1020 715 l 2
 1025 740 1028 764 1028 786 c 0
 1028 917 940 1001 786 1001 c 0
 637 1001 496 944 365 843 c 1
 290 912 l 1
 459 1067 635 1149 817 1149 c 0
 1062 1149 1197 1043 1197 849 c 0
 1197 815 1193 779 1185 740 c 2
 1087 279 l 2
 1046 87 933 -10 746 -10 c 0
 594 -10 518 56 518 187 c 0
 518 215 522 248 529 283 c 2
 548 373 l 1
 533 357 505 345 466 345 c 0
 383 345 323 398 323 488 c 0xfd
535 623 m 0
 473 623 432 574 432 521 c 0
 432 485 452 455 488 455 c 0
 588 455 601 543 601 563 c 0
 601 597 577 623 535 623 c 0
EndSplineSet
EndChar

StartChar: uni0E09
Encoding: 3593 3593 132
Width: 1395
Flags: W
HStem: -10 21<399 597.238 1064 1203.5> -10 113<1064 1220.96> 362 111<370.062 457.363> 641 130<382.584 531.399> 1001 148<659.925 1021.93>
VStem: 260 106<474.296 597.328> 535 143<541.159 638.077> 1105 168<752.018 924.122> 1245 113<119.175 315.994>
AnchorPoint: "AboveBase" 1344 1227 basechar 0
LayerCount: 2
Fore
SplineSet
1358 280 m 0xbe80
 1358 178 1306 -10 1101 -10 c 0
 1027 -10 981 31 981 129 c 0
 981 157 985 189 993 227 c 1
 559 0 l 1
 399 0 l 1
 482 391 l 1
 459 369 437 362 401 362 c 0
 306 362 260 418 260 506 c 0
 260 654 359 771 520 771 c 0
 626 771 678 713 678 604 c 0
 678 574 674 540 666 502 c 2
 596 176 l 1
 1031 409 l 1
 1096 715 l 2
 1102 742 1105 768 1105 791 c 0
 1105 921 1019 1001 847 1001 c 0
 714 1001 578 945 441 843 c 1
 366 912 l 1
 536 1069 707 1149 878 1149 c 0
 1137 1149 1273 1043 1273 849 c 0xbf
 1273 815 1269 779 1261 740 c 2
 1199 446 l 1
 1304 434 1358 379 1358 280 c 0xbe80
1165 103 m 0x7e80
 1214 103 1245 187 1245 242 c 0
 1245 292 1218 319 1165 328 c 1
 1128 156 l 2
 1127 150 1126 145 1126 141 c 0
 1126 116 1141 103 1165 103 c 0x7e80
469 641 m 0
 386 641 366 572 366 539 c 0
 366 503 387 473 422 473 c 0
 522 473 535 562 535 581 c 0
 535 618 507 641 469 641 c 0
EndSplineSet
EndChar

StartChar: uni0E0A
Encoding: 3594 3594 133
Width: 1390
Flags: MW
HStem: 0 148<773 1079> 545 113<420.92 570.228> 823 102<525 585.476> 1001 148<588.667 823.818>
VStem: 292 126<661.124 780.093> 589 112<703.606 819.756> 704 160<572 575> 1173 165<584.016 706.117>
LayerCount: 2
Fore
SplineSet
292 708 m 0
 292 890 441 1149 741 1149 c 0
 892 1149 997 1072 1037 921 c 1
 1245 972 1361 1052 1384 1163 c 2
 1390 1188 l 1
 1556 1188 l 1
 1550 1161 l 2
 1520 1020 1390 905 1197 858 c 1
 1284 818 1338 725 1338 635 c 0
 1338 619 1336 604 1333 589 c 2
 1208 0 l 1
 582 0 l 1
 704 575 l 2
 721 655 779 726 879 789 c 1
 879 917 819 1001 725 1001 c 0
 658 1001 588 968 557 925 c 1
 648 925 701 885 701 808 c 0
 701 656 600 545 451 545 c 0
 345 545 292 603 292 708 c 0
864 572 m 2
 773 148 l 1
 1079 148 l 1
 1171 578 l 2
 1172 585 1173 592 1173 599 c 0
 1173 663 1120 741 1033 768 c 1
 938 715 880 650 864 572 c 2
525 823 m 0
 430 823 418 744 418 716 c 0
 418 681 439 658 484 658 c 0
 568 658 589 729 589 762 c 0
 589 799 566 823 525 823 c 0
EndSplineSet
EndChar

StartChar: uni0E0B
Encoding: 3595 3595 134
Width: 1390
Flags: MW
HStem: 0 148<778 1084> 507 116<349.584 497.512> 790 104<423.5 516.455> 1130 20G<432 575 845.725 923.5>
VStem: 219 128<627.892 766.018> 519 111<643.068 786.873> 709 160<575 575> 1179 165<587.062 709.918>
LayerCount: 2
Fore
SplineSet
458 790 m 0
 389 790 347 735 347 685 c 0
 347 648 375 623 422 623 c 0
 480 623 519 685 519 731 c 0
 519 764 499 790 458 790 c 0
630 771 m 0
 630 698 580 507 379 507 c 0
 287 507 219 577 219 677 c 0
 219 761 289 1041 575 1150 c 1
 575 1149 621 1113 711 1041 c 1
 876 1150 l 1
 971 1116 1026 1039 1041 921 c 1
 1245 957 1362 1040 1388 1163 c 2
 1394 1188 l 1
 1560 1188 l 1
 1554 1164 l 2
 1525 1024 1394 908 1201 861 c 1
 1289 821 1344 728 1344 637 c 0
 1344 622 1342 607 1339 592 c 2
 1213 0 l 1
 587 0 l 1
 709 575 l 2
 724 646 783 713 883 776 c 1
 889 807 893 834 893 858 c 0
 893 907 878 945 840 979 c 1
 677 881 l 1
 536 979 l 1
 501 958 475 927 457 886 c 1
 474 892 489 894 505 894 c 0
 580 894 630 849 630 771 c 0
1176 581 m 2
 1178 590 1179 599 1179 608 c 0
 1179 678 1123 744 1037 771 c 1
 942 718 886 653 869 575 c 2
 778 148 l 1
 1084 148 l 1
 1176 581 l 2
EndSplineSet
EndChar

StartChar: uni0E0C
Encoding: 3596 3596 135
Width: 1750
Flags: W
HStem: -11 116<375.991 518.03 872.129 964.249> 273 124<449.258 538.598> 1001 148<643.11 1001.47>
VStem: 234 138<107.824 239.84> 541 115<153.195 308.599> 760 110<110.474 286.709> 1079 167<721.79 927.3>
LayerCount: 2
Fore
SplineSet
1065 657 m 2
 1074 701 1079 742 1079 778 c 0
 1079 922 1003 1001 841 1001 c 0
 695 1001 573 940 475 825 c 1
 551 808 602 754 630 663 c 1
 523 592 458 505 437 403 c 2
 429 369 l 1
 449 387 476 397 511 397 c 0
 613 397 656 347 656 270 c 0
 656 83 533 -11 392 -11 c 0
 286 -11 234 48 234 157 c 0
 234 187 238 221 246 258 c 2
 277 403 l 2
 299 508 361 598 463 671 c 1
 448 730 391 770 290 792 c 1
 446 1030 640 1149 872 1149 c 0
 1118 1149 1246 1039 1246 825 c 0
 1246 779 1240 728 1228 673 c 2
 1172 409 l 1
 1532 176 l 1
 1737 1139 l 1
 1897 1139 l 1
 1655 0 l 1
 1495 0 l 1
 1137 243 l 1
 1116 146 l 2
 1096 52 1024 -10 924 -10 c 0
 818 -10 760 41 760 138 c 0
 760 204 793 427 1020 446 c 1
 1065 657 l 2
1004 328 m 1
 897 328 870 213 870 161 c 0
 870 127 883 109 909 109 c 0
 941 109 962 130 971 172 c 2
 1004 328 l 1
475 273 m 0
 423 273 372 231 372 171 c 0
 372 135 393 105 427 105 c 0
 528 105 541 192 541 212 c 0
 541 245 519 273 475 273 c 0
EndSplineSet
EndChar

StartChar: uni0E0D
Encoding: 3597 3597 136
Width: 1745
Flags: W
HStem: -466 118<1097.06 1311.42> -143 82<962.699 1098.39> -11 116<343.223 484.554> 0 148<1084 1494> 273 124<416.071 506.562> 1001 148<611.11 965.454>
VStem: 202 137<107.79 240.543> 509 113<155.467 269.799> 844 106<-284.708 -155.546> 1046 168<711.209 919.579> 1100 91<-230.591 -145.04>
LayerCount: 2
Fore
SplineSet
622 265 m 0xdfc0
 622 169 570 -11 360 -11 c 0xefc0
 254 -11 202 48 202 157 c 0
 202 187 206 221 214 258 c 2
 245 403 l 2
 267 508 329 598 431 671 c 1
 416 730 359 770 258 792 c 1
 414 1030 608 1149 840 1149 c 0
 1087 1149 1214 1039 1214 825 c 0
 1214 779 1208 729 1196 673 c 2
 1084 148 l 1
 1494 148 l 1
 1705 1139 l 1
 1865 1139 l 1
 1623 0 l 1
 893 0 l 1
 1033 657 l 2
 1042 698 1046 735 1046 769 c 0
 1046 919 962 1001 809 1001 c 0
 663 1001 541 940 443 825 c 1
 519 808 570 754 598 663 c 1
 491 592 426 505 405 403 c 2
 397 369 l 1
 417 387 444 397 479 397 c 0
 579 397 622 348 622 265 c 0xdfc0
443 273 m 0
 376 273 339 221 339 168 c 0
 339 133 358 105 395 105 c 0
 486 105 509 186 509 215 c 0
 509 251 483 273 443 273 c 0
844 -279 m 0
 844 -221.105 886.8 -61 1058 -61 c 0
 1140 -61 1191 -110 1191 -180 c 0xcfa0
 1191 -205.846 1181.09 -298.229 1094 -345 c 1
 1112 -347 1130 -348 1147 -348 c 0
 1303 -348 1416 -253 1485 -65 c 1
 1601 -65 l 1
 1538 -322 1363 -466 1107 -466 c 0
 941 -466 844 -378 844 -279 c 0
1043 -143 m 0
 973.903 -143 950 -194.695 950 -235 c 0
 950 -266 969 -287 1011 -287 c 0
 1082.2 -287 1100 -226.325 1100 -197 c 0
 1100 -163 1075 -143 1043 -143 c 0
EndSplineSet
Substitution2: "Thai Descender Removal Single Substitution" uni0E0D.descless
EndChar

StartChar: uni0E0E
Encoding: 3598 3598 137
Width: 1375
Flags: W
HStem: -413 125<434.581 606.58> -112 104<487.763 676.518> -10 122<225.514 366.713> 280 119<239.921 381.66> 1002 148<792.324 1134.76>
VStem: 111 110<113.776 260.172> 279 146<-336.5 -172.486> 1217 167<716.77 920.984>
AnchorPoint: "BelowBase" 1224 -453 basechar 0
LayerCount: 2
Fore
SplineSet
279 -299 m 0xbf
 279 -129 499 -8 645 -8 c 0xdf
 690 -8 731 -18 767 -34 c 1
 897 140 l 1
 995 105 l 1
 866 -76 l 1
 923 -103 975 -148 1020 -209 c 1
 1204 658 l 2
 1212 698 1217 735 1217 768 c 0
 1217 917 1134 1002 980 1002 c 0
 849 1002 727 943 615 826 c 1
 694 801 746 747 769 664 c 1
 662 591 597 505 576 404 c 2
 545 259 l 2
 508 84 418 -10 283 -10 c 0
 173 -10 111 39 111 136 c 0
 111 276 211 399 331 399 c 0
 368 399 394 389 409 370 c 1
 416 404 l 2
 440 516 502 603 602 672 c 1
 577 731 520 771 430 793 c 1
 584 1031 778 1150 1011 1150 c 0
 1248 1150 1384 1036 1384 818 c 0
 1384 774 1378 726 1367 674 c 2
 1137 -410 l 1
 977 -410 l 1
 933 -319 873 -248 797 -196 c 1
 697 -339 578 -413 442 -413 c 0
 334 -413 279 -374 279 -299 c 0xbf
610 -112 m 0
 540 -112 425 -176 425 -244 c 0
 425 -275 456 -288 486 -288 c 0
 555 -288 661 -224 702 -147 c 1
 675 -123 644 -112 610 -112 c 0
325 280 m 0
 273 280 221 239 221 181 c 0
 221 143 245 112 277 112 c 0xbf
 370 112 390 191 390 223 c 0
 390 256 370 280 325 280 c 0
EndSplineSet
EndChar

StartChar: uni0E0F
Encoding: 3599 3599 138
Width: 1375
Flags: W
HStem: -413 125<285.74 466.684> -121 112<339.936 535.735> -10 122<226.737 368.759> 280 120<240.812 381.83> 1002 148<792.63 1130.39>
VStem: 117 106<114.806 261.992> 137 138<-336.5 -181.312> 1216 168<713.383 919.297>
AnchorPoint: "BelowBase" 1224 -453 basechar 0
LayerCount: 2
Fore
SplineSet
137 -300 m 0xbb
 137 -146 323 -9 513 -9 c 0xdb
 558 -9 594 -18 622 -34 c 1
 752 140 l 1
 850 105 l 1
 721 -76 l 1
 748 -97 768 -124 779 -156 c 1
 920 -38 l 1
 1020 -209 l 1
 1204 658 l 2
 1212 696 1216 732 1216 766 c 0
 1216 910 1139 1002 980 1002 c 0
 846 1002 724 941 615 826 c 1
 705 795 757 741 769 664 c 1
 664 601 599 514 576 404 c 2
 545 259 l 2
 508 83 420 -10 285 -10 c 0
 175 -10 117 42 117 144 c 0xbd
 117 313 241 400 316 400 c 0
 362 400 394 393 409 370 c 1
 416 404 l 2
 440 518 503 607 602 672 c 1
 568 743 510 783 430 793 c 1
 589 1030 782 1150 1011 1150 c 0
 1257 1150 1384 1038 1384 824 c 0
 1384 778 1379 728 1367 674 c 2
 1137 -410 l 1
 977 -410 l 1
 874 -252 l 1
 735 -362 l 1
 715 -287 685 -234 646 -203 c 1
 578 -328 432 -413 297 -413 c 0
 188 -413 137 -373 137 -300 c 0xbb
472 -121 m 0
 360 -121 275 -204 275 -256 c 0
 275 -285 312 -288 336 -288 c 0
 427 -288 529 -211 557 -147 c 1
 533 -130 505 -121 472 -121 c 0
327 280 m 0
 260 280 223 230 223 176 c 0
 223 140 240 112 279 112 c 0xbd
 377 112 392 198 392 224 c 0
 392 258 371 280 327 280 c 0
EndSplineSet
EndChar

StartChar: uni0E10
Encoding: 3600 3600 139
Width: 1130
Flags: W
HStem: -532 71<74.969 259.564> -413 129<524.97 645.789> -347 75<88.4822 279.903> -276 62<636.665 709.625> -102 68<642.2 751.295> -10 148<580.688 769.35> 290 113<306.576 407.535> 571 126<324.58 473.486> 917 148<1013.59 1182.51> 1001 148<644.399 974.439>
VStem: -28 91<-459.788 -395.352> 198 106<405.82 528.81> 406 165<149.577 272.077> 475 144<466.659 568.603> 562 74<-213.619 -109.161> 753 132<-181.631 -111.919>
LayerCount: 2
Fore
SplineSet
198 424 m 0x8f79
 198 510 249 697 453 697 c 0
 562 697 619 636 619 524 c 0x8f75
 619 495 616 463 608 428 c 2
 577 283 l 2
 573 264 571 246 571 231 c 0
 571 170 602 138 666 138 c 0
 746 138 797 188 816 279 c 2
 869 529 l 2
 870 535 871 541 871 546 c 0
 871 630 725 690 242 762 c 1
 380 1020 564 1149 793 1149 c 0x8f79
 1003 1149 1052 1065 1187 1065 c 0
 1207 1065 1227 1067 1245 1072 c 1
 1174 924 l 1
 1160 922 1144 917 1129 917 c 0x8fb9
 989 917 967 1001 763 1001 c 0
 699 1001 589 989 509 872 c 1
 837 802 1043 746 1043 608 c 0
 1043 597 1042 586 1039 574 c 2
 976 279 l 2
 935 86 821 -10 635 -10 c 0
 482 -10 406 56 406 187 c 0
 406 216 410 248 417 283 c 2
 424 317 l 1
 410 303 387 290 355 290 c 0
 255 290 198 334 198 424 c 0x8f79
408 571 m 0
 325 571 304 502 304 465 c 0
 304 431 321 403 361 403 c 0
 457 403 475 486 475 516 c 0
 475 552 451 571 408 571 c 0
-28 -443 m 0
 -28 -368 63 -272 211 -272 c 0xaf33
 254 -272 302 -280 356 -294 c 1
 426 -208 l 1
 509 -230 l 1
 433 -324 l 1
 458 -335 473 -349 480 -368 c 1
 537 -312 581 -284 614 -284 c 0
 655 -284 684 -299 702 -329 c 1
 716 -262 l 1
 704 -271 685 -276 659 -276 c 0
 598 -276 562 -240 562 -184 c 0
 562 -124 600 -34 736 -34 c 0
 835 -34 885 -77 885 -162 c 0
 885 -180 883 -201 878 -223 c 2
 812 -530 l 1
 662 -530 l 1
 657 -455 628 -413 586 -413 c 0xdf33
 539 -413 493 -453 448 -529 c 1
 437 -463 414 -422 380 -406 c 1
 298 -490 207 -532 107 -532 c 0
 29 -532 -28 -496 -28 -443 c 0
684 -214 m 0x9f33
 730 -214 753 -174 753 -146 c 0
 753 -124 740 -102 709 -102 c 0
 670 -102 636 -133 636 -173 c 0
 636 -198 651 -214 684 -214 c 0x9f33
204 -347 m 0xaf31
 90 -347 63 -426 63 -438 c 0
 63 -449 97 -461 123 -461 c 0
 196 -461 282 -418 309 -362 c 1
 270 -352 235 -347 204 -347 c 0xaf31
EndSplineSet
Substitution2: "Thai Descender Removal Single Substitution" uni0E10.descless
EndChar

StartChar: uni0E11
Encoding: 3601 3601 140
Width: 1700
Flags: W
HStem: 0 21G<636 852.326 1374 1538.25> 508 112<394.421 540.128> 789 99<466 557.928> 975 174<1461.54 1629.5>
VStem: 266 126<623.933 769.61> 561 113<668.565 785.843> 932 161<793.142 972.12> 1568 170<914.757 1041>
LayerCount: 2
Fore
SplineSet
496 789 m 0
 436 789 392 744 392 685 c 0
 392 650 410 620 456 620 c 0
 540 620 561 702 561 729 c 0
 561 760 542 789 496 789 c 0
674 755 m 0
 674 685 627 508 433 508 c 0
 324 508 266 568 266 678 c 0
 266 825 360 1050 615 1149 c 1
 751 1041 l 1
 918 1149 l 1
 1034 1086 1093 986 1093 849 c 0
 1093 828 1092 806 1089 783 c 1
 994 727 935 656 921 587 c 2
 852 263 l 1
 1345 1003 l 2
 1407 1100 1485 1149 1582 1149 c 0
 1677 1149 1738 1092 1738 990 c 0
 1738 970 1735 947 1730 923 c 2
 1534 0 l 1
 1374 0 l 1
 1565 900 l 2
 1567 911 1568 920 1568 929 c 0
 1568 958 1555 975 1530 975 c 0
 1503 975 1475 954 1442 905 c 2
 839 0 l 1
 636 0 l 1
 761 587 l 2
 778 668 831 736 927 796 c 1
 930 814 932 830 932 847 c 0
 932 900 915 944 882 979 c 1
 717 881 l 1
 579 979 l 1
 546 961 520 930 500 886 c 1
 511 887 521 888 531 888 c 0
 611 888 674 840 674 755 c 0
EndSplineSet
EndChar

StartChar: uni0E12
Encoding: 3602 3602 141
Width: 1850
Flags: W
HStem: -10 113<938.788 1022.02> 357 97<573.111 674.5> 622 123<585.679 734.703> 1129 20G<489 747.138 1026.03 1145 1767.75 1932>
VStem: 249 162<218.871 368 300.664 593.75> 467 102<455.813 578.033> 738 124<504.43 619.548> 827 110<112.011 244.292> 1156 159<741.438 922.228>
LayerCount: 2
Fore
SplineSet
862 607 m 0xfe80
 862 486 782 245 389 0 c 1
 204 0 l 1
 227 108 l 2
 246 203 249 287 249 368 c 0
 249 396 248 423 248 451 c 0
 248 644 255 1014 723 1149 c 1
 863 1033 l 1
 1060 1149 l 1
 1230 1109 1315 1003 1315 829 c 0
 1315 783 1309 732 1297 677 c 2
 1240 409 l 1
 1564 160 l 1
 1772 1139 l 1
 1932 1139 l 1
 1690 0 l 1
 1528 0 l 1
 1205 243 l 1
 1184 146 l 2
 1163 49 1098 -10 992 -10 c 0
 883 -10 827 38 827 133 c 0xfd80
 827 257 897 401 1088 446 c 1
 1149 734 l 2
 1154 758 1156 780 1156 801 c 0
 1156 889 1112 948 1024 979 c 1
 826 863 l 1
 687 979 l 1
 553 933 460 831 431 697 c 0
 420 643 411 557 411 453 c 0
 411 402 413 347 418 290 c 2
 415 197 l 1
 500 231 568 287 620 365 c 1
 606 360 590 357 576 357 c 0
 530 357 467 387 467 481 c 0
 467 627 579 745 711 745 c 0
 809 745 862 699 862 607 c 0xfe80
1063 328 m 1
 951 328 937 182 937 152 c 0
 937 122 947 103 976 103 c 0
 1000 103 1018 116 1028 166 c 2
 1063 328 l 1
672 622 m 0
 590 622 569 553 569 522 c 0
 569 485 594 454 625 454 c 0
 724 454 738 541 738 562 c 0xfe80
 738 597 714 622 672 622 c 0
EndSplineSet
EndChar

StartChar: uni0E13
Encoding: 3603 3603 142
Width: 1900
Flags: W
HStem: -11 114<373.897 519.95 1597.5 1736.73> 271 124<454.805 537.522> 1001 148<650.367 1003.16>
VStem: 238 134<105.973 236.569> 541 112<150.678 267.605> 1082 167<721.067 925.268> 1763 113<123.73 320.921>
AnchorPoint: "AboveBase" 1860 1227 basechar 0
LayerCount: 2
Fore
SplineSet
1876 289 m 0
 1876 183 1828 -9 1637 -9 c 0
 1542 -9 1494 37 1494 127 c 0
 1494 161 1505 209 1512 243 c 1
 1083 0 l 1
 928 0 l 1
 1068 657 l 2
 1077 700 1082 739 1082 774 c 0
 1082 917 1008 1001 844 1001 c 0
 697 1001 574 940 478 825 c 1
 546 810 598 756 633 663 c 1
 527 594 463 508 441 403 c 2
 433 369 l 1
 458 386 485 395 514 395 c 0
 599 395 653 345 653 259 c 0
 653 86 545 -11 404 -11 c 0
 293 -11 238 45 238 156 c 0
 238 186 242 220 250 258 c 2
 281 403 l 2
 305 518 367 607 467 671 c 1
 426 738 369 779 294 792 c 1
 456 1030 648 1149 875 1149 c 0
 1123 1149 1249 1037 1249 824 c 0
 1249 779 1243 728 1231 673 c 2
 1127 183 l 1
 1547 409 l 1
 1702 1139 l 1
 1862 1139 l 1
 1715 446 l 1
 1822 442 1876 390 1876 289 c 0
1683 109 m 0
 1738 109 1763 198 1763 248 c 0
 1763 295 1741 323 1690 328 c 1
 1657 173 l 2
 1654 160 1653 149 1653 140 c 0
 1653 120 1661 109 1683 109 c 0
477 271 m 0
 422 271 372 228 372 165 c 0
 372 130 389 103 429 103 c 0
 529 103 541 191 541 207 c 0
 541 238 520 271 477 271 c 0
EndSplineSet
EndChar

StartChar: uni0E14
Encoding: 3604 3604 143
Width: 1330
Flags: W
HStem: 0 21G<222 605.01 1011 1175.26> 362 102<589.265 694> 632 113<603.543 753.701> 1001 148<665.696 1061.59>
VStem: 487 99<466.349 589.625> 756 124<513.951 628.759> 1164 163<704.906 905.329>
LayerCount: 2
Fore
SplineSet
880 611 m 0
 880 488.8 803.019 226.932 407 0 c 1
 222 0 l 1
 245 108 l 2
 273 242 257 550 282 669 c 0
 345 964 548 1149 904 1149 c 0
 1187 1149 1327 1032 1327 805 c 0
 1327 758 1322 707 1310 652 c 2
 1171 0 l 1
 1011 0 l 1
 1154 675 l 2
 1161 706 1164 736 1164 764 c 0
 1164 909 1072 1001 877 1001 c 0
 590 1001 431 812 431 536 c 0
 431 482 435 421 435 319 c 0
 435 284 434 244 433 197 c 1
 502 218 571 274 638 365 c 1
 638 365 622 362 613 362 c 16
 570 362 487 408 487 500 c 0
 487 565 535 745 729 745 c 0
 830 745 880 700 880 611 c 0
689 632 m 0
 606 632 586 562 586 528 c 0
 586 494 603 464 642 464 c 0
 746 464 756 551 756 581 c 0
 756 613 738 632 689 632 c 0
EndSplineSet
EndChar

StartChar: uni0E15
Encoding: 3605 3605 144
Width: 1330
Flags: W
HStem: 0 21G<232 614 1021 1185.25> 357 97<597.955 705.5> 622 123<615.736 764.744> 1129 20G<440 775.138 1054.03 1173>
VStem: 496 100<456.378 602.8> 767 123<505.329 619.995> 1185 158<744.231 922.42>
LayerCount: 2
Fore
SplineSet
890 608 m 0
 890 487 811 246 417 0 c 1
 232 0 l 1
 255 108 l 2
 322 425 129 970 751 1149 c 1
 891 1033 l 1
 1088 1149 l 1
 1258 1109 1343 1003 1343 829 c 0
 1343 783 1337 732 1325 677 c 2
 1181 0 l 1
 1021 0 l 1
 1177 734 l 2
 1182 758 1185 781 1185 802 c 0
 1185 890 1140 948 1052 979 c 1
 854 863 l 1
 715 979 l 1
 470 896 439 688 439 453 c 0
 439 352 447 290 447 267 c 0
 447 234 443 197 443 197 c 1
 528 231 596 287 648 365 c 1
 634 360 619 357 605 357 c 0
 537 357 496 418 496 491 c 0
 496 582 566 745 739 745 c 0
 845 745 890 692 890 608 c 0
700 622 m 0
 636 622 596 573 596 513 c 0
 596 480 612 454 653 454 c 0
 758 454 767 546 767 572 c 0
 767 607 746 622 700 622 c 0
EndSplineSet
EndChar

StartChar: uni0E16
Encoding: 3606 3606 145
Width: 1240
Flags: W
HStem: -11 116<375.252 523.409> 273 124<451.033 540.454> 1001 148<645.11 999.3>
VStem: 237 136<107.859 240.425> 543 114<153.087 309.114> 1080 167<714.797 923.167>
LayerCount: 2
Fore
SplineSet
657 267 m 0
 657 176 604 -11 394 -11 c 0
 293 -11 237 51 237 163 c 0
 237 191 241 223 248 258 c 2
 279 403 l 2
 301 508 363 598 465 671 c 1
 450 730 393 770 292 792 c 1
 448 1030 642 1149 874 1149 c 0
 1117 1149 1247 1038 1247 822 c 0
 1247 777 1242 727 1230 673 c 2
 1087 0 l 1
 927 0 l 1
 1067 657 l 2
 1076 699 1080 737 1080 771 c 0
 1080 920 999 1001 843 1001 c 0
 697 1001 575 940 477 825 c 1
 553 808 604 754 632 663 c 1
 525 592 460 505 439 403 c 2
 431 369 l 1
 451 387 478 397 513 397 c 0
 614 397 657 348 657 267 c 0
477 273 m 0
 414 273 373 225 373 167 c 0
 373 133 391 105 429 105 c 0
 536 105 543 197 543 213 c 0
 543 250 515 273 477 273 c 0
EndSplineSet
EndChar

StartChar: uni0E17
Encoding: 3607 3607 146
Width: 1350
Flags: W
HStem: 0 21G<317 531.348 1054 1218.25> 743 116<373.638 457.864> 975 174<1141.54 1313> 1026 124<389.845 540.713>
VStem: 258 113<861.808 1007.47> 542 132<924.992 1024.17> 1249 170<916.281 1046>
LayerCount: 2
Fore
SplineSet
258 884 m 0xee
 258 1047 379 1150 518 1150 c 0xde
 614 1150 674 1085 674 969 c 0
 674 942 671 913 664 881 c 2
 533 263 l 1
 1025 1003 l 2
 1087 1100 1165 1149 1262 1149 c 0
 1364 1149 1419 1095 1419 997 c 0
 1419 975 1416 950 1410 923 c 2
 1214 0 l 1
 1054 0 l 1
 1245 900 l 2
 1248 912 1249 923 1249 932 c 0
 1249 960 1237 975 1210 975 c 0
 1183 975 1155 954 1122 905 c 2
 518 0 l 1
 317 0 l 1
 481 770 l 1
 467 756 443 743 411 743 c 0
 309 743 258 792 258 884 c 0xee
475 1026 m 0
 392 1026 371 956 371 918 c 0
 371 883 390 859 431 859 c 0
 522 859 542 940 542 974 c 0
 542 1008 520 1026 475 1026 c 0
EndSplineSet
EndChar

StartChar: uni0E18
Encoding: 3608 3608 147
Width: 1250
Flags: W
HStem: 0 148<440 894> 909 148<1080.89 1228.59> 1000 148<661.844 995.527>
VStem: 969 173<499.304 593.75>
LayerCount: 2
Fore
SplineSet
965 480 m 2xb0
 968 493 969 505 969 518 c 0
 969 559 955 596 921 604 c 0
 754 657 549 710 305 761 c 1
 430 1020 608 1148 856 1148 c 0xb0
 1044 1148 1141 1057 1206 1057 c 0
 1239 1057 1277 1062 1308 1071 c 1
 1237 923 l 1
 1214 918 1185 909 1157 909 c 0xd0
 1053 909 953 1000 838 1000 c 0
 721 1000 635 962 572 871 c 1
 749 832 1008 753 1008 753 c 2
 1101 728 1142 671 1142 588 c 0
 1142 566 1139 543 1134 518 c 2
 1024 0 l 1
 249 0 l 1
 387 650 l 1
 547 650 l 1
 440 148 l 1
 894 148 l 1
 965 480 l 2xb0
EndSplineSet
EndChar

StartChar: uni0E19
Encoding: 3609 3609 148
Width: 1400
Flags: W
HStem: -10 113<1100.5 1260.06> 741 115<411.8 501.731> 1024 125<427.676 576.264>
VStem: 302 108<858.814 1008.22> 579 144<921.141 1021.9> 1023 152<108.429 185.125> 1284 121<211.004 321.483>
AnchorPoint: "AboveBase" 1384 1227 basechar 0
LayerCount: 2
Fore
SplineSet
302 885 m 0
 302 974 355 1149 565 1149 c 0
 668 1149 723 1089 723 978 c 0
 723 949 719 916 711 880 c 2
 561 174 l 1
 1069 402 l 1
 1226 1139 l 1
 1386 1139 l 1
 1245 475 l 1
 1352 468 1405 410 1405 302 c 0
 1405 273 1402 241 1394 205 c 0
 1362 56 1276 -10 1141 -10 c 0
 1060 -10 1023 41 1023 133 c 0
 1023 165 1027 202 1036 243 c 1
 519 0 l 1
 364 0 l 1
 527 769 l 1
 511 753 484 741 446 741 c 0
 361 741 302 795 302 885 c 0
1205 103 m 0
 1259 103 1284 191 1284 236 c 0
 1284 296 1246 328 1214 328 c 1
 1179 165 l 2
 1177 154 1175 144 1175 135 c 0
 1175 115 1183 103 1205 103 c 0
514 1024 m 0
 430 1024 410 957 410 919 c 0
 410 884 427 856 466 856 c 0
 562 856 579 938 579 968 c 0
 579 1001 558 1024 514 1024 c 0
EndSplineSet
EndChar

StartChar: uni0E1A
Encoding: 3610 3610 149
Width: 1300
Flags: W
HStem: 0 148<519 1024> 743 112<343.5 463.783> 1023 127<398.676 545.115>
VStem: 271 108<856.908 1004.79> 548 140<924.932 1020.54>
LayerCount: 2
Fore
SplineSet
271 891 m 0
 271 1064 411 1150 529 1150 c 0
 633 1150 688 1097 688 986 c 0
 688 955 683 920 675 881 c 2
 519 148 l 1
 1024 148 l 1
 1235 1139 l 1
 1395 1139 l 1
 1153 0 l 1
 328 0 l 1
 492 770 l 1
 468 749 432 743 381 743 c 0
 306 743 271 810 271 891 c 0
482 1023 m 0
 420 1023 379 976 379 919 c 0
 379 884 397 855 435 855 c 0
 535 855 548 943 548 966 c 0
 548 1001 525 1023 482 1023 c 0
EndSplineSet
EndChar

StartChar: uni0E1B
Encoding: 3611 3611 150
Width: 1300
Flags: W
HStem: 0 148<545 1050> 743 112<369.622 497.816> 1023 127<424.676 571.115>
VStem: 297 108<856.908 1004.79> 574 140<920.363 1020.54>
AnchorPoint: "AboveBase" 1181 1227 basechar 0
LayerCount: 2
Fore
SplineSet
297 891 m 0
 297 1064 437 1150 555 1150 c 0
 659 1150 714 1097 714 986 c 0
 714 955 709 920 701 881 c 2
 545 148 l 1
 1050 148 l 1
 1334 1480 l 1
 1494 1480 l 1
 1179 0 l 1
 354 0 l 1
 518 770 l 1
 494 749 458 743 407 743 c 0
 332 743 297 810 297 891 c 0
508 1023 m 0
 446 1023 405 976 405 919 c 0
 405 884 423 855 461 855 c 0
 561 855 574 943 574 966 c 0
 574 1001 551 1023 508 1023 c 0
EndSplineSet
EndChar

StartChar: uni0E1C
Encoding: 3612 3612 151
Width: 1200
Flags: W
HStem: 0 21G<134 313.163 870.296 1044.25> 741 109<483.551 617.403> 1018 132<491.297 636.954>
VStem: 640 113<899.798 1013.84>
LayerCount: 2
Fore
SplineSet
753 994 m 0
 753 830.481 623.686 741 536 741 c 0
 499 741 473 751 458 770 c 1
 339 214 l 1
 703 627 l 1
 751 627 l 1
 925 211 l 1
 1122 1139 l 1
 1282 1139 l 1
 1040 0 l 1
 880 0 l 1
 683 406 l 1
 294 0 l 1
 134 0 l 1
 321 881 l 2
 357 1048 456 1150 581 1150 c 0
 696 1150 753 1091 753 994 c 0
574 1018 m 0
 527.85 1018 471 975.825 471 919 c 0
 471 881 494 850 527 850 c 0
 620.989 850 640 929.006 640 961 c 0
 640 994 619 1018 574 1018 c 0
EndSplineSet
EndChar

StartChar: uni0E1D
Encoding: 3613 3613 152
Width: 1200
Flags: W
HStem: 0 21G<153 332.163 889.296 1063.26> 741 109<502.551 636.403> 1018 132<510.297 655.954>
VStem: 659 113<899.798 1013.84>
AnchorPoint: "AboveBase" 1059.81 1227 basechar 0
LayerCount: 2
Fore
SplineSet
772 994 m 0
 772 830.481 642.686 741 555 741 c 0
 518 741 492 751 477 770 c 1
 358 214 l 1
 722 627 l 1
 770 627 l 1
 944 211 l 1
 1214 1480 l 1
 1374 1480 l 1
 1059 0 l 1
 899 0 l 1
 702 406 l 1
 313 0 l 1
 153 0 l 1
 340 881 l 2
 376 1048 475 1150 600 1150 c 0
 715 1150 772 1091 772 994 c 0
593 1018 m 0
 546.85 1018 490 975.825 490 919 c 0
 490 881 513 850 546 850 c 0
 639.989 850 659 929.006 659 961 c 0
 659 994 638 1018 593 1018 c 0
EndSplineSet
EndChar

StartChar: uni0E1E
Encoding: 3614 3614 153
Width: 1350
Flags: W
HStem: 0 21G<300 500.543 1013.56 1210.25> 740 117<356.282 434.284> 1025 124<371.788 520.569>
VStem: 239 114<858.81 1005.98> 523 136<922.396 1020.39>
LayerCount: 2
Fore
SplineSet
239 880 m 0
 239 973.681 291.4 1149 501 1149 c 0
 604 1149 659 1091 659 979 c 0
 659 950 655 917 647 880 c 2
 516 263 l 1
 951 1083 l 1
 999 1083 l 1
 1101 260 l 1
 1288 1139 l 1
 1448 1139 l 1
 1206 0 l 1
 1016 0 l 1
 917 810 l 1
 490 0 l 1
 300 0 l 1
 463 769 l 1
 440 750 410 740 373 740 c 0
 289 740 239 790 239 880 c 0
457 1025 m 0
 398.667 1025 353 978.358 353 919 c 0
 353 885 371 857 409 857 c 0
 508.197 857 523 944.108 523 965 c 0
 523 1003 495 1025 457 1025 c 0
EndSplineSet
EndChar

StartChar: uni0E1F
Encoding: 3615 3615 154
Width: 1450
Flags: W
HStem: 0 21G<381 581.543 1094.56 1291.26> 740 117<437.282 515.284> 1025 124<452.788 601.569>
VStem: 320 114<858.81 1005.98> 604 136<922.396 1020.39>
AnchorPoint: "AboveBase" 1291.81 1227 basechar 0
LayerCount: 2
Fore
SplineSet
320 880 m 0
 320 973.681 372.4 1149 582 1149 c 0
 685 1149 740 1091 740 979 c 0
 740 950 736 917 728 880 c 2
 597 263 l 1
 1032 1083 l 1
 1080 1083 l 1
 1182 260 l 1
 1442 1480 l 1
 1602 1480 l 1
 1287 0 l 1
 1097 0 l 1
 998 810 l 1
 571 0 l 1
 381 0 l 1
 544 769 l 1
 521 750 491 740 454 740 c 0
 370 740 320 790 320 880 c 0
538 1025 m 0
 479.667 1025 434 978.358 434 919 c 0
 434 885 452 857 490 857 c 0
 589.197 857 604 944.108 604 965 c 0
 604 1003 576 1025 538 1025 c 0
EndSplineSet
EndChar

StartChar: uni0E20
Encoding: 3616 3616 155
Width: 1350
Flags: W
HStem: -10 122<219.935 361.908> 280 119<233.161 375.66> 1002 148<786.324 1130.69>
VStem: 106 109<113.424 259.941> 1211 168<719.601 919.592>
LayerCount: 2
Fore
SplineSet
106 143 m 0
 106 256 189 399 325 399 c 0
 362 399 388 389 403 370 c 1
 410 404 l 2
 433 513 496 603 596 672 c 1
 571 731 514 771 424 793 c 1
 578 1031 772 1150 1005 1150 c 0
 1251 1150 1379 1039 1379 825 c 0
 1379 779 1373 729 1361 674 c 2
 1218 0 l 1
 1058 0 l 1
 1198 658 l 2
 1206 698 1211 735 1211 769 c 0
 1211 918 1129 1002 974 1002 c 0
 843 1002 721 943 609 826 c 1
 688 801 740 747 763 664 c 1
 656 591 591 505 570 404 c 2
 539 259 l 2
 502 84 399 -10 279 -10 c 0
 168 -10 106 49 106 143 c 0
319 280 m 0
 257 280 215 232 215 180 c 0
 215 143 237 112 271 112 c 0
 372 112 384 200 384 223 c 0
 384 256 364 280 319 280 c 0
EndSplineSet
EndChar

StartChar: uni0E21
Encoding: 3617 3617 156
Width: 1350
Flags: W
HStem: -10 123<317.718 403.871> 328 118<356.914 441> 739 116<425.441 508.825> 1023 127<440.171 589.846>
VStem: 206 110<113.188 246.919> 313 109<858.198 1003.2> 592 139<897.766 1020.03>
LayerCount: 2
Fore
SplineSet
206 135 m 0xfa
 206 225 256 446 466 446 c 1
 535 770 l 1
 517 751 490 739 457 739 c 0
 368 739 313 794 313 890 c 0xf6
 313 1030 406 1150 563 1150 c 0
 675 1150 731 1095 731 985 c 0
 731 955 726 920 718 881 c 2
 618 409 l 1
 1025 159 l 1
 1233 1139 l 1
 1393 1139 l 1
 1151 0 l 1
 990 0 l 1
 583 243 l 1
 562 146 l 2
 540 43 462 -10 370 -10 c 0
 263 -10 206 39 206 135 c 0xfa
441 328 m 1
 333 328 316 193 316 163 c 0xfa
 316 132 328 113 356 113 c 0
 387 113 399 133 408 174 c 2
 441 328 l 1
525 1023 m 0
 458 1023 422 970 422 924 c 0xf6
 422 886 445 855 478 855 c 0
 569 855 592 932 592 970 c 0
 592 1003 572 1023 525 1023 c 0
EndSplineSet
EndChar

StartChar: uni0E22
Encoding: 3618 3618 157
Width: 1200
Flags: W
HStem: 0 148<390 898> 505 113<632.189 745> 743 112<554.81 699.341> 1023 126<572.658 718.489>
VStem: 345 168<648.674 766.867> 721 111<903.669 1019.96>
LayerCount: 2
Fore
SplineSet
513 733 m 0
 513 616 642 618 769 618 c 1
 745 505 l 1
 543 505 460 473 433 347 c 2
 390 148 l 1
 898 148 l 1
 1109 1139 l 1
 1269 1139 l 1
 1027 0 l 1
 199 0 l 1
 273 349 l 2
 293 444 358 515 469 562 c 1
 386 579 345 654 345 753 c 0
 345 869 409 1149 662 1149 c 0
 768 1149 832 1099 832 996 c 0
 832 909 788 743 613 743 c 0
 562 743 530 753 517 770 c 1
 514 757 513 745 513 733 c 0
655 1023 m 0
 593 1023 552 976 552 919 c 0
 552 884 570 855 608 855 c 0
 708 855 721 942 721 966 c 0
 721 1001 698 1023 655 1023 c 0
EndSplineSet
EndChar

StartChar: uni0E23
Encoding: 3619 3619 158
Width: 1100
Flags: W
HStem: -10 119<643.366 786.314> 277 106<655.77 790.099> 915 148<1015.13 1202.25> 1001 148<622.434 960.089>
VStem: 523 116<112.019 234.095> 838 171<541.688 643.142>
LayerCount: 2
Fore
SplineSet
523 126 m 0xdc
 523 191 563 383 722 383 c 0
 757 383 784 379 800 363 c 1
 835 529 l 2
 837 537 838 546 838 554 c 0
 838 594 819 638 768 656 c 0
 667 692 500 727 266 762 c 1
 390 1020 574 1149 817 1149 c 0xdc
 991 1149 1056 1063 1188 1063 c 0
 1214 1063 1241 1066 1269 1072 c 1
 1198 924 l 1
 1180 917 1159 915 1135 915 c 0xec
 969 915 945 1001 774 1001 c 0
 681 1001 594 959 533 872 c 1
 831 810 1009 750 1009 612 c 0
 1009 600 1008 587 1005 574 c 2
 948 304 l 2
 899 77 836 -10 681 -10 c 0
 577 -10 523 36 523 126 c 0xdc
742 277 m 0
 660 277 639 210 639 177 c 0
 639 140 664 109 694 109 c 0
 789 109 807 189 807 216 c 0
 807 247 788 277 742 277 c 0
EndSplineSet
EndChar

StartChar: uni0E24
Encoding: 3620 3620 159
Width: 1240
Flags: W
HStem: -11 116<373.252 521.409> 273 124<449.033 538.454> 1001 148<643.11 997.3>
VStem: 235 136<107.859 240.425> 541 114<153.087 309.114> 1078 167<714.797 923.167>
LayerCount: 2
Fore
SplineSet
655 267 m 0
 655 176 602 -11 392 -11 c 0
 291 -11 235 51 235 163 c 0
 235 191 239 223 246 258 c 2
 277 403 l 2
 299 508 361 598 463 671 c 1
 448 730 391 770 290 792 c 1
 446 1030 640 1149 872 1149 c 0
 1115 1149 1245 1038 1245 822 c 0
 1245 777 1240 727 1228 673 c 2
 1004 -380 l 1
 844 -380 l 1
 1065 657 l 2
 1074 699 1078 737 1078 771 c 0
 1078 920 997 1001 841 1001 c 0
 695 1001 573 940 475 825 c 1
 551 808 602 754 630 663 c 1
 523 592 458 505 437 403 c 2
 429 369 l 1
 449 387 476 397 511 397 c 0
 612 397 655 348 655 267 c 0
475 273 m 0
 412 273 371 225 371 167 c 0
 371 133 389 105 427 105 c 0
 534 105 541 197 541 213 c 0
 541 250 513 273 475 273 c 0
EndSplineSet
EndChar

StartChar: uni0E25
Encoding: 3621 3621 160
Width: 1255
Flags: W
HStem: -11 115<412.987 559.462> 272 127<483.362 577.581> 604 140<578.561 897.829> 1001 148<621.976 991.022>
VStem: 265 145<106.405 239.623> 580 106<153.099 314> 1084 165<737.992 915.026>
LayerCount: 2
Fore
SplineSet
686 273 m 0
 686 92 561 -11 431 -11 c 0
 360 -11 265 18 265 162 c 0
 265 189 268 221 276 258 c 2
 303 388 l 2
 355 630 563 744 768 744 c 0
 943 744 1036 656 1053 609 c 1
 1076 714 l 2
 1081 739 1084 763 1084 786 c 0
 1084 923 985 1001 809 1001 c 0
 681 1001 539 943 387 834 c 1
 357 944 l 1
 520 1077 683 1149 842 1149 c 0
 1107 1149 1249 1037 1249 830 c 0
 1249 794 1245 755 1236 713 c 2
 1084 0 l 1
 924 0 l 1
 980 263 l 2
 986 291 990 323 990 355 c 0
 990 475 936 604 736 604 c 0
 588 604 490 513 468 407 c 2
 459 369 l 1
 482 389 514 399 556 399 c 0
 645 399 686 355 686 273 c 0
514 272 m 0
 447 272 410 221 410 167 c 0
 410 132 429 104 466 104 c 0
 570 104 580 191 580 217 c 0
 580 252 557 272 514 272 c 0
EndSplineSet
EndChar

StartChar: uni0E26
Encoding: 3622 3622 161
Width: 1350
Flags: W
HStem: -10 122<234.935 376.908> 280 119<248.161 390.66> 1002 148<801.324 1145.69>
VStem: 121 109<113.424 259.941> 1226 168<719.601 919.592>
LayerCount: 2
Fore
SplineSet
121 143 m 0
 121 256 204 399 340 399 c 0
 377 399 403 389 418 370 c 1
 425 404 l 2
 448 513 511 603 611 672 c 1
 586 731 529 771 439 793 c 1
 593 1031 787 1150 1020 1150 c 0
 1266 1150 1394 1039 1394 825 c 0
 1394 779 1388 729 1376 674 c 2
 1152 -380 l 1
 992 -380 l 1
 1213 658 l 2
 1221 698 1226 735 1226 769 c 0
 1226 918 1144 1002 989 1002 c 0
 858 1002 736 943 624 826 c 1
 703 801 755 747 778 664 c 1
 671 591 606 505 585 404 c 2
 554 259 l 2
 517 84 414 -10 294 -10 c 0
 183 -10 121 49 121 143 c 0
334 280 m 0
 272 280 230 232 230 180 c 0
 230 143 252 112 286 112 c 0
 387 112 399 200 399 223 c 0
 399 256 379 280 334 280 c 0
EndSplineSet
EndChar

StartChar: uni0E27
Encoding: 3623 3623 162
Width: 1150
Flags: W
HStem: -10 123<729.537 874.651> 281 117<745.314 886.483> 1001 148<567.656 933.984>
VStem: 613 113<114.415 262.541> 1000 165<768.326 940.608>
LayerCount: 2
Fore
SplineSet
613 142 m 0
 613 190 657 398 834 398 c 0
 871 398 897 388 912 369 c 1
 991 738 l 2
 997 768 1000 794 1000 818 c 0
 1000 963 890 1001 759 1001 c 0
 615 1001 479 958 354 866 c 1
 293 927 l 1
 444 1070 622 1149 790 1149 c 0
 1028 1149 1165 1050 1165 853 c 0
 1165 819 1160 782 1152 742 c 2
 1049 258 l 2
 1011 79 922 -10 788 -10 c 0
 677 -10 613 57 613 142 c 0
830 281 m 0
 747 281 726 215 726 177 c 0
 726 142 746 113 782 113 c 0
 881 113 896 199 896 228 c 0
 896 261 875 281 830 281 c 0
EndSplineSet
EndChar

StartChar: uni0E28
Encoding: 3624 3624 163
Width: 1300
Flags: W
HStem: 0 21G<181 428.5 971 1135.24> 344 116<705.917 856.646> 625 121<725.353 873.027> 1001 148<631.65 1003.01>
VStem: 223 147<256.212 495.375> 876 104<505.346 622.049> 1119 167<692.047 891.596>
LayerCount: 2
Fore
SplineSet
980 605 m 0
 980 485 889 344 737 344 c 0
 657 344 630 368 615 424 c 1
 540 319 466 177 391 0 c 1
 181 0 l 1
 204 108 l 2
 219 178 223 237 223 294 c 0
 223 347 219 398 219 453 c 0
 219 1010 586 1149 856 1149 c 0
 993 1149 1096 1120 1168 1067 c 1
 1220 1096 1271 1148 1322 1224 c 1
 1540 1224 l 1
 1479 1108 1386 1013 1264 939 c 1
 1279 899 1286 853 1286 801 c 0
 1286 756 1281 706 1269 651 c 2
 1131 0 l 1
 971 0 l 1
 1109 650 l 2
 1115 680 1119 709 1119 737 c 0
 1119 899 1007 1001 830 1001 c 0
 613 1001 443 863 397 646 c 0
 376 546 369 447 369 338 c 0
 369 311 369 284 370 256 c 1
 529 703 749 746 817 746 c 0
 923 746 980 693 980 605 c 0
812 625 m 0
 742 625 704 572 704 520 c 0
 704 483 725 460 771 460 c 0
 855 460 876 531 876 566 c 0
 876 602 853 625 812 625 c 0
EndSplineSet
EndChar

StartChar: uni0E29
Encoding: 3625 3625 164
Width: 1350
Flags: W
HStem: 0 148<486 991> 423 112<979.015 1040.79> 698 67<876.664 986.919> 741 113<349.279 436.283> 1022 127<366.754 515.417>
VStem: 235 111<856.433 1001.56> 516 139<924.835 1019.43> 785 87<541 692.807> 988 73<609.592 697.359>
AnchorPoint: "AboveBase" 1359.81 1227 basechar 0
LayerCount: 2
Fore
SplineSet
1061 676 m 0xef80
 1061 599 1011 561 970 548 c 1
 987 539 1004 535 1025 535 c 0
 1040 535 1057 538 1075 543 c 1
 1202 1138 l 1
 1362 1138 l 1
 1259 654 l 1
 1292 681 1314 721 1325 773 c 1
 1432 773 l 1
 1407 655 1338 562 1225 493 c 1
 1120 0 l 1
 295 0 l 1
 458 769 l 1
 432 743 419 741 371 741 c 0xdf80
 278 741 235 805 235 888 c 0
 235 983 287 1149 496 1149 c 0
 602 1149 655 1093 655 985 c 0
 655 954 650 919 642 880 c 2
 486 148 l 1
 991 148 l 1
 1052 435 l 1
 1021 424 1017 423 994 423 c 0
 832 423 785 496 785 586 c 0
 785 689 875 765 957 765 c 0
 1023 765 1061 735 1061 676 c 0xef80
917 588 m 0
 978 588 988 635 988 658 c 0
 988 682 974 698 941 698 c 0xef80
 898 698 872 665 872 632 c 0
 872 610 886 588 917 588 c 0
449 1022 m 0
 403 1022 346 981 346 919 c 0
 346 883 366 854 402 854 c 0xdf80
 499 854 516 937 516 970 c 0
 516 1006 493 1022 449 1022 c 0
EndSplineSet
EndChar

StartChar: uni0E2A
Encoding: 3626 3626 165
Width: 1250
Flags: W
HStem: -11 115<378.854 521.76> 272 127<448.59 541.468> 604 140<540.822 862.042> 1001 148<588.429 959.915>
VStem: 230 146<106.284 237.965> 544 106<153.309 269.977> 1049 164<735.893 896.787>
LayerCount: 2
Fore
SplineSet
650 266 m 0
 650 87 519 -11 396 -11 c 0
 326 -11 230 17 230 162 c 0
 230 190 233 221 241 258 c 2
 268 388 l 2
 317 616 517 744 733 744 c 0
 911 744 1001 656 1018 609 c 1
 1041 714 l 2
 1046 740 1049 765 1049 788 c 0
 1049 923 954 1001 774 1001 c 0
 636 1001 504 943 352 834 c 1
 322 944 l 1
 485 1077 649 1149 807 1149 c 0
 965 1149 1076 1107 1142 1037 c 1
 1213 1081 1266 1138 1303 1209 c 1
 1469 1209 l 1
 1416 1048 1259 952 1200 936 c 1
 1209 906 1213 869 1213 831 c 0
 1213 791 1209 750 1201 713 c 2
 1049 0 l 1
 889 0 l 1
 945 263 l 2
 952 296 955 328 955 357 c 0
 955 511 861 604 701 604 c 0
 553 604 455 513 433 407 c 2
 424 369 l 1
 447 389 479 399 521 399 c 0
 606 399 650 351 650 266 c 0
479 272 m 0
 427 272 376 229 376 170 c 0
 376 134 397 104 431 104 c 0
 531 104 544 190 544 215 c 0
 544 253 517 272 479 272 c 0
EndSplineSet
EndChar

StartChar: uni0E2B
Encoding: 3627 3627 166
Width: 1350
Flags: W
HStem: 0 21G<332 629.823 1038 1202.26> 748 115<403.921 474.124> 1019 125<1110.31 1256.47> 1031 118<419.14 568.093>
VStem: 296 104<865.503 1011.87> 569 128<939.298 1027.35> 969 121<852.642 1000.39> 1167 163<602.352 688.591> 1259 134<899.695 1014.8>
LayerCount: 2
Fore
SplineSet
296 892 m 0xef
 296 1052.3 420.906 1149 540 1149 c 0xdf
 645 1149 697 1101 697 1004 c 0
 697 980 694 954 688 924 c 2
 532 190 l 1
 708.471 505.127 963.133 721.094 1028 767 c 1
 988 790 969 828 969 882 c 0
 969 972.77 1018.2 1144 1215 1144 c 0
 1330 1144 1393 1088 1393 1001 c 0xee80
 1393 935.071 1354.76 817.781 1269 764 c 1
 1306 737 1330 680 1330 633 c 0
 1330 625 1329 617 1328 610 c 2
 1198 0 l 1
 1038 0 l 1
 1164 594 l 2
 1166 602 1167 610 1167 618 c 0
 1167 649 1152 673 1123 690 c 1
 986.717 603.095 703.646 289.224 556 0 c 1
 332 0 l 1
 495 767 l 1
 473 754 447 748 414 748 c 0
 347 748 296 799 296 892 c 0xef
503 1031 m 0
 447.082 1031 400 985.63 400 930 c 0
 400 893 423 863 455 863 c 0
 554.425 863 569 945.207 569 975 c 0
 569 1014 542 1031 503 1031 c 0
1194 1019 m 0xee80
 1137.88 1019 1090 978.216 1090 915 c 0
 1090 879 1107 851 1146 851 c 0
 1245.85 851 1259 940.137 1259 959 c 0
 1259 990 1240 1019 1194 1019 c 0xee80
EndSplineSet
EndChar

StartChar: uni0E2C
Encoding: 3628 3628 167
Width: 1400
Flags: W
HStem: 0 21G<317 517.543 1030.56 1227.24> 740 117<373.175 452.655> 1025 124<387.503 538.706> 1159 122<1495 1604.1> 1167 108<1276.27 1331> 1412 107<1283.71 1415.89>
VStem: 256 114<859.698 981.245> 541 135<924.073 1023.19> 1175 98<1277.52 1380.07> 1417 99<1318.21 1409.74>
AnchorPoint: "AboveBase" 1135.81 1227 basechar 0
LayerCount: 2
Fore
SplineSet
256 878 m 0xf7c0
 256 973 308 1149 518 1149 c 0
 621 1149 676 1091 676 979 c 0
 676 950 672 917 664 880 c 2
 533 263 l 1
 968 1083 l 1
 1016 1083 l 1
 1118 260 l 1
 1311 1167 l 1xefc0
 1223 1167 1175 1209 1175 1290 c 0
 1175 1370 1211 1519 1385 1519 c 0
 1470 1519 1516 1478 1516 1401 c 0
 1516 1385 1514 1368 1510 1349 c 2
 1495 1281 l 1
 1636 1281 1665 1438 1671 1467 c 1
 1771 1467 l 1
 1748 1360 1717 1282 1660 1234 c 0
 1602 1186 1539 1159 1469 1159 c 1
 1223 0 l 1
 1033 0 l 1
 934 810 l 1
 507 0 l 1
 317 0 l 1
 480 769 l 1
 457 750 427 740 390 740 c 0
 307 740 256 787 256 878 c 0xf7c0
474 1025 m 0
 383 1025 370 950 370 918 c 0
 370 884 387 857 426 857 c 0
 523 857 541 940 541 973 c 0
 541 1006 523 1025 474 1025 c 0
1362 1412 m 0
 1291 1412 1273 1356 1273 1327 c 0
 1273 1295 1295 1275 1331 1275 c 0
 1377 1275 1417 1314 1417 1362 c 0
 1417 1394 1395 1412 1362 1412 c 0
EndSplineSet
EndChar

StartChar: uni0E2D
Encoding: 3629 3629 168
Width: 1230
Flags: W
HStem: 0 148<414 921> 340 120<491.616 631.61> 628 120<502.988 650.51> 1001 148<598.568 955.652>
VStem: 653 104<508.544 623.599> 1053 169<762.371 913.193>
LayerCount: 2
Fore
SplineSet
757 592 m 0
 757 502 712 340 530 340 c 0
 504 340 481 349 461 366 c 1
 414 148 l 1
 921 148 l 1
 1047 738 l 2
 1051 757 1053 775 1053 792 c 0
 1053 920 944 1001 783 1001 c 0
 642 1001 518 957 410 866 c 1
 349 927 l 1
 493 1075 647 1149 810 1149 c 0
 1089 1149 1222 1051 1222 861 c 0
 1222 827 1218 789 1209 749 c 2
 1050 0 l 1
 223 0 l 1
 315 434 l 2
 359 641 454 748 595 748 c 0
 704 748 757 688 757 592 c 0
587 628 m 0
 542 628 483 591 483 522 c 0
 483 487 500 460 540 460 c 0
 644 460 653 554 653 566 c 0
 653 598 630 628 587 628 c 0
EndSplineSet
EndChar

StartChar: uni0E2E
Encoding: 3630 3630 169
Width: 1250
Flags: W
HStem: 0 148<419 928> 343 117<497.465 634.049> 628 120<501.958 654.939> 764 120<585.394 981.584> 1029 120<593.966 987.738>
VStem: 656 108<509.261 624.294> 1059 169<758.154 883>
LayerCount: 2
Fore
SplineSet
403 932 m 0
 403 1070 648 1149 829 1149 c 0
 955 1149 1053 1121 1124 1064 c 1
 1160 1100 1183 1131 1196 1158 c 1
 1309 1116 l 1
 1275 1061 1240 1014 1202 975 c 1
 1219 946 1228 907 1228 859 c 0
 1228 824 1224 784 1214 739 c 2
 1057 0 l 1
 228 0 l 1
 320 434 l 2
 364 639 459 748 600 748 c 0
 707 748 764 700 764 600 c 0
 764 506 719 343 538 343 c 0
 505 343 482 356 467 373 c 1
 419 148 l 1
 928 148 l 1
 1049 715 l 2
 1056 746 1059 772 1059 793 c 0
 1059 814 1056 830 1049 842 c 1
 969 791 868 764 750 764 c 0
 529 764 403 835 403 932 c 0
815 1029 m 0
 715 1029 558 992 558 953 c 0
 558 915 668 884 771 884 c 0
 861 884 948 906 1028 952 c 1
 975 1004 903 1029 815 1029 c 0
590 628 m 0
 500 628 487 561 487 527 c 0
 487 490 508 460 543 460 c 0
 644 460 656 549 656 572 c 0
 656 606 635 628 590 628 c 0
EndSplineSet
EndChar

StartChar: uni0E2F
Encoding: 3631 3631 170
Width: 1150
Flags: W
HStem: 0 21G<865 1029.25> 684 148<605 848.725> 1034 104<460.759 610.559>
VStem: 322 122<869.058 991.801> 612 127<946.555 1030.96>
LayerCount: 2
Fore
SplineSet
739 1000 m 0
 739 961 726 868 639 832 c 1
 843 832 1069 962 1109 1149 c 1
 1269 1149 l 1
 1025 0 l 1
 865 0 l 1
 1041 830 l 1
 928 742 775 684 605 684 c 0
 452 684 322 757 322 896 c 0
 322 1040 440 1138 572 1138 c 0
 681 1138 739 1084 739 1000 c 0
547 1034 m 0
 465 1034 444 967 444 934 c 0
 444 897 469 866 499 866 c 0
 598 866 612 952 612 976 c 0
 612 1009 589 1034 547 1034 c 0
EndSplineSet
EndChar

StartChar: uni0E30
Encoding: 3632 3632 171
Width: 1100
Flags: W
HStem: 62 123<488.821 726.672> 393 92<348.447 481.666> 548 123<594.567 829.354> 879 92<453.785 583.626>
VStem: 236 101<248.807 358.664> 339 101<734.751 866.02> 483 95<286.311 390.98> 586 95<770.595 876.258>
LayerCount: 2
Fore
SplineSet
578 367 m 0
 578 283 536 235 480 199 c 1
 507 190 535 185 564 185 c 0
 718 185 858 280 900 479 c 1
 1016 479 l 1
 945 145 688 62 497 62 c 0
 382 62 236 105 236 264 c 0
 236 408 328 485 446 485 c 0
 536 485 578 440 578 367 c 0
427 393 m 0
 355 393 337 335 337 309 c 0
 337 276 364 248 385 248 c 0
 476 248 483 330 483 339 c 0
 483 365 466 393 427 393 c 0
681 851 m 0
 681 768 637 720 584 685 c 1
 611 676 639 671 668 671 c 0
 822 671 961 766 1003 965 c 1
 1119 965 l 1
 1048 631 788 548 600 548 c 0
 485 548 339 591 339 750 c 0
 339 905 448 971 549 971 c 0
 634 971 681 927 681 851 c 0
530 879 m 0
 476 879 440 838 440 789 c 0
 440 758 455 734 488 734 c 0
 580 734 586 816 586 823 c 0
 586 851 563 879 530 879 c 0
EndSplineSet
EndChar

StartChar: uni0E31
Encoding: 3633 3633 172
Width: 0
Flags: W
HStem: 1214 123<-195.179 42.0922> 1545 92<-335.976 -202.467>
VStem: -448 100<1400.79 1510.14> -201 95<1438.32 1544.14>
AnchorPoint: "AboveMark" 107.849 1740 basemark 0
AnchorPoint: "AboveBase" 80.8066 1227 mark 0
LayerCount: 2
Fore
SplineSet
-106 1521 m 0
 -106 1419 -168 1374 -204 1351 c 1
 -177 1342 -149 1337 -120 1337 c 0
 34 1337 173 1432 216 1631 c 1
 332 1631 l 1
 275 1363 83 1214 -187 1214 c 0
 -302 1214 -448 1257 -448 1416 c 0
 -448 1551 -367 1637 -238 1637 c 0
 -151 1637 -106 1595 -106 1521 c 0
-258 1545 m 0
 -338 1545 -348 1477 -348 1452 c 0
 -348 1423 -333 1400 -299 1400 c 0
 -213 1400 -201 1475 -201 1496 c 0
 -201 1527 -222 1545 -258 1545 c 0
EndSplineSet
EndChar

StartChar: uni0E32
Encoding: 3634 3634 173
Width: 1150
Flags: W
HStem: 0 21G<796 960.25> 1001 148<585.744 901.35>
VStem: 960 167<762.667 944.663>
LayerCount: 2
Fore
SplineSet
790 1149 m 0
 1002 1149 1127 1030 1127 849 c 0
 1127 819 1123 787 1116 753 c 2
 956 0 l 1
 796 0 l 1
 951 729 l 2
 957 759 960 787 960 813 c 0
 960 932 892 1001 759 1001 c 0
 629 1001 513 935 431 816 c 1
 316 837 l 1
 430 1043 588 1149 790 1149 c 0
EndSplineSet
EndChar

StartChar: uni0E34
Encoding: 3636 3636 175
Width: 0
Flags: W
HStem: 1322 91<-598 -235.974> 1528 116<-506.214 -160.83>
VStem: -843 925<1257 1322>
AnchorPoint: "AboveMark" 97.8486 1740 basemark 0
AnchorPoint: "AboveBase" 80.8066 1227 mark 0
LayerCount: 2
Fore
SplineSet
-843 1322 m 1
 -742 1490 -542 1644 -309 1644 c 0
 -151 1644 -73 1595 -5 1515 c 0
 53 1447 82 1361 82 1257 c 0
 82 1247 82 1237 81 1227 c 1
 -231 1298 -755 1322 -843 1322 c 1
-76 1359 m 1
 -112 1462 -175 1528 -317 1528 c 0
 -430 1528 -524 1490 -598 1413 c 1
 -463 1413 -116 1370 -76 1359 c 1
EndSplineSet
EndChar

StartChar: uni0E35
Encoding: 3637 3637 176
Width: 0
Flags: W
HStem: 1323 101<-570 -239.094> 1511 131<-509.648 -149.087>
AnchorPoint: "AboveMark" 107.849 1740 basemark 0
AnchorPoint: "AboveBase" 80.8066 1227 mark 0
LayerCount: 2
Fore
SplineSet
81 1260 m 1
 81 1228 l 1
 -126.942 1275.4 -601.616 1323 -843 1323 c 1
 -807 1392 -738 1463 -636 1534 c 0
 -534 1606 -424 1642 -309 1642 c 0
 -175 1642 -80 1603 -13 1525 c 1
 32 1735 l 1
 182 1735 l 1
 81 1260 l 1
-88 1370 m 1
 -107 1457 -187 1511 -295 1511 c 0
 -418 1511 -509 1483 -570 1424 c 1
 -425.587 1424 -180.952 1394.1 -88 1370 c 1
EndSplineSet
EndChar

StartChar: uni0E36
Encoding: 3638 3638 177
Width: 0
Flags: W
HStem: 1321 108<79 180.578> 1323 89<-577 -239.094> 1514 128<-510.16 -150.528> 1568 113<58.3091 193.533>
VStem: 196 114<1442.73 1554.93>
AnchorPoint: "AboveMark" 171.849 1740 basemark 0
AnchorPoint: "AboveBase" 80.8066 1227 mark 0
LayerCount: 2
Fore
SplineSet
310 1544 m 0x18
 310 1476.71 261.884 1321 79 1321 c 1x98
 80 1309 81 1289 81 1261 c 2
 81 1228 l 1
 -126.942 1275.4 -601.616 1323 -843 1323 c 1
 -810 1401 -746 1474 -649 1542 c 0
 -553 1610 -443 1642 -309 1642 c 0x68
 -215 1642 -97 1611 -38 1548 c 1
 -5 1633 61 1681 159 1681 c 0
 253 1681 310 1624 310 1544 c 0x18
106 1429 m 0
 157.95 1429 196 1473.7 196 1511 c 0
 196 1535 181 1568 135 1568 c 0
 69.1191 1568 46 1512.72 46 1479 c 0
 46 1447 67 1429 106 1429 c 0
-85 1358 m 1
 -100 1460 -182 1514 -326 1514 c 0
 -438 1514 -525 1480 -577 1412 c 1x68
 -426.494 1412 -174.187 1380.3 -85 1358 c 1
EndSplineSet
EndChar

StartChar: uni0E37
Encoding: 3639 3639 178
Width: 0
Flags: W
HStem: 1322 91<-560 -247.742> 1505 128<-497.997 -222.356>
VStem: -824 1003<1322 1721>
AnchorPoint: "AboveMark" -6.15137 1740 basemark 0
AnchorPoint: "AboveBase" 80.8066 1227 mark 0
LayerCount: 2
Fore
SplineSet
-824 1322 m 1
 -758 1443 -572 1633 -294 1633 c 0
 -267 1633 -243 1629 -221 1624 c 1
 -200 1722 l 1
 -50 1722 l 1
 -82 1570 l 1
 -66 1570 -46 1553 -14 1519 c 1
 29 1721 l 1
 179 1721 l 1
 86 1284 l 1
 76 1227 l 1
 -164 1282 -684 1322 -824 1322 c 1
-108 1369 m 1
 -124 1429 -179 1505 -329 1505 c 0
 -427 1505 -502 1472 -560 1413 c 1
 -451 1413 -184 1390 -108 1369 c 1
EndSplineSet
EndChar

StartChar: uni0E38
Encoding: 3640 3640 179
Width: 0
Flags: W
HStem: -375 67<-447.719 -375.939> -163 78<-435.812 -329.234>
VStem: -530 81<-307.595 -198.679> -328 115<-262.538 -163.349>
AnchorPoint: "BelowBase" -176.067 -85 mark 0
LayerCount: 2
Fore
SplineSet
-530 -284 m 0
 -530 -227.2 -495.292 -85 -338 -85 c 0
 -256 -85 -213 -130 -213 -219 c 0
 -213 -242 -216 -269 -222 -299 c 2
 -272 -534 l 1
 -403 -534 l 1
 -366 -360 l 1
 -377 -369 -390 -375 -402 -375 c 0
 -490 -375 -530 -344 -530 -284 c 0
-396 -308 m 0
 -338.203 -308 -328 -233.631 -328 -210 c 0
 -328 -180 -342 -163 -366 -163 c 0
 -439.903 -163 -449 -238.108 -449 -261 c 0
 -449 -293 -431 -308 -396 -308 c 0
EndSplineSet
Substitution2: "Thai Sara U Mai Ek Reordering" uni0E48.low
Substitution2: "Thai Sara U Mai Tho Reordering" uni0E49.low
Substitution2: "Thai Sara U Mai Tri Reordering" uni0E4A.low
Substitution2: "Thai Sara U Mai Chattawa Reordering" uni0E4B.low
Substitution2: "Thai Sara U Thanthakhat Reordering" uni0E4C.low
Substitution2: "Thai Sara U Nikhahit Reordering" uni0E4D
EndChar

StartChar: uni0E39
Encoding: 3641 3641 180
Width: 0
Flags: W
HStem: -534 99<-529 -384> -376 69<-727.771 -656.669> -163 78<-712.667 -606.854>
VStem: -807 79<-306.154 -175.995> -606 116<-255.374 -163.648>
AnchorPoint: "BelowBase" -176.067 -85 mark 0
LayerCount: 2
Fore
SplineSet
-617 -85 m 0
 -515.4 -85 -490 -140.163 -490 -211 c 0
 -490 -237 -494 -268 -501 -299 c 2
 -529 -435 l 1
 -384 -435 l 1
 -312 -96 l 1
 -178 -96 l 1
 -272 -534 l 1
 -682 -534 l 1
 -645 -360 l 1
 -664 -376 -686 -376 -715 -376 c 0
 -770 -376 -807 -333 -807 -274 c 0
 -807 -188.9 -731 -85 -617 -85 c 0
-684 -307 m 0
 -621.6 -307 -606 -231.7 -606 -208 c 0
 -606 -179 -620 -163 -645 -163 c 0
 -690.559 -163 -728 -208.664 -728 -261 c 0
 -728 -289 -714 -307 -684 -307 c 0
EndSplineSet
Substitution2: "Thai Sara UU Mai Ek Reordering" uni0E48.low
Substitution2: "Thai Sara UU Mai Tho Reordering" uni0E49.low
Substitution2: "Thai Sara UU Mai Tri Reordering" uni0E4A.low
Substitution2: "Thai Sara UU Mai Chattawa Reordering" uni0E4B.low
Substitution2: "Thai Sara UU Thanthakhat Reordering" uni0E4C.low
Substitution2: "Thai Sara UU Nikhahit Reordering" uni0E4D
EndChar

StartChar: uni0E3A
Encoding: 3642 3642 181
Width: 0
Flags: W
AnchorPoint: "BelowBase" -171.816 -65 mark 0
LayerCount: 2
Fore
SplineSet
-424 -222 m 0
 -424 -144.825 -347.875 -60 -259 -60 c 0
 -193 -60 -149 -112 -149 -171 c 0
 -149 -244.618 -229.559 -330 -316 -330 c 0
 -378 -330 -424 -282 -424 -222 c 0
EndSplineSet
Substitution2: "Thai Phinthu Maitaikhu Reordering" uni0E47
Substitution2: "Thai Phinthu Mai Ek Reordering" uni0E48.low
Substitution2: "Thai Phinthu Mai Tho Reordering" uni0E49.low
Substitution2: "Thai Phinthu Mai Tri Reordering" uni0E4A.low
Substitution2: "Thai Phinthu Mai Chattawa Reordering" uni0E4B.low
Substitution2: "Thai Phinthu Thanthakhat Reordering" uni0E4C.low
Substitution2: "Thai Phinthu Nikhahit Reordering" uni0E4D
EndChar

StartChar: uni0E3F
Encoding: 3647 3647 182
Width: 1250
Flags: W
HStem: 0 170<384 541 690 856.891> 719 166<536 694 842 886.775> 1321 168<629 822>
VStem: 1061 207<360.346 650.02> 1131 215<1054.03 1277.71>
LayerCount: 2
Fore
SplineSet
969 1489 m 1xf0
 1241.63 1485.24 1346 1388.2 1346 1237 c 0xe8
 1346 1117.43 1298.47 1035.64 1241 965 c 0
 1182 892 1128 868 1059 827 c 1
 1181.78 790.017 1268 705.129 1268 551 c 0
 1268 297.411 1049.23 12.4272 653 2 c 1
 625 -133 l 1
 513 -133 l 1
 541 0 l 1
 152 0 l 1
 468 1489 l 1
 857 1489 l 1
 880 1595 l 1
 992 1595 l 1
 969 1489 l 1xf0
729 885 m 1
 822 1321 l 1
 629 1321 l 1
 536 885 l 1
 729 885 l 1
842 887 m 1
 901 888 958 906 1014 941 c 0
 1103.44 998.967 1131 1125.9 1131 1182 c 0
 1131 1304.12 1007.07 1312.68 933 1319 c 1
 842 887 l 1
577 170 m 1
 694 719 l 1
 501 719 l 1
 384 170 l 1
 577 170 l 1
690 174 m 1
 999.55 187.912 1061 418.458 1061 546 c 0xf0
 1061 615 1032 649 972 683 c 0
 932 706 876 717 805 717 c 1
 690 174 l 1
EndSplineSet
EndChar

StartChar: uni0E40
Encoding: 3648 3648 183
Width: 700
Flags: W
HStem: -11 108<360.605 505.035> 304 93<424.353 527.413> 1129 20G<406.758 571>
VStem: 210 148<99.5829 213.198> 531 96<153.093 299.483>
LayerCount: 2
Fore
SplineSet
627 258 m 0
 627 101.735 534.844 -11 377 -11 c 0
 266 -11 210 47 210 158 c 0
 210 187 214 221 222 258 c 2
 411 1149 l 1
 571 1149 l 1
 405 369 l 1
 426 388 453 397 487 397 c 0
 579 397 627 351 627 258 c 0
460 304 m 0
 373.381 304 358 184.212 358 158 c 0
 358 118 378 97 416 97 c 0
 518.025 97 531 195.533 531 235 c 0
 531 282 506 304 460 304 c 0
EndSplineSet
EndChar

StartChar: uni0E41
Encoding: 3649 3649 184
Width: 1320
Flags: W
HStem: -11 108<384.605 527.153 999.605 1143.38> 304 93<448.363 550.644 1063.36 1163.25> 1129 20G<430.758 595 1045.76 1210>
VStem: 234 148<99.5829 214.085> 555 98<151.963 299.504> 849 148<99.5829 214.085> 1169 96<154.138 300.218>
LayerCount: 2
Fore
SplineSet
653 255 m 0
 653 164 602 -11 401 -11 c 0
 290 -11 234 47 234 158 c 0
 234 187 238 221 246 258 c 2
 435 1149 l 1
 595 1149 l 1
 429 369 l 1
 450 388 477 397 511 397 c 0
 598 397 653 346 653 255 c 0
484 304 m 0
 403 304 382 195 382 158 c 0
 382 118 402 97 440 97 c 0
 542 97 555 193 555 234 c 0
 555 281 530 304 484 304 c 0
1265 252 m 0
 1265 102 1173 -11 1016 -11 c 0
 905 -11 849 47 849 158 c 0
 849 187 853 221 861 258 c 2
 1050 1149 l 1
 1210 1149 l 1
 1044 369 l 1
 1065 388 1092 397 1126 397 c 0
 1217 397 1265 345 1265 252 c 0
1099 304 m 0
 1018 304 997 195 997 158 c 0
 997 118 1017 97 1055 97 c 0
 1152 97 1169 189 1169 230 c 0
 1169 275 1146 304 1099 304 c 0
EndSplineSet
EndChar

StartChar: uni0E42
Encoding: 3650 3650 185
Width: 1100
Flags: W
HStem: -11 108<754.992 896.057> 304 93<819.965 922.24> 1595 148<1031.25 1352.25> 1696 148<651.843 949.721>
VStem: 605 147<98.7361 215.867> 817 162<1185.91 1339.58> 926 95<124.541 300.697>
LayerCount: 2
Fore
SplineSet
1021 253 m 0xda
 1021 138 971 -11 771 -11 c 0
 666 -11 605 47 605 163 c 0
 605 191 609 223 616 258 c 2
 801 1130 l 2
 812 1180 817 1217 817 1246 c 0
 817 1322 778 1341 692 1392 c 0
 629 1421 509 1442 330 1455 c 1
 391 1614 557 1844 823 1844 c 0xdc
 965 1844 1051 1743 1242 1743 c 0
 1320 1743 1386 1763 1439 1804 c 1
 1386 1656 l 1
 1320 1622 1249 1595 1178 1595 c 0xec
 1003 1595 922 1696 775 1696 c 0
 698 1696 628 1649 562 1560 c 1
 904 1513 979 1393 979 1261 c 0xdc
 979 1219 971 1175 962 1132 c 2
 799 369 l 1
 820 386 848 397 882 397 c 0
 984 397 1021 336 1021 253 c 0xda
854 304 m 0
 773 304 752 192 752 158 c 0
 752 118 772 97 810 97 c 0
 903 97 926 192 926 236 c 0xca
 926 278 904 304 854 304 c 0
EndSplineSet
EndChar

StartChar: uni0E43
Encoding: 3651 3651 186
Width: 1000
Flags: W
HStem: -11 108<728.097 869.158> 304 93<792.102 895.861> 1266 112<525.568 743.431> 1683 156<876 1015.13>
VStem: 376 137<1391.68 1551.68> 576 150<98.7091 213.119> 794 119<1425.54 1612.64> 899 95<159.63 300.91> 1079 144<1360.79 1624.52>
LayerCount: 2
Fore
SplineSet
376 1428 m 0xfe80
 376 1675 642 1839 877 1839 c 0
 1016 1839 1112 1795 1163 1720 c 0
 1204 1658 1223 1600 1223 1548 c 0
 1223 1191 969 1289 888 911 c 2
 772 369 l 1
 786 383 814 397 854 397 c 0
 948 397 994 353 994 261 c 0xfd80
 994 139 944 -11 744 -11 c 0
 630 -11 576 41 576 151 c 0
 576 182 580 218 589 258 c 2
 728 913 l 2
 811 1289 1079 1242 1079 1522 c 0
 1079 1653 931 1683 876 1683 c 1
 900 1646 913 1606 913 1563 c 0
 913 1450 806 1266 594 1266 c 0
 454 1266 376 1315 376 1428 c 0xfe80
827 304 m 0
 742 304 726 191 726 161 c 0
 726 119 747 97 783 97 c 0
 881 97 899 194 899 240 c 0
 899 281 879 304 827 304 c 0
621 1378 m 0
 767 1378 794 1493 794 1539 c 0xfe80
 794 1596 752 1629 666 1629 c 0
 528 1629 513 1507 513 1469 c 0
 513 1410 550 1378 621 1378 c 0
EndSplineSet
EndChar

StartChar: uni0E44
Encoding: 3652 3652 187
Width: 1030
Flags: W
HStem: -11 108<704.283 845.85> 304 93<770.227 871.139> 1326 114<424.208 553.093> 1694 145<772.668 926>
VStem: 245 149<1564.36 1779.7> 553 149<99.3929 212.478> 856 167<1612.03 1743> 875 96<157.017 300.084>
LayerCount: 2
Fore
SplineSet
971 256 m 0xfd
 971 145 922 -11 721 -11 c 0
 605 -11 553 45 553 151 c 0
 553 183 557 218 566 258 c 2
 850 1594 l 2
 854 1615 856 1632 856 1646 c 0
 856 1678 846 1694 824 1694 c 0
 792 1694 736 1607 689 1488 c 0
 654 1400 553 1326 450 1326 c 0
 382 1326 335 1351 309 1400 c 0
 283 1448 261 1577 245 1788 c 1
 394 1788 l 1
 406 1573 l 2
 411 1484 436 1440 480 1440 c 0
 587 1440 627 1680 717 1771 c 0
 757 1810 802 1839 877 1839 c 0
 975 1839 1023 1791 1023 1695 c 0xfe
 1023 1670 1020 1641 1013 1608 c 2
 749 369 l 1
 777 391 805 397 831 397 c 0
 924 397 971 349 971 256 c 0xfd
804 304 m 0
 719 304 702 190 702 158 c 0
 702 118 722 97 760 97 c 0
 852 97 875 192 875 232 c 0xfd
 875 277 851 304 804 304 c 0
EndSplineSet
EndChar

StartChar: uni0E45
Encoding: 3653 3653 188
Width: 1000
Flags: W
HStem: 1001 148<527.677 831.118>
VStem: 888 168<770.86 945.223>
LayerCount: 2
Fore
SplineSet
693 1149 m 0
 886 1149 1056 1090 1056 870 c 0
 1056 835 1052 796 1043 753 c 2
 802 -380 l 1
 642 -380 l 1
 878 729 l 2
 885 761 888 790 888 817 c 0
 888 938 817 1001 673 1001 c 0
 555 1001 467 934 410 811 c 1
 243 837 l 1
 267 895 386 1149 693 1149 c 0
EndSplineSet
EndChar

StartChar: uni0E46
Encoding: 3654 3654 189
Width: 1100
Flags: W
HStem: 512 95<418.342 563.334> 808 92<482 593.026>
VStem: 289 127<609.839 781.411> 596 104<669.958 804.381> 966 158<808.33 973.093>
LayerCount: 2
Fore
SplineSet
526 808 m 0
 438 808 416 720 416 673 c 0
 416 633 434 607 481 607 c 0
 573 607 596 710 596 743 c 0
 596 786 568 808 526 808 c 0
700 783 m 0
 700 705 651 512 449 512 c 0
 335 512 289 573 289 668 c 0
 289 789 356 1038 642 1155 c 1
 642 1153 688 1117 778 1047 c 1
 945 1155 l 1
 1085 1131 1124 986 1124 873 c 0
 1124 841 1121 812 1116 789 c 2
 869 -374 l 1
 709 -374 l 1
 962 817 l 2
 965 830 966 843 966 856 c 0
 966 910 944 962 908 985 c 1
 744 887 l 1
 605 985 l 1
 574 966 548 935 527 892 c 1
 545 899 562 900 582 900 c 0
 658 900 700 861 700 783 c 0
EndSplineSet
EndChar

StartChar: uni0E47
Encoding: 3655 3655 190
Width: 0
Flags: W
HStem: 1284 124<-318.627 -158.296> 1372 152<-505.036 -369.368> 1583 53<-181.888 -62.0525> 1660 118<-487.306 -163.714>
VStem: -720 151<1440.44 1587.12> -254 62<1461.42 1575.58> -60 86<1468.28 1581.33>
AnchorPoint: "AboveBase" -29.1934 1227 mark 0
LayerCount: 2
Fore
SplineSet
-135 1460 m 0x3e
 -90 1460 -60 1495 -60 1534 c 0
 -60 1564 -82 1583 -117 1583 c 0
 -162 1583 -192 1538 -192 1505 c 0
 -192 1477 -169 1460 -135 1460 c 0x3e
-275 1660 m 0
 -522.094 1660 -569 1554.4 -569 1484 c 0
 -569 1456 -558 1430 -535 1430 c 1
 -523 1470 -498 1524 -430 1524 c 0x7e
 -357 1524 -327 1408 -195 1408 c 0
 -180 1408 -166 1411 -154 1417 c 1
 -234 1417 -254 1460 -254 1497 c 0
 -254 1576 -178 1636 -104 1636 c 0
 16 1636 26 1572 26 1514 c 0
 26 1414 -61 1284 -195 1284 c 0xbe
 -380 1284 -385 1372 -462 1372 c 0x7e
 -504 1372 -509 1298 -522 1284 c 1xbe
 -663 1284 -720 1365 -720 1457 c 0
 -720 1580 -632 1778 -263 1778 c 0
 -173 1778 -55 1786 6 1894 c 1
 148 1894 l 1
 128 1804 -5 1700 -103 1675 c 0
 -137 1666 -194 1660 -275 1660 c 0
EndSplineSet
Substitution2: "Thai Mark High Variant" uni0E47.high
Substitution2: "Thai Phinthu Maitaikhu Reordering" uni0E3A
EndChar

StartChar: uni0E48
Encoding: 3656 3656 191
Width: 0
Flags: W
VStem: 55 202<1826 2106>
AnchorPoint: "AboveMark" 107.849 1740 mark 0
LayerCount: 2
Fore
SplineSet
115 2106 m 1
 257 2106 l 1
 197 1826 l 1
 55 1826 l 1
 115 2106 l 1
EndSplineSet
MultipleSubs2: "Thai Tone Nikhahit Attachment" uni0E4D uni0E48
Substitution2: "Thai Tone Low Variant" uni0E48.low
Substitution2: "Thai Sara U Mai Ek Reordering" uni0E38
Substitution2: "Thai Sara UU Mai Ek Reordering" uni0E39
Substitution2: "Thai Phinthu Mai Ek Reordering" uni0E3A
EndChar

StartChar: uni0E49
Encoding: 3657 3657 192
Width: 0
Flags: W
HStem: 1882 63<-174.934 -99.1072> 2102 68<-158.669 -19.4182>
VStem: -253 75<1949.27 2081.18> -16 98<1964.68 2099.01>
AnchorPoint: "AboveMark" 83.8486 1740 mark 0
LayerCount: 2
Fore
SplineSet
-253 1989 m 0
 -253 2076 -175 2170 -78 2170 c 0
 27 2170 82 2119 82 2045 c 0
 82 1996 48 1903 -4 1848 c 1
 244 1934 351 2096 383 2156 c 1
 525 2156 l 1
 394 1869 32 1703 -229 1703 c 1
 -212 1783 l 1
 -159 1798 -115 1831 -87 1893 c 1
 -105 1886 -124 1882 -143 1882 c 0
 -208 1882 -253 1925 -253 1989 c 0
-78 2102 m 0
 -116 2102 -178 2063 -178 2008 c 0
 -178 1973 -151 1945 -112 1945 c 0
 -73 1945 -16 1987 -16 2040 c 0
 -16 2077 -47 2102 -78 2102 c 0
EndSplineSet
MultipleSubs2: "Thai Tone Nikhahit Attachment" uni0E4D uni0E49
Substitution2: "Thai Tone Low Variant" uni0E49.low
Substitution2: "Thai Sara U Mai Tho Reordering" uni0E38
Substitution2: "Thai Sara UU Mai Tho Reordering" uni0E39
Substitution2: "Thai Phinthu Mai Tho Reordering" uni0E3A
EndChar

StartChar: uni0E4A
Encoding: 3658 3658 193
Width: 0
Flags: MW
HStem: 1668 68<-373 -205.205> 1856 58<-305.004 -196.946> 2020 134<-218 -189>
VStem: -478 127<1821 1952.62> -196 57<1751.31 1855.66> 123 129<1856.78 2008.21>
AnchorPoint: "AboveMark" -88.1514 1740 mark 0
LayerCount: 2
Fore
SplineSet
-271 1736 m 0
 -226 1736 -196 1779 -196 1810 c 0
 -196 1835 -215 1856 -243 1856 c 0
 -302 1856 -317 1801 -317 1778 c 0
 -317 1753 -300 1736 -271 1736 c 0
-139 1828 m 0
 -139 1779 -176 1668 -321 1668 c 0
 -425 1668 -478 1726 -478 1821 c 0
 -478 2021 -287 2120 -189 2154 c 1
 -74 2036 l 1
 93 2154 l 1
 194 2118 252 2013 252 1921 c 0
 252 1889 245 1866 236 1839 c 1
 451 2169 l 1
 586 2169 l 1
 385 1832 l 2
 300 1685 88 1672 30 1672 c 1
 89 1739 123 1817 123 1890 c 0
 123 1948 101 1994 64 2020 c 1
 -103 1902 l 1
 -136 1937 -182 1993 -218 2020 c 1
 -274 1999 -351 1931 -351 1837 c 1
 -351 1837 -320 1914 -228 1914 c 0
 -169 1914 -139 1875 -139 1828 c 0
EndSplineSet
MultipleSubs2: "Thai Tone Nikhahit Attachment" uni0E4D uni0E4A
Substitution2: "Thai Tone Low Variant" uni0E4A.low
Substitution2: "Thai Sara U Mai Tri Reordering" uni0E38
Substitution2: "Thai Sara UU Mai Tri Reordering" uni0E39
Substitution2: "Thai Phinthu Mai Tri Reordering" uni0E3A
EndChar

StartChar: uni0E4B
Encoding: 3659 3659 194
Width: 0
Flags: W
HStem: 1812 142<-175 -63 109 221>
VStem: -205 456<1812 1954>
AnchorPoint: "AboveMark" -28.4072 1640 mark 0
LayerCount: 2
Fore
SplineSet
221 1812 m 1
 79 1812 l 1
 49 1670 l 1
 -93 1670 l 1
 -63 1812 l 1
 -205 1812 l 1
 -175 1954 l 1
 -33 1954 l 1
 -2 2096 l 1
 140 2096 l 1
 109 1954 l 1
 251 1954 l 1
 221 1812 l 1
EndSplineSet
MultipleSubs2: "Thai Tone Nikhahit Attachment" uni0E4D uni0E4B
Substitution2: "Thai Tone Low Variant" uni0E4B.low
Substitution2: "Thai Sara U Mai Chattawa Reordering" uni0E38
Substitution2: "Thai Sara UU Mai Chattawa Reordering" uni0E39
Substitution2: "Thai Phinthu Mai Chattawa Reordering" uni0E3A
EndChar

StartChar: uni0E4C
Encoding: 3660 3660 195
Width: 0
Flags: W
HStem: 1621 84<-117.107 45.5932>
VStem: -237 112<1714.62 1838.68> 71 105<1730.92 1879.56>
AnchorPoint: "AboveMark" -19.1514 1740 mark 0
LayerCount: 2
Fore
SplineSet
176 1831 m 0
 176 1723.8 75.7773 1621 -44 1621 c 0
 -163 1621 -237 1682 -237 1769 c 0
 -237 1793.34 -229.489 1889.43 -134 1969 c 0
 -33.122 2056.2 218.056 2023.33 334 2169 c 1
 489 2169 l 1
 461.329 2103.28 293.921 1978.46 92 1942 c 1
 148 1931 176 1887 176 1831 c 0
-42 1705 m 0
 9.65517 1705 71 1752.08 71 1819 c 0
 71 1863 38 1885 -8 1885 c 0
 -93.2188 1885 -125 1810.19 -125 1777 c 0
 -125 1735 -85 1705 -42 1705 c 0
EndSplineSet
MultipleSubs2: "Thai Tone Nikhahit Attachment" uni0E4D uni0E4C
Substitution2: "Thai Tone Low Variant" uni0E4C.low
Substitution2: "Thai Sara U Thanthakhat Reordering" uni0E38
Substitution2: "Thai Sara UU Thanthakhat Reordering" uni0E39
Substitution2: "Thai Phinthu Thanthakhat Reordering" uni0E3A
EndChar

StartChar: uni0E4D
Encoding: 3661 3661 196
Width: 0
Flags: W
HStem: 1212 138<-74.3025 79.0165> 1521 147<-55.6425 96.288>
VStem: -228 150<1353.46 1500.16> 101 145<1373.22 1517.08>
AnchorPoint: "AboveMark" 107.849 1740 basemark 0
AnchorPoint: "AboveBase" 120.807 1227 mark 0
LayerCount: 2
Fore
SplineSet
-228 1378 m 0
 -228 1512.21 -131.212 1668 56 1668 c 0
 178 1668 246 1601 246 1498 c 0
 246 1409.95 188.6 1212 -41 1212 c 0
 -157 1212 -228 1271 -228 1378 c 0
-8 1350 m 0
 62.6125 1350 101 1410.59 101 1458 c 0
 101 1498 72 1521 28 1521 c 0
 -46.3441 1521 -78 1457.2 -78 1412 c 0
 -78 1372 -53 1350 -8 1350 c 0
EndSplineSet
Substitution2: "Thai Mark High Variant" uni0E4D.high
Substitution2: "Thai Sara U Nikhahit Reordering" uni0E38
Substitution2: "Thai Sara UU Nikhahit Reordering" uni0E39
Substitution2: "Thai Phinthu Nikhahit Reordering" uni0E3A
EndChar

StartChar: uni0E4E
Encoding: 3662 3662 197
Width: 0
Flags: W
HStem: 1444 110<-66.4244 88 88 172> 1686 112<1.95435 190> 1925 111<7.14565 227.625>
VStem: -202 127<1576.19 1665.31> -125 124<1809.66 1909.91>
AnchorPoint: "AboveBase" -140 1227 mark 0
LayerCount: 2
Fore
SplineSet
-125 1841 m 0xe8
 -125 1919 -55 2036 154 2036 c 0
 210 2036 267 2028 326 2013 c 1
 302 1901 l 1
 242 1917 188 1925 139 1925 c 0
 17 1925 -1 1883 -1 1855 c 0xe8
 -1 1817 47 1798 144 1798 c 2
 214 1798 l 1
 190 1686 l 1
 125 1686 l 2
 -48 1686 -75 1646 -75 1619 c 0
 -75 1580 5 1554 117 1554 c 2
 195 1554 l 1
 172 1444 l 1
 88 1444 l 2
 -138 1444 -202 1534 -202 1595 c 0xf0
 -202 1657 -139 1725 -64 1743 c 1
 -105 1767 -125 1799 -125 1841 c 0xe8
EndSplineSet
EndChar

StartChar: uni0E4F
Encoding: 3663 3663 198
Width: 1250
Flags: W
HStem: -21 121<461.187 826.439> 258 103<591.564 813.116> 658 105<635.926 859.789> 917 123<619.694 989.392>
VStem: 192 113<257.007 539.305> 465 103<385.647 591.866> 882 103<429.386 634.906> 1146 112<410.081 760.64>
LayerCount: 2
Fore
SplineSet
638 100 m 0
 899 100 1146 334 1146 594 c 0
 1146 782 1008 917 812 917 c 0
 549 917 305 680 305 421 c 0
 305 231 446 100 638 100 c 0
757 658 m 0
 649 658 568 570 568 474 c 0
 568 405 618 361 694 361 c 0
 800 361 882 448 882 544 c 0
 882 613 833 658 757 658 c 0
1258 628 m 0
 1258 290 947 -21 612 -21 c 0
 337 -21 192 185 192 392 c 0
 192 461 206 691 438 884 c 0
 561 988 694 1040 837 1040 c 0
 1112 1040 1258 837 1258 628 c 0
985 569 m 0
 985 416 855 258 671 258 c 0
 541 258 465 338 465 451 c 0
 465 605 592 763 778 763 c 0
 908 763 985 684 985 569 c 0
EndSplineSet
EndChar

StartChar: uni0E50
Encoding: 3664 3664 199
Width: 1250
Flags: W
HStem: -10 173<507.355 834.559> 751 173<618.361 943.58>
VStem: 236 176<255.322 552.87> 1042 178<364.802 653.446>
LayerCount: 2
Fore
SplineSet
785 751 m 0
 594 751 412 583 412 393 c 0
 412 253 518 163 660 163 c 0
 856 163 1042 330 1042 516 c 0
 1042 645 948 751 785 751 c 0
1220 555 m 0
 1220 267 936 -10 620 -10 c 0
 394 -10 236 135 236 353 c 0
 236 646 509 924 818 924 c 0
 1058 924 1220 769 1220 555 c 0
EndSplineSet
EndChar

StartChar: uni0E51
Encoding: 3665 3665 200
Width: 1300
Flags: W
HStem: -10 155<410.065 800.758> 203 159<532.9 720.614> 409 76<700.252 769> 603 84<706.648 825.228> 765 159<639.068 964.016>
VStem: 320 180<395.095 630.028> 601 99<486.064 595.442> 827 131<493.939 600.901> 1041 175<367.314 687.755>
LayerCount: 2
Fore
SplineSet
320 471 m 0
 320 705 538 924 808 924 c 0
 1127 924 1216 748 1216 575 c 0
 1216 242 962 -10 581 -10 c 0
 418 -10 284 34 209 115 c 1
 325 254 l 1
 391 186 475 145 612 145 c 0
 803 145 1041 284 1041 549 c 0
 1041 692 954 765 786 765 c 0
 629 765 500 632 500 495 c 0
 500 409 560 362 650 362 c 0
 695 362 748 380 756 421 c 1
 744 413 727 409 707 409 c 0
 636 409 601 445 601 506 c 0
 601 620 696 687 799 687 c 0
 908 687 958 621 958 528 c 0
 958 346 799 203 615 203 c 0
 451 203 320 299 320 471 c 0
773 603 m 0
 739 603 700 573 700 532 c 0
 700 505 719 485 750 485 c 0
 788 485 827 520 827 562 c 0
 827 588 806 603 773 603 c 0
EndSplineSet
EndChar

StartChar: uni0E52
Encoding: 3666 3666 201
Width: 1350
Flags: W
HStem: 0 174<521.641 534 619 1078> 343 110<700.937 818.008>
VStem: 294 193<207.487 501.676> 316 194<914.307 1108.58> 350 181<384.224 982.379> 570 129<454.046 546.804> 826 113<460.229 569.936> 1158 177<533.85 722.96>
LayerCount: 2
Fore
SplineSet
772 571 m 0xc7
 713 571 699 523 699 500 c 0
 699 473 718 453 749 453 c 0
 799 453 826 497 826 525 c 0
 826 549 807 571 772 571 c 0xc7
1132 924 m 1
 1183 914 1335 816 1335 623 c 0
 1335 588 1331 549 1322 506 c 2
 1214 0 l 1
 534 0 l 18
 444 0 400 36 347 92 c 0
 308 133 294 186 294 252 c 0xe7
 294 386 350 572 350 815 c 0xcf
 350 912 341 1019 316 1134 c 1
 510 1134 l 1xd7
 524 1055 531 967 531 869 c 0xcf
 531 633 487 383 487 314 c 0xe7
 487 216 560 174 619 174 c 2
 1078 174 l 1
 1149 506 l 2
 1155 536 1158 563 1158 587 c 0
 1158 676 1121 722 1094 744 c 1
 1094 743 1054 720 975 674 c 1
 876 744 l 1
 849 733 823 711 797 679 c 1
 824 679 l 18
 875 679 939 630 939 547 c 0
 939 448 846 343 732 343 c 0
 623 343 570 415 570 509 c 0
 570 548 577 661 694 790 c 0
 732 832 848 906 914 924 c 1
 914 923 946 892 1009 831 c 1
 1132 924 l 1
EndSplineSet
EndChar

StartChar: uni0E53
Encoding: 3667 3667 202
Width: 1400
Flags: W
HStem: -11 103<345.822 462.495> 210 122<396.405 467.292> 753 171<460.554 671.431 1027.5 1224.55>
VStem: 190 172<315.849 474.977> 469 121<116.562 207.776> 1249 174<387.786 732.524>
LayerCount: 2
Fore
SplineSet
415 210 m 0
 397 210 345 195 345 137 c 0
 345 107 363 92 398 92 c 0
 463 92 469 151 469 164 c 0
 469 190 448 210 415 210 c 0
590 199 m 0
 590 123 528 -11 392 -11 c 0
 286 -11 241 15 218 94 c 0
 200 155 190 254 190 354 c 0
 190 428 196 503 208 561 c 0
 252 768 388 924 599 924 c 0
 748 924 835 862 868 768 c 1
 938 856 1035 924 1163 924 c 0
 1334 924 1423 834 1423 655 c 0
 1423 428 1291 138 1229 0 c 1
 1053 0 l 1
 1186 318 1249 475 1249 609 c 0
 1249 698 1214 753 1143 753 c 0
 1048 753 965 664 928 570 c 0
 887 465 845 333 820 216 c 1
 690 216 l 1
 718 351 719 567 719 578 c 0
 719 661 670 753 572 753 c 0
 483 753 409 680 391 597 c 0
 374 520 362 450 362 385 c 0
 362 361 364 337 368 314 c 1
 395 326 425 332 454 332 c 0
 538 332 590 275 590 199 c 0
EndSplineSet
EndChar

StartChar: uni0E54
Encoding: 3668 3668 203
Width: 1550
Flags: W
HStem: -6 164<483.819 759.016> 313 115<1105 1203.97> 580 112<1083.42 1217.32> 762 162<595.5 1314.51>
VStem: 216 177<248.97 560.931> 906 160<362.625 559.448> 1221 117<444.237 576.653>
LayerCount: 2
Fore
SplineSet
1338 541 m 0
 1338 432 1229 313 1105 313 c 1
 1175 223 1306 259 1413 145 c 1
 1253 -2 l 1
 1205 49 1161 76 1046 76 c 0
 945 76 675 -6 579 -6 c 0
 362 -6 216 160 216 369 c 0
 216 591 384 924 868 924 c 2
 1114 924 l 2
 1326 924 1470 1037 1546 1262 c 1
 1730 1262 l 1
 1630 931 1403 762 1075 762 c 2
 815 762 l 2
 451 762 393 492 393 392 c 0
 393 258 484 158 624 158 c 0
 685 158 808 182 991 231 c 1
 949 266 906 340 906 417 c 0
 906 515 989 692 1183 692 c 0
 1274 692 1338 626 1338 541 c 0
1159 580 m 0
 1106 580 1066 530 1066 487 c 0
 1066 454 1092 428 1127 428 c 0
 1171 428 1221 470 1221 518 c 0
 1221 553 1196 580 1159 580 c 0
EndSplineSet
EndChar

StartChar: uni0E55
Encoding: 3669 3669 204
Width: 1550
Flags: W
HStem: -6 164<486.546 760.067> 313 115<1105 1204.41> 580 112<1082 1216.36> 762 160<597.402 814 928.905 1063.93> 1073 113<946.916 1075.32>
VStem: 217 177<251.003 562.241> 810 117<932.831 1054.23> 906 160<362.625 556.725> 1080 119<964.147 1069.73> 1220 118<444.185 575.869>
LayerCount: 2
Fore
SplineSet
1338 540 m 0xfdc0
 1338 432 1230 313 1105 313 c 1
 1176 222 1304 259 1411 145 c 1
 1253 -2 l 1
 1205 49 1156 76 1046 76 c 0
 945 76 681 -6 579 -6 c 0
 368 -6 217 162 217 373 c 0
 217 643 456 922 814 922 c 1
 812 935 810 948 810 960 c 0xfec0
 810 1075 928 1186 1045 1186 c 0
 1139 1186 1199 1114 1199 1032 c 0
 1199 1000 1189 963 1166 926 c 1
 1351 945 1478 1057 1546 1262 c 1
 1730 1262 l 1
 1630 931 1403 762 1075 762 c 2
 815 762 l 2
 455 762 394 497 394 396 c 0
 394 259 491 158 624 158 c 0
 685 158 808 182 991 231 c 1
 949 266 906 340 906 417 c 0
 906 535 1017 692 1183 692 c 0
 1274 692 1338 624 1338 540 c 0xfdc0
1021 1073 m 0
 977 1073 927 1022 927 982 c 0
 927 949 954 922 989 922 c 0
 1014 922 1080 958 1080 1007 c 0
 1080 1043 1045 1073 1021 1073 c 0
1159 580 m 0
 1106 580 1066 530 1066 487 c 0xfdc0
 1066 454 1092 428 1127 428 c 0
 1169 428 1220 467 1220 515 c 0
 1220 549 1194 580 1159 580 c 0
EndSplineSet
EndChar

StartChar: uni0E56
Encoding: 3670 3670 205
Width: 1300
Flags: W
HStem: -16 155<625.495 924.739> 215 115<601 698.651> 481 113<580.484 713.893> 760 168<684.148 1004.84>
VStem: 393 168<239.956 437.155> 717 114<347.257 477.877> 1121 180<338.186 650.985>
LayerCount: 2
Fore
SplineSet
749 139 m 0
 969 139 1121 321 1121 511 c 0
 1121 663 1010 760 815 760 c 0
 702 760 597 741 497 702 c 1
 448 945 375 1131 280 1262 c 1
 528 1262 l 1
 580 1141 607 1015 610 885 c 1
 692 914 772 928 850 928 c 0
 1129 928 1301 780 1301 548 c 0
 1301 254 1058 -16 716 -16 c 0
 513 -16 393 116 393 272 c 0
 393 427 513 594 677 594 c 0
 766 594 831 532 831 446 c 0
 831 345 735 215 601 215 c 1
 612 176 688 139 749 139 c 0
655 481 m 0
 606 481 561 432 561 389 c 0
 561 356 589 330 623 330 c 0
 662 330 717 367 717 419 c 0
 717 454 691 481 655 481 c 0
EndSplineSet
EndChar

StartChar: uni0E57
Encoding: 3671 3671 206
Width: 1540
Flags: W
HStem: -16 112<355.448 490.336> 0 178<1080 1236.7> 248 114<397.181 503.972> 760 164<501.905 624.208 883.052 1013.92>
VStem: 197 155<99.2776 268.5> 507 118<112.891 246.208> 1022 176<477.832 754.948>
LayerCount: 2
Fore
SplineSet
625 213 m 0x7e
 625 98 516 -16 390 -16 c 0xbe
 305 -16 197 32 197 242 c 0
 197 295 204 359 220 436 c 0
 289 761 416 924 602 924 c 0
 694 924 749 875 767 776 c 1
 829 875 904 924 995 924 c 0
 1130 924 1198 837 1198 664 c 0
 1198 537 1165 354 1080 178 c 1
 1095 178 l 2
 1210 178 1278 231 1301 338 c 2
 1469 1130 l 1
 1657 1130 l 1
 1488 334 l 2
 1441 111 1297 0 1057 0 c 2
 791 0 l 1
 793 10 l 1
 853 81 958 276 992 436 c 0
 1010 522 1022 596 1022 652 c 0
 1022 720 1005 760 961 760 c 0
 887 760 829 662 787 467 c 1
 613 467 l 1
 628 539 636 598 636 643 c 0
 636 721 613 760 568 760 c 0
 444 760 383 376 383 348 c 1
 405 357 435 362 472 362 c 0
 570 362 625 294 625 213 c 0x7e
446 248 m 0
 403 248 352 211 352 156 c 0
 352 122 374 96 413 96 c 0
 463 96 507 143 507 189 c 0
 507 222 484 248 446 248 c 0
EndSplineSet
EndChar

StartChar: uni0E58
Encoding: 3672 3672 207
Width: 1580
Flags: W
HStem: -12 165<1094.59 1288.9> 0 170<461.501 568> 283 166<760.543 852.611> 309 115<1233.79 1339.37> 575 113<1247.57 1385.39>
VStem: 214 179<242.119 508.142> 1116 116<427.762 558.674> 1388 161<360.326 571.432>
LayerCount: 2
Fore
SplineSet
1549 470 m 0x9f
 1549 298 1422 -12 1152 -12 c 0x9f
 934 -12 869 283 803 283 c 0
 774 283 750 236 730 141 c 2
 700 0 l 1
 575 0 l 2
 356 0 214 141 214 354 c 0
 214 526 307 886 808 917 c 0
 1124 937 1461 875 1546 1262 c 1
 1730 1262 l 1
 1602 841 1317 789 1144 776 c 0
 813 751 480 832 401 461 c 0
 396 436 393 412 393 389 c 0
 393 259 475 170 568 170 c 1
 598 312 681 449 808 449 c 0x6f
 913 449 972 369 1024 287 c 0
 1084 203 1084 168 1188 154 c 0
 1191 154 1195 153 1198 153 c 0
 1253 153 1333 214 1357 324 c 1
 1336 314 1306 309 1268 309 c 0
 1173 309 1116 376 1116 460 c 0
 1116 580 1232 688 1350 688 c 0
 1476 688 1549 602 1549 470 c 0x9f
1326 575 m 0
 1269 575 1232 526 1232 482 c 0
 1232 449 1256 424 1294 424 c 0
 1339 424 1388 461 1388 517 c 0
 1388 551 1367 575 1326 575 c 0
EndSplineSet
EndChar

StartChar: uni0E59
Encoding: 3673 3673 208
Width: 1500
Flags: W
HStem: -16 112<355.724 490.164> 248 114<396.886 503.69> 555 166<1215.95 1313.67> 760 164<532.762 690.791 971.398 1134.84>
VStem: 197 155<99.3124 340.506> 507 118<112.68 244.183>
LayerCount: 2
Fore
SplineSet
197 242 m 0
 197 424 289 924 663 924 c 0
 766 924 835 875 867 776 c 1
 931 875 998 924 1070 924 c 0
 1197 924 1199 721 1257 721 c 0
 1316 721 1382 857 1454 1130 c 1
 1639 1130 l 1
 1578 899 1471 555 1238 555 c 0
 1077 555 1090 760 1036 760 c 0
 1002 760 955 708 896 604 c 1
 999 0 l 1
 825 0 l 1
 737 546 l 2
 701 754 662 760 629 760 c 0
 441 760 383 396 383 348 c 1
 405 357 435 362 472 362 c 0
 570 362 625 294 625 213 c 0
 625 95 514 -16 390 -16 c 0
 305 -16 197 32 197 242 c 0
446 248 m 0
 406 248 352 210 352 158 c 0
 352 123 377 96 413 96 c 0
 465 96 507 147 507 187 c 0
 507 221 481 248 446 248 c 0
EndSplineSet
EndChar

StartChar: uni0E5A
Encoding: 3674 3674 209
Width: 1400
Flags: W
HStem: 0 21G<865 1029.25 1093 1257.25> 655 148<599 842.725> 1005 104<454.305 604.401>
VStem: 316 121<840.081 962.954> 606 127<917.152 1001.96>
LayerCount: 2
Fore
SplineSet
733 971 m 0
 733 932 720 839 633 803 c 1
 837 803 1063 933 1103 1120 c 1
 1263 1120 l 1
 1025 0 l 1
 865 0 l 1
 1035 801 l 1
 922 713 769 655 599 655 c 0
 446 655 316 728 316 867 c 0
 316 1011 434 1109 566 1109 c 0
 675 1109 733 1055 733 971 c 0
541 1005 m 0
 458 1005 437 937 437 907 c 0
 437 869 462 837 493 837 c 0
 594 837 606 927 606 946 c 0
 606 980 583 1005 541 1005 c 0
1253 0 m 1
 1093 0 l 1
 1331 1120 l 1
 1491 1120 l 1
 1253 0 l 1
EndSplineSet
EndChar

StartChar: uni0E5B
Encoding: 3675 3675 210
Width: 2370
Flags: W
HStem: -10 158<489.217 848.192> 218 108<1964.84 2019 2019 2404> 272 158<657.145 843.084> 340 8<1690 1848> 462 88<655.058 757.645> 658 75<657.635 761.089> 812 174<595.931 844.775>
VStem: 224 157<255.1 517.138> 762 85<554.252 656.8> 934 168<531.99 761.854>
LayerCount: 2
Fore
SplineSet
745 812 m 0xafc0
 551 812 381 619 381 401 c 0
 381 217 533 148 639 148 c 0
 767 148 910 203 985 282 c 0
 1163 471 1182 615 1282 615 c 0
 1346 615 1359 559 1359 498 c 0
 1359 460 1354 421 1354 393 c 0
 1354 371 1357 357 1368 357 c 0
 1410 357 1454 494 1465 518 c 0
 1487 568 1526 615 1588 615 c 0
 1708 615 1618 348 1690 348 c 0
 1744 348 1769 507 1868 507 c 0
 1946 507 1917 326 2048 326 c 2
 2427 326 l 1
 2404 218 l 1
 2019 218 l 2
 1887 218 1866 340 1848 340 c 0xdfc0
 1805 340 1725 94 1620 94 c 0
 1533 94 1573 351 1525 351 c 0
 1482 351 1410 88 1311 88 c 0
 1241 88 1225 137 1225 318 c 0
 1225 330 1227 352 1227 364 c 0
 1227 371 1227 375 1225 375 c 0
 1195 375 1174 274 1033 138 c 0
 925 33 790 -10 602 -10 c 0
 390 -10 224 147 224 375 c 0
 224 409 228 446 236 483 c 0
 320 882 646 986 788 986 c 0
 1033 986 1102 848 1102 710 c 0
 1102 434 857 272 670 272 c 0
 527 272 479 372 479 438 c 0
 479 587 607 733 717 733 c 0
 801 733 847 686 847 626 c 0
 847 536 758 462 682 462 c 8
 664 462 640 471 640 471 c 1
 645 438 695 430 731 430 c 0
 866 430 934 589 934 667 c 0
 934 707 919 733 901 757 c 0
 876 790 797 812 745 812 c 0xafc0
697 550 m 0
 736 550 762 584 762 617 c 0
 762 641 747 658 718 658 c 0
 678 658 651 621 651 591 c 0
 651 567 668 550 697 550 c 0
EndSplineSet
EndChar

StartChar: zerowidthjoiner
Encoding: 8205 8205 212
Width: 0
Flags: W
LayerCount: 2
Back
SplineSet
-22 -275 m 1
 -94 -275 l 1
 201 1114 l 1
 38 978 l 1
 -1 1027 l 1
 206 1196 l 1
 71 1364 l 1
 130 1413 l 1
 264 1242 l 1
 470 1413 l 1
 509 1364 l 1
 302 1196 l 1
 437 1027 l 1
 378 978 l 1
 273 1114 l 1
 -22 -275 l 1
EndSplineSet
EndChar

StartChar: afii299
Encoding: 8206 8206 213
Width: 0
Flags: W
LayerCount: 2
Back
SplineSet
685 1198 m 1
 422 984 l 1
 384 1033 l 1
 548 1163 l 1
 282 1163 l 1
 -23 -275 l 1
 -94 -275 l 1
 226 1234 l 1
 563 1234 l 1
 454 1364 l 1
 513 1413 l 1
 685 1198 l 1
EndSplineSet
EndChar

StartChar: afii300
Encoding: 8207 8207 214
Width: 0
Flags: W
LayerCount: 2
Back
SplineSet
-23 -275 m 1
 -94 -275 l 1
 211 1163 l 1
 -55 1163 l 1
 55 1033 l 1
 -5 984 l 1
 -176 1198 l 1
 86 1413 l 1
 125 1364 l 1
 -40 1234 l 1
 297 1234 l 1
 -23 -275 l 1
EndSplineSet
EndChar

StartChar: uni2010
Encoding: 8208 8208 215
Width: 973
Flags: W
HStem: 580 165<348 938>
VStem: 313 660<580 745>
LayerCount: 2
Fore
SplineSet
348 745 m 1
 973 745 l 1
 938 580 l 1
 313 580 l 1
 348 745 l 1
EndSplineSet
EndChar

StartChar: endash
Encoding: 8211 8211 216
Width: 1125
Flags: W
HStem: 572 160<152 1244>
LayerCount: 2
Fore
SplineSet
1244 572 m 1
 118 572 l 1
 152 732 l 1
 1278 732 l 1
 1244 572 l 1
EndSplineSet
EndChar

StartChar: emdash
Encoding: 8212 8212 217
Width: 1886
Flags: W
HStem: 572 160<152 1988>
LayerCount: 2
Fore
SplineSet
1988 572 m 1
 118 572 l 5
 152 732 l 5
 2022 732 l 1
 1988 572 l 1
EndSplineSet
EndChar

StartChar: horizontalbar
Encoding: 8213 8213 218
Width: 1862
Flags: W
HStem: 572 160<266 1874>
LayerCount: 2
Fore
SplineSet
1874 572 m 1
 232 572 l 1
 266 732 l 1
 1908 732 l 1
 1874 572 l 1
EndSplineSet
EndChar

StartChar: underscoredbl
Encoding: 8215 8215 219
Width: 1118
Flags: W
HStem: -423 130<-78 1044> -212 130<-33 1089>
LayerCount: 2
Fore
SplineSet
1089 -212 m 1
 -61 -212 l 1
 -33 -82 l 1
 1117 -82 l 1
 1089 -212 l 1
1044 -423 m 1
 -106 -423 l 1
 -78 -293 l 1
 1072 -293 l 1
 1044 -423 l 1
EndSplineSet
EndChar

StartChar: quoteleft
Encoding: 8216 8216 220
Width: 450
Flags: W
VStem: 267 280<997 1556>
LayerCount: 2
Fore
SplineSet
547 997 m 1
 409 997 l 1
 267 1556 l 1
 509 1556 l 1
 547 997 l 1
EndSplineSet
EndChar

StartChar: quoteright
Encoding: 8217 8217 221
Width: 580
Flags: W
HStem: 997 559<447 827>
VStem: 309 518<997 1556>
LayerCount: 2
Fore
SplineSet
827 1556 m 1
 447 997 l 1
 309 997 l 1
 585 1556 l 1
 827 1556 l 1
EndSplineSet
EndChar

StartChar: quotesinglbase
Encoding: 8218 8218 222
Width: 432
Flags: W
HStem: -276 559<66 446>
VStem: -72 518<-276 283>
LayerCount: 2
Fore
SplineSet
446 283 m 1
 66 -276 l 1
 -72 -276 l 1
 204 283 l 1
 446 283 l 1
EndSplineSet
EndChar

StartChar: quotereversed
Encoding: 8219 8219 223
Width: 432
Flags: W
HStem: 997 559<390 666>
VStem: 148 518<997 1556>
LayerCount: 2
Fore
SplineSet
666 1556 m 1
 390 997 l 1
 148 997 l 1
 528 1556 l 1
 666 1556 l 1
EndSplineSet
EndChar

StartChar: quotedblleft
Encoding: 8220 8220 224
Width: 850
Flags: W
VStem: 267 670<997 1556>
LayerCount: 2
Fore
SplineSet
937 997 m 1
 803 997 l 1
 661 1556 l 1
 899 1556 l 1
 937 997 l 1
543 997 m 1
 409 997 l 1
 267 1556 l 1
 505 1556 l 1
 543 997 l 1
EndSplineSet
EndChar

StartChar: quotedblright
Encoding: 8221 8221 225
Width: 1000
Flags: W
HStem: 997 559<847 1227>
VStem: 319 908<997 1556>
LayerCount: 2
Fore
SplineSet
1227 1556 m 1
 847 997 l 1
 713 997 l 1
 989 1556 l 1
 1227 1556 l 1
833 1556 m 1
 453 997 l 1
 319 997 l 1
 595 1556 l 1
 833 1556 l 1
EndSplineSet
EndChar

StartChar: quotedblbase
Encoding: 8222 8222 226
Width: 814
Flags: W
HStem: -276 559<461 841>
VStem: -67 908<-276 283>
LayerCount: 2
Fore
SplineSet
841 283 m 1
 461 -276 l 1
 327 -276 l 1
 603 283 l 1
 841 283 l 1
447 283 m 1
 67 -276 l 1
 -67 -276 l 1
 209 283 l 1
 447 283 l 1
EndSplineSet
EndChar

StartChar: dagger
Encoding: 8224 8224 227
Width: 1118
Flags: W
HStem: 1034 129<382 382 866 1203>
VStem: 355 875<1034 1163>
LayerCount: 2
Fore
SplineSet
1203 1034 m 1
 841 1039 l 1
 654 135 l 1
 522 135 l 1
 719 1039 l 1
 355 1034 l 1
 382 1163 l 1
 744 1158 l 1
 824 1556 l 1
 956 1556 l 1
 866 1158 l 1
 1230 1163 l 1
 1203 1034 l 1
EndSplineSet
EndChar

StartChar: daggerdbl
Encoding: 8225 8225 228
Width: 1118
Flags: W
HStem: 507 129<270 270 754 1091> 1049 119<384 721 868 1205>
VStem: 243 989<507 1173>
LayerCount: 2
Fore
SplineSet
1091 507 m 1
 729 512 l 1
 651 124 l 1
 519 124 l 1
 607 512 l 1
 243 507 l 1
 270 636 l 1
 632 631 l 1
 721 1049 l 1
 357 1044 l 1
 384 1173 l 1
 746 1168 l 1
 824 1556 l 1
 956 1556 l 1
 868 1168 l 1
 1232 1173 l 1
 1205 1044 l 1
 843 1049 l 1
 754 631 l 1
 1118 636 l 1
 1091 507 l 1
EndSplineSet
EndChar

StartChar: bullet
Encoding: 8226 8226 229
Width: 950
Flags: W
LayerCount: 2
Fore
SplineSet
966.27 738.566 m 0
 966.27 517.892 758.758 311 531 311 c 0
 340.171 311 246.275 452.963 246.275 584.716 c 0
 246.275 804.146 450.548 1013 680 1013 c 0
 870.415 1013 966.27 872.587 966.27 738.566 c 0
EndSplineSet
EndChar

StartChar: ellipsis
Encoding: 8230 8230 230
Width: 1650
Flags: W
HStem: 0 223<224 381 782 939 1340 1497>
LayerCount: 2
Fore
SplineSet
1497 0 m 1
 1293 0 l 1
 1340 223 l 1
 1544 223 l 1
 1497 0 l 1
939 0 m 1
 735 0 l 1
 782 223 l 1
 986 223 l 1
 939 0 l 1
381 0 m 1
 177 0 l 1
 224 223 l 1
 428 223 l 1
 381 0 l 1
EndSplineSet
EndChar

StartChar: perthousand
Encoding: 8240 8240 231
Width: 2848
Flags: W
HStem: -29 133<1459.17 1690.2 2303.17 2534.2> 634 133<509.314 741.199> 721 133<1574.56 1803.82 2418.56 2647.82> 1384 133<625.495 854.459>
VStem: 310.964 176.638<789.508 1078.82> 878.398 177.012<1073.07 1361.99> 1260.17 176.48<125.254 413.495> 1827.4 177.01<410.215 699.011> 2104.17 176.48<125.254 413.495> 2671.4 177.01<410.215 699.011>
LayerCount: 2
Fore
SplineSet
777 1517 m 0xdfc0
 999.728 1517 1055.41 1382.17 1055.41 1240.82 c 0
 1055.41 1123.01 1011.43 874.001 874 742 c 0
 798 670 704 634 590 634 c 0
 405.462 634 310.964 726.98 310.964 912.445 c 0
 310.964 1030.62 355.305 1276.7 492 1408 c 0
 569 1481 663 1517 777 1517 c 0xdfc0
1789 1489 m 1
 693 0 l 1
 528 0 l 1
 1624 1489 l 1
 1789 1489 l 1
1727 854 m 0xbfc0
 1948.93 854 2004.41 719.256 2004.41 577.823 c 0
 2004.41 461.036 1960.66 210.416 1823 80 c 0
 1747 7 1653 -29 1539 -29 c 0
 1397.66 -29 1260.17 26.3692 1260.17 247.846 c 0
 1260.17 363.969 1304.03 613.435 1441 745 c 0
 1518 818 1613 854 1727 854 c 0xbfc0
487.602 911.536 m 0
 487.602 818.957 513.682 767 618 767 c 0xdfc0
 714.552 767 799.114 805.658 858 1076 c 0
 871.51 1140.97 878.398 1196.02 878.398 1240.86 c 0
 878.398 1330.53 852.518 1384 749 1384 c 0
 652.6 1384 566.497 1343.55 508 1075 c 0
 494.49 1010.67 487.602 956.269 487.602 911.536 c 0
1436.65 247.757 m 0
 1436.65 156.105 1462.72 104 1567 104 c 0
 1663.55 104 1748.11 142.658 1807 413 c 0
 1820.51 477.975 1827.4 533.017 1827.4 577.861 c 0
 1827.4 667.535 1801.52 721 1698 721 c 0xbfc0
 1602 721 1513.58 679.329 1458 412 c 0
 1443.76 347.294 1436.65 292.637 1436.65 247.757 c 0
2571 854 m 0
 2792.93 854 2848.41 719.256 2848.41 577.823 c 0
 2848.41 461.036 2804.66 210.416 2667 80 c 0
 2591 7 2497 -29 2383 -29 c 0
 2241.66 -29 2104.17 26.3692 2104.17 247.846 c 0
 2104.17 363.969 2148.03 613.435 2285 745 c 0
 2362 818 2457 854 2571 854 c 0
2280.65 247.757 m 0
 2280.65 156.105 2306.72 104 2411 104 c 0
 2507.55 104 2592.11 142.658 2651 413 c 0
 2664.51 477.975 2671.4 533.017 2671.4 577.861 c 0
 2671.4 667.535 2645.52 721 2542 721 c 0
 2446 721 2357.58 679.329 2302 412 c 0
 2287.76 347.294 2280.65 292.637 2280.65 247.757 c 0
EndSplineSet
EndChar

StartChar: minute
Encoding: 8242 8242 232
Width: 602
Flags: W
HStem: 870 619<458 887>
VStem: 322 565<870 1489>
LayerCount: 2
Fore
SplineSet
887 1489 m 1
 458 870 l 1
 322 870 l 1
 647 1489 l 1
 887 1489 l 1
EndSplineSet
EndChar

StartChar: second
Encoding: 8243 8243 233
Width: 972
Flags: W
HStem: 870 619<454 883>
VStem: 322 955<870 1489>
LayerCount: 2
Fore
SplineSet
883 1489 m 1
 454 870 l 1
 322 870 l 1
 647 1489 l 1
 883 1489 l 1
1277 1489 m 1
 848 870 l 1
 716 870 l 1
 1041 1489 l 1
 1277 1489 l 1
EndSplineSet
EndChar

StartChar: guilsinglleft
Encoding: 8249 8249 234
Width: 784
Flags: W
HStem: 172 960<670 874>
VStem: 252 622<608 1132>
LayerCount: 2
Fore
SplineSet
670 172 m 1
 252 608 l 1
 271 697 l 1
 874 1132 l 1
 831 933 l 1
 441 652 l 1
 712 371 l 1
 670 172 l 1
EndSplineSet
EndChar

StartChar: guilsinglright
Encoding: 8250 8250 235
Width: 784
Flags: W
HStem: 172 960<188 392>
VStem: 188 621<172 697>
LayerCount: 2
Fore
SplineSet
790 608 m 1
 188 172 l 1
 230 371 l 1
 621 652 l 1
 349 933 l 1
 392 1132 l 1
 809 697 l 1
 790 608 l 1
EndSplineSet
EndChar

StartChar: uni203E
Encoding: 8254 8254 237
Width: 1118
Flags: W
HStem: 1658 131<332 1470>
LayerCount: 2
Fore
SplineSet
1470 1658 m 1
 304 1658 l 1
 332 1789 l 1
 1498 1789 l 1
 1470 1658 l 1
EndSplineSet
EndChar

StartChar: fraction
Encoding: 8260 8260 238
Width: 886
Flags: W
HStem: 0 21G<-29 150.721>
LayerCount: 2
Fore
SplineSet
1232 1489 m 1
 136 0 l 1
 -29 0 l 1
 1067 1489 l 1
 1232 1489 l 1
EndSplineSet
EndChar

StartChar: uni207F
Encoding: 8319 8319 239
Width: 1010
Flags: W
HStem: 1368 151<782.239 953.575>
VStem: 973.627 177.903<1198.39 1348.19>
LayerCount: 2
Fore
SplineSet
909 1519 m 0
 1103.02 1519 1151.53 1396.18 1151.53 1285.57 c 0
 1151.53 1249 1146.65 1208.16 1137 1163 c 2
 1010 566 l 1
 838 566 l 1
 949 1088 l 2
 966.028 1168.03 973.627 1217.4 973.627 1249.75 c 0
 973.627 1337.36 926.252 1368 832 1368 c 0
 778.2 1368 710.072 1355.11 563 1254 c 1
 416 566 l 1
 245 566 l 1
 441 1488 l 1
 612 1488 l 1
 591 1388 l 1
 758.333 1509.17 845.4 1519 909 1519 c 0
EndSplineSet
EndChar

StartChar: dottedcircle
Encoding: 9676 9676 240
Width: 1255
Flags: W
HStem: 7 121<570.737 680.933> 68 121<878.004 987.969> 98 121<325.183 413.107> 234 121<1078.75 1188.77> 249 121<214.547 324.484> 438 121<1197.77 1285.17> 445 121<134.605 244.811> 679 121<199.775 309.102 1234.77 1344.82> 868 121<346.004 455.969> 891 121<1172.74 1282.93> 1011 121<565.547 676.091> 1034 121<1015.19 1125.47> 1079 121<805.775 915.818>
VStem: 127.859 123.879<451.867 558.892> 192.262 124.452<686.149 792.993> 207.262 123.863<255.935 362.89> 318.236 123.905<104.966 212.381> 338.7 124.038<875.285 981.957> 558.262 123.879<13.8757 118.543 1017.59 1124.89> 798.262 124.476<1085.63 1192.99> 870.7 124.038<75.2854 181.957> 1008.24 123.88<1041.38 1148.51> 1071.86 123.88<240.867 348.203> 1165.7 124.01<898.285 1005.06> 1190.26 124.04<444.993 552.256> 1227.26 124.48<685.633 792.993>
LayerCount: 2
Fore
SplineSet
338.7 914.051 m 0x018060
 338.7 952.728 371.834 989 413 989 c 0
 442.843 989 462.738 970.338 462.738 942.346 c 0
 462.738 903.407 428.324 868 387 868 c 0
 358.02 868 338.7 886.42 338.7 914.051 c 0x018060
558.262 1056.68 m 0
 558.262 1095.35 591.228 1132 633 1132 c 0
 662.485 1132 682.141 1112.64 682.141 1083.6 c 0
 682.141 1044.61 647.465 1011 607 1011 c 0x012020
 578.401 1011 558.262 1028.98 558.262 1056.68 c 0
798.262 1124.68 m 0x010830
 798.262 1158.54 828.157 1200 873 1200 c 0
 901.676 1200 922.738 1181.33 922.738 1153.32 c 0
 922.738 1117.91 892.443 1079 847 1079 c 0
 819.135 1079 798.262 1096.98 798.262 1124.68 c 0x010830
127.859 492.398 m 0x030420
 127.859 529.145 161.303 566 202 566 c 0
 230.676 566 251.738 547.328 251.738 519.321 c 0
 251.738 477.555 216.185 445 177 445 c 0
 148.278 445 127.859 461.566 127.859 492.398 c 0x030420
207.262 294.679 m 0x090120
 207.262 333.344 240.227 370 282 370 c 0
 311.475 370 331.125 349.309 331.125 321.344 c 0
 331.125 284.894 297.458 249 256 249 c 0
 227.401 249 207.262 266.979 207.262 294.679 c 0x090120
318.236 143.367 m 0x2100a0
 318.236 181.265 349.216 219 393 219 c 0
 412.656 219 442.141 209.324 442.141 170.619 c 0
 442.141 134.057 408.454 98 367 98 c 0
 339.151 98 318.236 114.771 318.236 143.367 c 0x2100a0
563.7 53.0513 m 0
 563.7 92.4039 598.167 128 638 128 c 0
 672.525 128 687.714 101.757 687.714 81.035 c 0
 687.714 42.3066 653.219 7 612 7 c 0x810020
 583.02 7 563.7 25.4205 563.7 53.0513 c 0
870.7 114.051 m 0x410028
 870.7 152.728 903.834 189 945 189 c 0
 974.843 189 994.738 170.338 994.738 142.346 c 0
 994.738 103.407 960.324 68 919 68 c 0
 890.02 68 870.7 86.4204 870.7 114.051 c 0x410028
1071.86 281.398 m 0x110022
 1071.86 315.574 1102.58 355 1146 355 c 0
 1175.84 355 1195.74 336.338 1195.74 308.346 c 0
 1195.74 267.259 1159.91 234 1121 234 c 0
 1092.28 234 1071.86 250.566 1071.86 281.398 c 0x110022
1190.26 483.679 m 0x05002080
 1190.26 519.413 1220.16 559 1265 559 c 0
 1284.72 559 1314.3 549.594 1314.3 511.972 c 0
 1314.3 469.352 1277.22 438 1239 438 c 0
 1210.4 438 1190.26 455.98 1190.26 483.679 c 0x05002080
1227.26 724.679 m 0x01002040
 1227.26 758.544 1257.16 800 1302 800 c 0
 1330.68 800 1351.74 781.328 1351.74 753.321 c 0
 1351.74 717.912 1321.44 679 1276 679 c 0
 1248.13 679 1227.26 696.98 1227.26 724.679 c 0x01002040
1165.7 937.051 m 0x014021
 1165.7 976.404 1200.17 1012 1240 1012 c 0
 1274.52 1012 1289.71 985.758 1289.71 965.035 c 0
 1289.71 926.3 1255.22 891 1214 891 c 0
 1185.02 891 1165.7 909.42 1165.7 937.051 c 0x014021
1008.24 1079.37 m 0x011024
 1008.24 1117.27 1039.22 1155 1083 1155 c 0
 1114.52 1155 1132.12 1133.65 1132.12 1106.36 c 0
 1132.12 1066.51 1094.37 1034 1057 1034 c 0
 1029.15 1034 1008.24 1050.77 1008.24 1079.37 c 0x011024
192.262 724.679 m 0x010220
 192.262 758.544 222.157 800 267 800 c 0
 301.525 800 316.714 773.757 316.714 753.035 c 0
 316.714 719.635 286.428 679 241 679 c 0
 213.136 679 192.262 696.979 192.262 724.679 c 0x010220
EndSplineSet
EndChar

StartChar: uni0E10.descless
Encoding: 63232 63232 241
Width: 1130
Flags: W
HStem: -10 148<580.688 769.35> 290 113<306.576 407.535> 571 126<324.58 473.486> 917 148<1013.59 1182.51> 1001 148<644.399 974.439>
VStem: 198 106<405.82 528.81> 406 165<149.577 272.077> 475 144<466.659 568.603>
LayerCount: 2
Fore
SplineSet
198 424 m 0xee
 198 510 249 697 453 697 c 0
 562 697 619 636 619 524 c 0xed
 619 495 616 463 608 428 c 2
 577 283 l 2
 573 264 571 246 571 231 c 0
 571 170 602 138 666 138 c 0
 746 138 797 188 816 279 c 2
 869 529 l 2
 870 535 871 541 871 546 c 0
 871 630 725 690 242 762 c 1
 380 1020 564 1149 793 1149 c 0xee
 1003 1149 1052 1065 1187 1065 c 0
 1207 1065 1227 1067 1245 1072 c 1
 1174 924 l 1
 1160 922 1144 917 1129 917 c 0xf6
 989 917 967 1001 763 1001 c 0
 699 1001 589 989 509 872 c 1
 837 802 1043 746 1043 608 c 0
 1043 597 1042 586 1039 574 c 2
 976 279 l 2
 935 86 821 -10 635 -10 c 0
 482 -10 406 56 406 187 c 0
 406 216 410 248 417 283 c 2
 424 317 l 1
 410 303 387 290 355 290 c 0
 255 290 198 334 198 424 c 0xee
408 571 m 0
 325 571 304 502 304 465 c 0
 304 431 321 403 361 403 c 0
 457 403 475 486 475 516 c 0
 475 552 451 571 408 571 c 0
EndSplineSet
EndChar

StartChar: uni0E48.low
Encoding: 63242 63242 251
Width: 0
Flags: W
VStem: -32 201<1306 1586>
AnchorPoint: "AboveBase" 80.8066 1227 mark 0
LayerCount: 2
Fore
SplineSet
27 1586 m 1
 169 1586 l 1
 110 1306 l 1
 -32 1306 l 1
 27 1586 l 1
EndSplineSet
EndChar

StartChar: uni0E49.low
Encoding: 63243 63243 252
Width: 0
Flags: W
HStem: 1428 71<-399.037 -339.1> 1628 82<-391.612 -270.986>
VStem: -493 93<1499.99 1617.75> -269 111<1524.03 1627.73>
AnchorPoint: "AboveBase" 20.8066 1227 mark 0
LayerCount: 2
Fore
SplineSet
-318 1628 m 0
 -350.8 1628 -400 1597.6 -400 1552 c 0
 -400 1523 -378 1499 -345 1499 c 0
 -309.788 1499 -269 1535.5 -269 1576 c 0
 -269 1604 -289 1628 -318 1628 c 0
-244 1388 m 1
 20.4796 1479.71 122.008 1657.02 143 1696 c 1
 285 1696 l 1
 182.228 1468.55 -76.0776 1289.2 -408 1246 c 8
 -432 1243 -469 1243 -469 1243 c 1
 -452 1323 l 1
 -419.416 1330.67 -360.828 1354.64 -322 1442 c 1
 -341 1433 -362 1428 -384 1428 c 0
 -448.023 1428 -493 1461.97 -493 1525 c 0
 -493 1637.28 -392.101 1710 -318 1710 c 0
 -183.306 1710 -158 1634.4 -158 1584 c 0
 -158 1554.87 -175.033 1460.6 -244 1388 c 1
EndSplineSet
EndChar

StartChar: uni0E4A.low
Encoding: 63244 63244 253
Width: 0
Flags: MW
HStem: 1242 88<-394.803 -252.686> 1411 78<-334.192 -259.802> 1594 134<-255 -227>
VStem: -516 127<1392.28 1529.01> -252 75<1344.44 1410.12> 86 129<1432.57 1579.61>
AnchorPoint: "AboveBase" 260.807 1227 mark 0
LayerCount: 2
Fore
SplineSet
-305 1330 m 0
 -262.6 1330 -252 1368.15 -252 1381 c 0
 -252 1399 -268 1411 -289 1411 c 0
 -326.6 1411 -336 1371.75 -336 1359 c 0
 -336 1342 -323 1330 -305 1330 c 0
54 1728 m 1
 149.257 1693.85 215 1592.16 215 1500 c 0
 215 1465.2 204.268 1429.3 198 1413 c 1
 413 1743 l 1
 547 1743 l 1
 347 1406 l 2
 281.176 1296.29 153.143 1252.71 -8 1246 c 1
 50.3092 1313.18 86 1392.71 86 1467 c 0
 86 1525 63 1569 26 1594 c 1
 -141 1477 l 1
 -175 1512 -220 1567 -255 1594 c 1
 -360.305 1554.94 -389 1457.08 -389 1417 c 0
 -389 1408 -388 1399 -385 1391 c 1
 -380.792 1454.12 -324.676 1489 -267 1489 c 0
 -208 1489 -177 1445 -177 1401 c 0
 -177 1355.58 -213.6 1242 -360 1242 c 0
 -429.606 1242 -516 1273.4 -516 1399 c 0
 -516 1610.95 -287.831 1709.41 -227 1728 c 1
 -113 1611 l 1
 54 1728 l 1
EndSplineSet
EndChar

StartChar: uni0E4B.low
Encoding: 63245 63245 254
Width: 0
Flags: W
HStem: 1370 142<-147 -35 137 249>
VStem: -177 456<1370 1512>
AnchorPoint: "AboveBase" 200.807 1227 mark 0
LayerCount: 2
Fore
SplineSet
249 1370 m 1
 107 1370 l 1
 77 1228 l 1
 -65 1228 l 1
 -35 1370 l 1
 -177 1370 l 1
 -147 1512 l 1
 -5 1512 l 1
 26 1654 l 1
 168 1654 l 1
 137 1512 l 1
 279 1512 l 1
 249 1370 l 1
EndSplineSet
EndChar

StartChar: uni0E4C.low
Encoding: 63246 63246 255
Width: 0
Flags: W
HStem: 1248 84<-296.028 -132.499>
VStem: -412 111<1348.51 1486.61> -106 104<1358.73 1506.6>
AnchorPoint: "AboveBase" -39.1934 1227 mark 0
LayerCount: 2
Fore
SplineSet
-2 1450 m 0
 -2 1370.68 -80.4398 1248 -221 1248 c 0
 -287 1248 -361 1274 -384 1310 c 0
 -402 1339 -412 1363 -412 1398 c 0
 -412 1496.99 -346.614 1570.1 -311 1596 c 0
 -190.428 1683.42 43.7886 1656.09 158 1796 c 1
 313 1796 l 1
 274.025 1728.16 127.492 1608.4 -84 1569 c 1
 -12.1766 1552.68 -2 1501.63 -2 1450 c 0
-218 1332 m 0
 -170.198 1332 -106 1377.64 -106 1445 c 0
 -106 1485 -132 1512 -185 1512 c 0
 -254.6 1512 -301 1451.93 -301 1401 c 0
 -301 1362 -269 1332 -218 1332 c 0
EndSplineSet
EndChar

StartChar: uni0E0D.descless
Encoding: 63247 63247 256
Width: 1745
Flags: W
HStem: -11 116<343.223 484.554> 0 148<1084 1494> 273 124<416.071 506.562> 1001 148<611.11 965.454>
VStem: 202 137<107.79 240.543> 509 113<155.467 269.799> 1046 168<711.209 919.579>
LayerCount: 2
Fore
SplineSet
622 265 m 0x7e
 622 169 570 -11 360 -11 c 0xbe
 254 -11 202 48 202 157 c 0
 202 187 206 221 214 258 c 2
 245 403 l 2
 267 508 329 598 431 671 c 1
 416 730 359 770 258 792 c 1
 414 1030 608 1149 840 1149 c 0
 1087 1149 1214 1039 1214 825 c 0
 1214 779 1208 729 1196 673 c 2
 1084 148 l 1
 1494 148 l 1
 1705 1139 l 1
 1865 1139 l 1
 1623 0 l 1
 893 0 l 1
 1033 657 l 2
 1042 698 1046 735 1046 769 c 0
 1046 919 962 1001 809 1001 c 0
 663 1001 541 940 443 825 c 1
 519 808 570 754 598 663 c 1
 491 592 426 505 405 403 c 2
 397 369 l 1
 417 387 444 397 479 397 c 0
 579 397 622 348 622 265 c 0x7e
443 273 m 0
 376 273 339 221 339 168 c 0
 339 133 358 105 395 105 c 0
 486 105 509 186 509 215 c 0
 509 251 483 273 443 273 c 0
EndSplineSet
EndChar

StartChar: uniF71B
Encoding: 63259 63259 268
Width: 1000
Flags: W
HStem: 1065 20G<441.742 1061>
VStem: 228 833<61 1085>
LayerCount: 2
Fore
SplineSet
1061 1085 m 1
 843 61 l 1
 228 61 l 1
 446 1085 l 1
 1061 1085 l 1
EndSplineSet
EndChar

StartChar: uniF71C
Encoding: 63260 63260 269
Width: 700
Flags: W
HStem: -423 269<17 211>
VStem: 17 436<-423 -154>
LayerCount: 2
Fore
SplineSet
17 -423 m 1
 211 -154 l 1
 453 -154 l 1
 155 -423 l 1
 17 -423 l 1
EndSplineSet
EndChar

StartChar: uniF71D
Encoding: 63261 63261 270
Width: 800
Flags: W
HStem: -127 102<239 505>
VStem: 132 479<-236 -25>
LayerCount: 2
Fore
SplineSet
566 -236 m 1
 482 -236 l 1
 505 -127 l 1
 239 -127 l 1
 216 -236 l 1
 132 -236 l 1
 177 -25 l 1
 611 -25 l 1
 566 -236 l 1
EndSplineSet
EndChar

StartChar: zerowidthnonjoiner
Encoding: 8204 8204 271
Width: 0
Flags: W
LayerCount: 2
Back
SplineSet
310 1289 m 1
 -22 -275 l 1
 -94 -275 l 1
 238 1289 l 1
 310 1289 l 1
EndSplineSet
EndChar

StartChar: ff
Encoding: 64256 64256 274
Width: 1112
Flags: W
HStem: 0 21G<178 361.252 721 904.252> 922 140<245 374 583 917 1126 1275> 1316 172<811.389 920 1354.39 1463> 1343 172<671.572 925.604 1214.57 1468.6>
LayerCount: 2
Fore
SplineSet
1320 1343 m 0xd0
 1243 1343 1175 1294 1147 1160 c 2
 1126 1062 l 1
 1305 1062 l 1
 1275 922 l 1
 1096 922 l 1
 900 0 l 1
 721 0 l 1
 917 922 l 1
 553 922 l 1
 357 0 l 1
 178 0 l 1
 374 922 l 1
 215 922 l 1
 245 1062 l 1
 404 1062 l 1
 428 1175 l 2
 486 1447 677 1515 809 1515 c 0xd0
 860 1515 909 1506 956 1488 c 1
 920 1316 l 1xe0
 864 1336 824 1343 777 1343 c 0
 700 1343 632 1294 604 1160 c 2
 583 1062 l 1
 947 1062 l 1
 971 1175 l 2
 1029 1447 1220 1515 1352 1515 c 0xd0
 1403 1515 1452 1506 1499 1488 c 1
 1463 1316 l 1xe0
 1407 1336 1367 1343 1320 1343 c 0xd0
EndSplineSet
LCarets2: 1 0 
Ligature2: "'liga' Standard Ligatures lookup 0" f f
EndChar

StartChar: fi
Encoding: 64257 64257 275
Width: 992
Flags: W
HStem: 0 21G<178 361.252 673 857.256> 922 140<245 374 583 869> 1259 207<985 1121> 1343 172<671.357 925.764>
LayerCount: 2
Fore
SplineSet
941 1259 m 1xe0
 985 1466 l 1
 1165 1466 l 1
 1121 1259 l 1
 941 1259 l 1xe0
604 1160 m 2
 583 1062 l 1
 1079 1062 l 1
 853 0 l 1
 673 0 l 1
 869 922 l 1
 553 922 l 1
 357 0 l 1
 178 0 l 1
 374 922 l 1
 215 922 l 1
 245 1062 l 1
 404 1062 l 1
 428 1175 l 2
 486 1447 677 1515 809 1515 c 0
 860 1515 909 1506 956 1488 c 1
 920 1316 l 1
 871 1333 826 1343 786 1343 c 0xd0
 696 1343 632 1292 604 1160 c 2
EndSplineSet
LCarets2: 1 0 
Ligature2: "'liga' Standard Ligatures lookup 0" f i
EndChar

StartChar: fl
Encoding: 64258 64258 276
Width: 994
Flags: W
HStem: 0 21G<178 361.252 670 854.256> 922 140<245 374 583 732> 1343 172<695.653 951.465>
LayerCount: 2
Fore
SplineSet
877 1343 m 0
 743 1343 632 1294 604 1160 c 2
 583 1062 l 1
 762 1062 l 1
 732 922 l 1
 553 922 l 1
 357 0 l 1
 178 0 l 1
 374 922 l 1
 215 922 l 1
 245 1062 l 1
 404 1062 l 1
 428 1175 l 2
 486 1447 675 1515 905 1515 c 0
 994 1515 1076 1484 1162 1466 c 1
 850 0 l 1
 670 0 l 1
 954 1336 l 1
 924 1342 908 1343 877 1343 c 0
EndSplineSet
LCarets2: 1 0 
Ligature2: "'liga' Standard Ligatures lookup 0" f l
EndChar

StartChar: ffi
Encoding: 64259 64259 277
Width: 1535
Flags: W
HStem: 0 21G<178 361.252 721 904.252 1216 1400.26> 922 140<245 374 583 917 1126 1412> 1259 207<1528 1664> 1316 172<811.389 920 1354.39 1463> 1343 172<671.357 925.764 1214.36 1468.76>
LayerCount: 2
Fore
SplineSet
1147 1160 m 2xc8
 1126 1062 l 1
 1622 1062 l 1
 1396 0 l 1
 1216 0 l 1
 1412 922 l 1
 1096 922 l 1
 900 0 l 1
 721 0 l 1
 917 922 l 1
 553 922 l 1
 357 0 l 1
 178 0 l 1
 374 922 l 1
 215 922 l 1
 245 1062 l 1
 404 1062 l 1
 428 1175 l 2
 486 1447 677 1515 809 1515 c 0xc8
 860 1515 909 1506 956 1488 c 1
 920 1316 l 1xd0
 871 1333 826 1343 786 1343 c 0
 696 1343 632 1292 604 1160 c 2
 583 1062 l 1
 947 1062 l 1
 971 1175 l 2
 1029 1447 1220 1515 1352 1515 c 0xc8
 1403 1515 1452 1506 1499 1488 c 1
 1463 1316 l 1xd0
 1414 1333 1369 1343 1329 1343 c 0
 1239 1343 1175 1292 1147 1160 c 2xc8
1484 1259 m 1xe0
 1528 1466 l 1
 1708 1466 l 1
 1664 1259 l 1
 1484 1259 l 1xe0
EndSplineSet
LCarets2: 2 0 0 
Ligature2: "'liga' Standard Ligatures lookup 0" ff i
Ligature2: "'liga' Standard Ligatures lookup 0" f f i
EndChar

StartChar: ffl
Encoding: 64260 64260 278
Width: 1537
Flags: W
HStem: 0 21G<178 361.252 721 904.252 1213 1397.26> 922 140<245 374 583 917 1126 1275> 1343 172<671.601 925.856 1245.4 1494.58>
LayerCount: 2
Fore
SplineSet
1147 1160 m 2
 1126 1062 l 1
 1305 1062 l 1
 1275 922 l 1
 1096 922 l 1
 900 0 l 1
 721 0 l 1
 917 922 l 1
 553 922 l 1
 357 0 l 1
 178 0 l 1
 374 922 l 1
 215 922 l 1
 245 1062 l 1
 404 1062 l 1
 428 1175 l 2
 486 1447 677 1515 809 1515 c 0
 860 1515 909 1506 956 1488 c 1
 920 1316 l 1
 875 1332 829 1343 787 1343 c 0
 704 1343 633 1299 604 1160 c 2
 583 1062 l 1
 947 1062 l 1
 971 1175 l 2
 1029 1447 1218 1515 1448 1515 c 0
 1537 1515 1619 1484 1705 1466 c 1
 1393 0 l 1
 1213 0 l 1
 1497 1336 l 1
 1472 1341 1444 1343 1417 1343 c 0
 1299 1343 1175 1294 1147 1160 c 2
EndSplineSet
LCarets2: 2 0 0 
Ligature2: "'liga' Standard Ligatures lookup 0" ff l
Ligature2: "'liga' Standard Ligatures lookup 0" f f l
EndChar
